<?xml version="1.0" encoding="utf-8"?>
<!-- Generator: Adobe Illustrator 23.0.1, SVG Export Plug-In . SVG Version: 6.00 Build 0)  -->
<svg version="1.1" id="Layer_1" xmlns="http://www.w3.org/2000/svg" xmlns:xlink="http://www.w3.org/1999/xlink" x="0px" y="0px"
	 viewBox="0 0 1920 1080" style="enable-background:new 0 0 1920 1080;" xml:space="preserve">
<g id="Group_16" transform="translate(1470.185 959.006)">
	<g id="Group_14" transform="translate(2.815 11.994)">
		<path id="Path_16" d="M-593.9-458.1c19.9,0,36.1,16.2,36.1,36.1c0,18.7-14.4,34.4-33,36c-1,0.2-2,0.2-3.1,0.2
			c-2.6,0-5.3-0.3-7.8-0.8c-19.5-4.3-31.8-23.6-27.5-43.1C-625.6-446.4-610.9-458.2-593.9-458.1 M-593.9-460c-21,0-38,17-38.1,38
			c0,17.8,12.4,33.3,29.8,37.2c2.7,0.6,5.5,0.9,8.2,0.8c1.1,0,2.3,0,3.4-0.2c19.3-1.6,34.6-18.2,34.6-37.9
			C-556-443-573-460-593.9-460L-593.9-460z"/>
	</g>
	<g id="Group_15" transform="translate(27.057 33.079)">
		<path id="Path_17" d="M-614.1-450.7c0.9-0.8,2.1-1.2,3.3-1.1c1.7,0,3.3,0.2,4.9,0.7l1.4-7.6c-2.9-0.9-5.9-1.4-9-1.3
			c-2.6-0.1-5.2,0.4-7.5,1.6c-1.8,0.8-3.2,2.3-4,4.1c-0.8,1.6-1.1,4.3-1.1,7.6v3h-6v8.7h6v27.2c2.6,0.6,5.2,0.9,7.8,0.8
			c1,0,2.1,0,3.1-0.2V-435h7.9v-8.7h-7.9v-2.8C-615.1-448.6-614.8-449.9-614.1-450.7z"/>
	</g>
</g>
</svg>
