<?xml version="1.0" encoding="utf-8"?>
<!-- Generator: Adobe Illustrator 23.0.1, SVG Export Plug-In . SVG Version: 6.00 Build 0)  -->
<svg version="1.1" id="Layer_1" xmlns="http://www.w3.org/2000/svg" xmlns:xlink="http://www.w3.org/1999/xlink" x="0px" y="0px"
	 viewBox="0 0 1920 1080" style="enable-background:new 0 0 1920 1080;" xml:space="preserve">
<g id="Group_22" transform="translate(1706.107 1018.896)">
	<g id="Group_20" transform="translate(-42.107 -47.896)">
		<path id="Path_21" d="M-578.4-368.2c19.8,0,35.8,16,35.8,35.8c0,19.8-16,35.8-35.8,35.8c0,0,0,0,0,0c-19.8,0-35.8-16-35.8-35.8
			c0,0,0,0,0,0C-614.2-352.1-598.1-368.1-578.4-368.2 M-578.4-370c-20.8,0-37.6,16.9-37.6,37.7c0,20.8,16.9,37.6,37.6,37.7
			c20.8,0,37.6-16.9,37.7-37.7C-540.7-353.1-557.6-370-578.4-370L-578.4-370z"/>
	</g>
</g>
<g id="Group_461" transform="translate(1683.27 989.27)">
	<g id="Group_460">
		<path id="Path_1445" d="M-588.9-370h-14.8c-6.8,0-12.3,5.5-12.3,12.3v14.8c0,6.8,5.5,12.3,12.3,12.3h14.8
			c6.8,0,12.3-5.5,12.3-12.3v-14.8C-576.5-364.5-582.1-370-588.9-370z M-580.2-342.9c0,4.8-3.9,8.6-8.6,8.6h-14.8
			c-4.8,0-8.6-3.9-8.6-8.6v-14.8c0-4.8,3.9-8.6,8.6-8.6h14.8c4.8,0,8.6,3.9,8.6,8.6L-580.2-342.9z"/>
	</g>
</g>
<g id="Group_462">
	<path id="Path_1446" d="M1087,629.1c-5.4,0-9.9,4.4-9.9,9.9c0,5.4,4.4,9.9,9.9,9.9c5.4,0,9.9-4.4,9.9-9.9
		C1096.9,633.6,1092.4,629.1,1087,629.1C1087,629.1,1087,629.1,1087,629.1z M1087,645.2c-3.4,0-6.2-2.8-6.2-6.2s2.8-6.2,6.2-6.2
		s6.2,2.8,6.2,6.2C1093.2,642.4,1090.4,645.2,1087,645.2z"/>
</g>
<g id="Group_464">
	<circle id="Ellipse_34" cx="1097.6" cy="628.4" r="1.3"/>
</g>
</svg>
