<?xml version="1.0" encoding="utf-8"?>
<!-- Generator: Adobe Illustrator 23.0.1, SVG Export Plug-In . SVG Version: 6.00 Build 0)  -->
<svg version="1.1" id="Layer_1" xmlns="http://www.w3.org/2000/svg" xmlns:xlink="http://www.w3.org/1999/xlink" x="0px" y="0px"
	 viewBox="0 0 1920 1080" style="enable-background:new 0 0 1920 1080;" xml:space="preserve">
<style type="text/css">
	.st0{fill-rule:evenodd;clip-rule:evenodd;}
</style>
<g id="Group_19" transform="translate(1615.935 1014.721)">
	<g id="Group_17" transform="translate(-47.935 -43.721)">
		<path id="Path_18" d="M-529.9-368.1c20,0,36.3,16.2,36.3,36.3c0,0,0,0,0,0c0,20-16.2,36.3-36.3,36.3c0,0,0,0,0,0
			c-20,0-36.3-16.2-36.3-36.3c0,0,0,0,0,0C-566.1-351.9-549.9-368.1-529.9-368.1C-529.9-368.1-529.9-368.1-529.9-368.1 M-529.9-370
			c-21.1,0-38.1,17.1-38.1,38.1c0,21,17.1,38.1,38.1,38.1c21.1,0,38.1-17.1,38.2-38.1C-491.7-352.9-508.8-370-529.9-370z"/>
	</g>
	<g id="Group_18" transform="translate(-31.902 -27.812)">
		<path id="Path_19" class="st0" d="M-524.4-353c-2.3-10-11.3-17-21.5-17c-1.4,0-2.8,0.2-4.2,0.4c-11.9,2.4-19.7,13.9-17.4,25.9
			c0.4,2.2,1.2,4.3,2.3,6.2c0.2,0.3,0.3,0.7,0.2,1.1c-1,3.4-2,6.8-2.9,10.3c-0.2,0.6-0.2,0.6,0.4,0.4c3.6-1,7.1-1.9,10.7-2.8
			c0.3-0.1,0.5-0.1,0.8,0c4.5,2.3,9.6,3,14.5,2c12-2.4,19.7-14.1,17.3-26.1C-524.3-352.6-524.3-352.8-524.4-353z M-542.8-329.9
			c-0.8,0.2-1.7,0.3-2.5,0.2c-3.5,0.1-6.9-0.8-9.9-2.6c-0.3-0.3-0.7-0.3-1.1-0.2c-2,0.5-3.9,1-5.9,1.5c-0.4,0.1-0.4,0-0.4-0.4
			c0.5-1.8,1-3.7,1.6-5.6c0.2-0.4,0.1-0.9-0.2-1.3c-4-6.3-3.8-14.5,0.7-20.6c4.7-6.2,11.1-8.8,18.7-7.2c7.5,1.6,12.3,6.4,14,13.9
			c2.3,9.8-3.8,19.5-13.6,21.8C-542-330-542.4-329.9-542.8-329.9z"/>
		<path id="Path_20" class="st0" d="M-540.1-337.4c-0.8,0.1-1.6,0-2.3-0.3c-4.9-1.5-9.1-4.6-11.9-8.8c-1.3-1.5-2.1-3.3-2.6-5.2
			c-0.5-2.2,0.3-4.4,2-5.9c0.9-0.6,1.9-0.8,2.9-0.4c0.2,0.2,0.4,0.4,0.5,0.6c0.6,1.6,1.3,3,1.9,4.5c0.1,0.3,0.1,0.7-0.1,0.9
			c-0.4,0.7-0.8,1.3-1.4,1.8c-0.4,0.3-0.4,0.8-0.2,1.1c0,0,0,0,0.1,0.1c1.7,3,4.3,5.3,7.5,6.5c0.4,0.2,0.9,0.1,1.1-0.3
			c0.6-0.7,1.1-1.4,1.6-2.1c0.3-0.4,0.8-0.5,1.2-0.3c1.1,0.5,2.1,1,3.2,1.5c0.3,0.2,0.5,0.3,0.7,0.4c1.1,0.5,1.1,0.6,1,1.8
			c-0.1,2.3-1.9,3.5-3.9,4C-539.1-337.4-539.6-337.4-540.1-337.4z"/>
	</g>
</g>
</svg>
