<?xml version="1.0" encoding="utf-8"?>
<!-- Generator: Adobe Illustrator 23.0.1, SVG Export Plug-In . SVG Version: 6.00 Build 0)  -->
<svg version="1.1" id="Layer_1" xmlns="http://www.w3.org/2000/svg" xmlns:xlink="http://www.w3.org/1999/xlink" x="0px" y="0px"
	 viewBox="0 0 1920 1080" style="enable-background:new 0 0 1920 1080;" xml:space="preserve">
<style type="text/css">
	.st0{stroke:#FFFFFF;stroke-width:4;stroke-miterlimit:10;}
	.st1{fill-rule:evenodd;clip-rule:evenodd;fill:#FFFFFF;}
</style>
<g id="Group_28" transform="translate(1606.233 862.69)">
	<g id="Group_27" transform="translate(151.767 107.31)">
		<g id="Group_23">
			<path id="Path_23" class="st0" d="M-623.7-293.3L-623.7-293.3c-21.2,0-38.3-17.2-38.3-38.3l0,0c0-21.2,17.2-38.3,38.3-38.3l0,0
				c21.2,0,38.3,17.2,38.3,38.3l0,0l0,0C-585.3-310.5-602.5-293.3-623.7-293.3z"/>
		</g>
		<g id="Group_26" transform="translate(18.152 24.979)">
			<g id="Group_25">
				<g id="Group_24">
					<path id="Path_24" class="st1" d="M-622-364c0-3.3-2.7-6-6-6c0,0,0,0,0,0H-656c-3.3,0-6,2.7-6,6v16c0,3.3,2.7,6,6,6
						c0,0,0,0,0,0h28.1c3.3,0,6-2.7,6-6c0,0,0,0,0,0L-622-364z M-646-349.2v-15.1l11.4,7.5L-646-349.2z"/>
				</g>
			</g>
		</g>
	</g>
</g>
</svg>
