<?xml version="1.0" encoding="utf-8"?>
<!-- Generator: Adobe Illustrator 22.0.1, SVG Export Plug-In . SVG Version: 6.00 Build 0)  -->
<svg version="1.1" id="Layer_1" xmlns="http://www.w3.org/2000/svg" xmlns:xlink="http://www.w3.org/1999/xlink" x="0px" y="0px"
	 viewBox="0 0 595.3 841.9" style="enable-background:new 0 0 595.3 841.9;" xml:space="preserve">
<style type="text/css">
	.st0{fill:#010101;}
	.st1{fill:#FFCD39;}
	.st2{fill:#FFFFFF;}
	.st3{fill:#EA6AA8;}
	.st4{fill:#FED023;}
	.st5{fill:#5260AB;}
	.st6{fill:#5672B7;}
	.st7{fill:#32ABE2;}
	.st8{fill:#4BC8EE;}
	.st9{fill:none;}
	.st10{display:none;}
</style>
<g>
	<g id="Group_289" transform="translate(0 82.891)">
		<path id="Path_1290" class="st0" d="M218.7,205.3l2.2,4.1H207c0.4-1.5,2-2.4,3.7-2.2l1.6,0.2c0.9,0,1.6-0.6,1.6-1.5
			c0-0.2-0.1-0.3-0.2-0.6H218.7L218.7,205.3z"/>
		<path id="Path_1291" class="st0" d="M239.3,205.3l-2.2,4.1H251c-0.4-1.5-2-2.4-3.7-2.2l-1.6,0.2c-0.9,0-1.6-0.6-1.6-1.5
			c0-0.2,0.1-0.3,0.2-0.6H239.3L239.3,205.3z"/>
		<path id="Path_1292" class="st1" d="M251.3,172l-11.4-2.7l-10.9,0.6l-10.9-0.6l-11.4,2.7c-2.9,0.8-4.5,3.5-3.7,6.1l8.6,27.7h8.6
			l-5.9-26.1l14.6-3.6l14.6,3.6l-5.9,26.1h8.6l8.6-27.7C255.8,175.4,254.2,172.8,251.3,172z"/>
	</g>
	<path id="Path_1293" class="st0" d="M227.9,252.8v-33.7h7.5c1.2,0,3.1,0.1,5.1,0.2c4.3,0.2,7.8,3.2,8.2,7.1l2.1,14.6
		c0.3,2.2-0.7,4.4-2.7,5.7l-3.4,2.3l-2.3-14.9v18.6H227.9z"/>
	<path id="Path_1294" class="st0" d="M230.1,252.8v-33.7h-7.5c-1.2,0-3.1,0.1-5.1,0.2c-4.3,0.2-7.8,3.2-8.2,7.1l-2.1,14.6
		c-0.3,2.2,0.7,4.4,2.7,5.7l3.4,2.3l2.3-14.9v18.6H230.1z"/>
	<g id="Group_290" transform="translate(11.601 59.298)">
		<path id="Path_1295" class="st2" d="M204.5,195.3h25.9c1.3,0,2.3-0.8,2.5-2l1.7-14.5c0.2-1.3-0.9-2.4-2.3-2.4c-0.1,0-0.2,0-0.2,0
			h-29.3c-1.4,0-2.5,1-2.5,2.2c0,0.1,0,0.1,0,0.2l1.7,14.5C202.1,194.5,203.2,195.3,204.5,195.3z"/>
		<path id="Path_1296" class="st3" d="M215.2,185.8c0,1.1,1,2,2.2,2c1.2,0,2.2-0.9,2.2-2c0-1.1-1-2-2.2-2l0,0
			C216.2,183.9,215.2,184.8,215.2,185.8z"/>
	</g>
	<g id="Group_291" transform="translate(17.584)">
		<path id="Path_1297" class="st2" d="M208.1,207.8l0.2,6.1c0,2.1-1.9,3.8-4.2,3.9c-2.3,0-4.3-1.7-4.4-3.8l0,0l0.1-6.2H208.1z"/>
		<path id="Path_1298" class="st3" d="M199.3,204.7c-0.1-3,3-6.6,7.2-7.6c4.1-1,8.6,0.6,10.8,3.8l0.4,0.6c1.5,2.2,1.9,4.7,1,7.1
			l-2.9,6.4l-0.2,4.3l-4.3,2.4l-4-2.4l0.2-4.6h-3.8c-2.6-0.1-4.8-2-4.8-4.3v-0.1v-2L199.3,204.7z"/>
		<ellipse id="Ellipse_32" class="st3" cx="214" cy="207" rx="2.4" ry="2.2"/>
		<path id="Path_1299" class="st2" d="M203.3,209.9c0,1,0.9,1.9,2.1,1.9c1.2,0,2.1-0.8,2.1-1.9"/>
		<path id="Path_1300" class="st2" d="M199.5,200.8c1.9-5.1,7.8-7.5,13.3-6.2l0,0c5.1,1.1,8.6,5.1,8.8,9.7l0.2,9.6
			c0.1,2.1-1.9,3.8-4.2,3.9h-0.1l0,0c-2.3,0-4.3-1.7-4.3-3.8l0,0l0.1-10.4l-14.3-0.8C199,202.1,199.2,201.4,199.5,200.8z"/>
	</g>
</g>
<path id="Path_1319" class="st0" d="M152.4,340v6.9c0,3.1,2.5,5.7,5.7,5.7l0,0h28.1c3.1,0,5.7-2.5,5.7-5.7l0,0V340H152.4z"/>
<path id="Path_1320" class="st0" d="M191.8,293.7v-4.8c0-3.1-2.5-5.7-5.7-5.7l0,0H158c-3.1,0-5.7,2.5-5.7,5.7v4.8H191.8z"/>
<g id="Group_300" transform="translate(18.863 69.265)">
	<path id="Path_1321" class="st4" d="M147.6,271.6c0,3.1,2.5,5.6,5.6,5.6s5.6-2.5,5.6-5.6s-2.5-5.6-5.6-5.6
		C150.2,265.9,147.6,268.4,147.6,271.6L147.6,271.6z"/>
</g>
<rect id="Rectangle_1459" x="152.4" y="292.6" class="st3" width="39.4" height="48.2"/>
<path id="Path_1322" class="st2" d="M175.2,323.6c0.1-0.8-0.2-1.6-0.7-2.3c-0.7-0.7-1.6-1.3-2.5-1.6c-2.4-0.8-4.5-2.1-6.6-3.7
	c-1.3-1.2-2-3.1-2-5.4c-0.1-2,0.7-4,2.2-5.3c1.6-1.4,3.7-2.3,5.8-2.5v-4h3.1v4.1c4.4,0.4,7.7,4.3,7.4,8.8l-0.1,0.1h-6.3
	c0.1-1.1-0.2-2.2-0.8-3.1c-0.5-0.7-1.3-1-2.2-1c-0.7-0.1-1.5,0.2-2,0.8c-0.4,0.6-0.7,1.3-0.7,2.2c0,0.7,0.2,1.5,0.7,2.2
	c0.7,0.7,1.6,1.3,2.6,1.6c2.3,0.9,4.5,2.2,6.5,3.7c1.4,1.3,2.1,3.1,2.1,5.4c0.1,2-0.7,4-2.1,5.3c-1.6,1.4-3.5,2.2-5.6,2.4v3.8h-3.1
	v-3.9c-2.2-0.1-4.4-1-6.1-2.6c-1.6-1.5-2.4-3.7-2.4-6.5l0.1-0.1h6.3c0,1.6,0.4,2.7,1,3.4c0.7,0.7,1.6,1,2.7,1
	c0.7,0.1,1.6-0.2,2.1-0.8C175.1,325.1,175.3,324.4,175.2,323.6z"/>
<g id="Group_297" transform="translate(46.962)">
	<path id="Path_1301" class="st0" d="M401.7,321l-0.9-4.5l11.9-4.5l0,0c0.1,1.7-1,3.2-2.5,3.5l-1.5,0.3c-1,0.4-3.7,2.7-3,3.5
		L401.7,321z"/>
	<path id="Path_1302" class="st5" d="M370.7,335.6c5,2.7,19.1,8.6,19.1,8.6l10.1-25.6l7.2,0.2l-8.4,29.5c-0.3,3.2-2.8,5.5-5.7,5.2
		c-0.1,0-0.2,0-0.3-0.1l-33.1-5l-1-13.3l-2.7-0.8C364.2,332.7,365.6,333,370.7,335.6z"/>
	<path id="Path_1303" class="st0" d="M395.6,322.8l-1-4.4l11.8-4.8l0,0c0.2,1.7-0.9,3.3-2.4,3.6l-1.5,0.3c-1,0.4-3.6,2.8-2.9,3.6
		L395.6,322.8z"/>
	<path id="Path_1304" class="st6" d="M369.3,334.9c4.3,2.7,15.5,9.3,15.5,9.3l8.5-24.3l6.5,1.2l-8,28.4c-0.4,3.7-3.4,6.5-6.9,6.1
		l-30.3-1.8l-2.2-16.6l3.2-3.1C359.1,333.1,363.1,331,369.3,334.9z"/>
	<g id="Group_296">
		<g id="Group_294" transform="translate(2.117 50.698)">
			<g id="Group_293" transform="translate(0 27.564)">
				<path id="Path_1305" class="st3" d="M306,269.6l-1,0.2c-3-0.1-5.8-1.2-8.1-3.3l-0.2-0.2c-0.5-0.4-1.3-0.4-1.7,0.1
					c-0.1,0.1-0.1,0.1-0.1,0.2l0,0c-0.2,0.5-0.2,1.1,0.1,1.5l0,0c2,2.6,5,4.3,8.1,4.7l3.5,0.5L306,269.6z"/>
				<path id="Path_1306" class="st3" d="M298.3,271.7l6.7,0.1v1.6l-6.7-0.1c-0.4,0-0.7-0.4-0.7-0.8
					C297.6,272,297.9,271.7,298.3,271.7L298.3,271.7z"/>
			</g>
			<path id="Path_1307" class="st7" d="M301.5,296.3v4.5h22l13.5-14.4l-13.5-10l-5.2,18L301.5,296.3z"/>
		</g>
		<path id="Path_1308" class="st8" d="M332.2,319.9c2.5-1.3,4.7,0.5,7,2.9c2,2.1,4.5,8,8,10.1c5.2,3.2,6.4,1.3,9.1,1l-0.7,19.9
			c0,0-17.2,0-23.7-8.4c-6.5-8.4-7.6-11.8-6.4-20.9L332.2,319.9z"/>
		<path id="Path_1309" class="st3" d="M315.7,307.1c-0.4-4.2,3.4-9.6,8.9-9.7c3,0,5.8,1.6,7.6,4.2l0.2,0.3c1.5,2.2,2.3,7.3,1.8,10
			l-2,7.3l0.2,0.4l-3.2,4.9c-0.7,1.1-2.1,1.4-3.1,0.6c-0.1-0.1-0.2-0.2-0.3-0.3l-0.2-0.2l-1.8-4.9L321,320c-2.4,0.2-4.6-1.8-4.8-4.4
			v-0.1l-0.2-2.2L315.7,307.1z"/>
		<path id="Path_1310" class="st0" d="M314,299.3l4.3-0.5c2.3-2.5,5.5-3.6,8.7-3l0,0c5.5,0.9,9.2,6.5,8.4,12.6
			c-0.1,0.4-0.2,0.9-0.3,1.3c-0.6,2.1-2.1,6.6-2.1,6.6l-5.1-7.3C314.5,307.8,314,299.3,314,299.3z"/>
		<path id="Path_1311" class="st3" d="M327.3,310.8c0.1,1.4,1.2,2.4,2.4,2.2c1.3-0.1,2.2-1.3,2-2.7c-0.1-1.4-1.2-2.4-2.4-2.2
			C328.1,308.2,327.2,309.4,327.3,310.8z"/>
		<path id="Path_1312" class="st2" d="M319.9,314.2c0.1,1.2,1,2.1,2.1,1.9c1.1-0.1,1.9-1.1,1.8-2.3l0,0"/>
		<g id="Group_295" transform="translate(0 82.496)">
			<path id="Path_1313" class="st3" d="M299.2,270.1l6.7,0.1v1.6l-6.7-0.1c-0.4,0-0.7-0.4-0.7-0.8S298.8,270.1,299.2,270.1
				L299.2,270.1z"/>
			<path id="Path_1314" class="st3" d="M307,268l-1,0.2c-3-0.1-5.8-1.2-8.1-3.3l-0.2-0.2c-0.5-0.4-1.3-0.4-1.7,0.1
				c-0.1,0.1-0.1,0.1-0.1,0.2l0,0c-0.2,0.5-0.2,1.1,0.1,1.5l0,0c2,2.6,5,4.3,8.1,4.7l3.5,0.5L307,268z"/>
		</g>
		<path id="Path_1315" class="st8" d="M305.5,350.5v5.5h19.2c2.2,0,4.2-1.4,5.1-3.7l7.4-18.1l-7.1-6.5l-7.3,21L305.5,350.5z"/>
	</g>
</g>
<g id="Group_298" transform="translate(0 61.244)">
	<path id="Path_1316" class="st2" d="M345.5,294.9h10.1c0-1.7-1.3-3.1-2.8-3.1l0,0h-7.1L345.5,294.9z"/>
	<path id="Path_1317" class="st0" d="M321.7,294.9h24.8c1.3,0,2.3-1.1,2.3-2.6c0-0.2,0-0.4-0.1-0.6l-3.4-17.4c-0.2-1.2-1.2-2-2.3-2
		h-24.8c-1.3,0-2.3,1.1-2.3,2.6c0,0.2,0,0.4,0.1,0.5l3.4,17.4C319.6,294.1,320.6,294.9,321.7,294.9z"/>
	<path id="Path_1318" class="st2" d="M330.2,283.7c0,1.3,1,2.4,2.2,2.4c1.2,0,2.2-1.1,2.2-2.4c0-1.3-1-2.4-2.2-2.4l0,0
		C331.2,281.3,330.2,282.4,330.2,283.7z"/>
</g>
<rect id="Rectangle_1458" x="373.2" y="306.8" class="st0" width="1.9" height="5.2"/>
<polygon class="st9" points="66.5,109.7 127.5,109.7 127.5,109.7 66.5,109.7 "/>
<g class="st10">
</g>
<rect x="162.6" y="405.8" class="st9" width="67.5" height="1.3"/>
<g id="Group_285" transform="translate(0)">
	<path id="Path_1275" class="st1" d="M501.2,338.3c1.6-2.6,4.7-4.1,7.6-3.4l13.1,3H552l13.1-3c3-0.6,6,0.6,7.6,3.2
		c2.3,3.7,0.8,8.9-3.2,10.6l-23.4,7.6h-24.8l-17-7.6c-3.7-1.7-5.3-6-3.6-9.7C500.9,338.8,501.1,338.6,501.2,338.3z"/>
	<path id="Path_1276" class="st0" d="M529.3,354.7l-1.5,1.7l-17.1,0.5l0,0c0.5-2.1,2.4-3.5,4.5-3.2l2,0.2c3.7,0,6.2-3.1,6.2-3.1
		L529.3,354.7z"/>
	<path id="Path_1277" class="st0" d="M555.1,353.1c0.5,0.1,1,0.2,1.5,0.2l2-0.2c2.1-0.2,4.1,1.2,4.5,3.2l-17.1,0.1L555.1,353.1z"/>
	<g id="Group_282" transform="translate(0 123.16)">
		<path id="Path_1278" class="st3" d="M502.6,214.8l7.1-7l1.5,1.6l-7.1,7c-0.4,0.4-1.1,0.4-1.6,0C502.1,216,502.1,215.3,502.6,214.8
			L502.6,214.8L502.6,214.8z"/>
		<path id="Path_1279" class="st3" d="M508.7,205.5l-0.9,0.4c-3.1,3.1-7.2,5-11.6,5.4l-0.3,0.1c-1,0.1-1.7,0.9-1.6,1.9
			c0,0.1,0,0.2,0.1,0.3l0,0c0.2,0.7,0.8,1.2,1.6,1.3l0,0c4.7,0.4,9.3-1.1,13-4l4.1-3.2L508.7,205.5z"/>
	</g>
	<g id="Group_283" transform="translate(20.737 54.383)">
		<path id="Path_1280" class="st2" d="M492.2,266.8l1.9-18.3c0.8-7.1,3.8-10,9.1-10.4c2.3-0.2,22-0.2,24.3,0c3.7,0.2,6.1,1.7,8,4.6
			l0,0l10.8,16.5l12-14.3l4.9,4.3l-14.2,19.6c-1.9,2.6-5.4,3.1-8,1.2c-0.5-0.4-0.9-0.8-1.3-1.3l-8.2-12.5l-2.2,27.3h-25.9l-2.4-26.3
			l-1.9,12.8c-0.2,1.1-0.7,2.1-1.5,2.7l-8.4,7.9l-3.8-5.4L492.2,266.8z"/>
		<path id="Path_1281" class="st3" d="M567.2,243.5c-0.1-0.9-0.3-1.7-0.9-2.4l1.9-5.1c0.2-0.6-0.1-1.4-0.8-1.6
			c-0.6-0.2-1.3,0.1-1.5,0.7l-1.7,4.5c-0.1,0-0.1,0-0.1,0l-0.3-4.8c-0.1-0.7-0.6-1.2-1.3-1.2l0,0c-0.7,0.1-1.2,0.6-1.2,1.4l0.3,4.8
			c-1.4,0.5-2.4,1.6-2.9,3l-0.4,2.2l4.9,4.3l2.7-2.3l0,0C566.8,246.1,567.4,244.8,567.2,243.5z"/>
	</g>
	<g id="Group_284" transform="translate(52.686)">
		<path id="Path_1282" class="st3" d="M499,271.9c0.1-4.2-3.6-9.1-8.9-10.6c-5.1-1.4-10.5,0.8-13.3,5.4l-0.5,0.8
			c-1.8,3-2.3,6.6-1.3,10l3.5,8.8l0.1,6.3l5,3.8l5.1-3.8l0.1-6.7h4.7c3.3-0.1,5.9-2.7,5.9-6v-0.1v-2.8L499,271.9z"/>
		<path id="Path_1283" class="st2" d="M494.1,279.2c0,1.5-1.2,2.7-2.6,2.7c-1.5,0-2.6-1.2-2.6-2.7"/>
		<path id="Path_1284" class="st0" d="M477.8,284.5l-4.8-10l-0.1-0.2c-2.3-7.4,1.7-15.4,9.1-17.7c0.5-0.2,1-0.3,1.6-0.4l0,0
			c7.3-1.4,14.3,3.2,16.1,10.5l-1.9,2.1c-5.6,5-15.2,3.8-15.2,3.8L477.8,284.5z"/>
		<path id="Path_1285" class="st3" d="M485.7,275.5c0,1.7-1.3,3.1-3,3.1c-1.7,0-3-1.4-3-3.1c0-1.7,1.3-3.1,3-3.1l0,0
			C484.4,272.5,485.7,273.8,485.7,275.5z"/>
	</g>
</g>
<path id="Path_1286" class="st0" d="M531.9,269.2c-1.6-5-8.7-10.3-14.9-3.1c-6.2,7.1,0.2,16.6-8.9,18.8c0,0,9.7,9.7,18.2-2.9"/>
</svg>
