<svg xmlns="http://www.w3.org/2000/svg"  viewBox="-13 -13 60 60">
  <g id="iconfinder_social-linkedin_216394" transform="translate(-4.95 -5)">
    <g id="Group_864" data-name="Group 864" transform="translate(5.065 14.166)">
      <path id="Path_2048" data-name="Path 2048" d="M11.875,31.915H5V9h6.875Zm25.207,0H30.207V19.674c0-3.19-1.137-4.778-3.389-4.778a3.387,3.387,0,0,0-3.485,2.67v14.35H16.458s.092-20.624,0-22.915h5.426l.419,4.583h.142A7.652,7.652,0,0,1,29.2,9.738a7.117,7.117,0,0,1,5.7,2.294c1.46,1.643,2.186,3.847,2.186,6.943Z" transform="translate(-5 -9)" fill="#fff"/>
    </g>
    <g id="Group_865" data-name="Group 865" transform="translate(4.95 5)">
      <ellipse id="Ellipse_90" data-name="Ellipse 90" cx="3.552" cy="3.437" rx="3.552" ry="3.437" fill="#fff"/>
    </g>
  </g>
</svg>
