<svg id="svg" version="1.1" xmlns="http://www.w3.org/2000/svg" xmlns:xlink="http://www.w3.org/1999/xlink" width="400" height="326.13009922822494" viewBox="0, 0, 400,326.13009922822494"><g id="svgg"><path id="path0" d="M251.326 54.842 C 251.600 54.894,251.997 54.892,252.208 54.837 C 252.418 54.782,252.194 54.739,251.709 54.741 C 251.224 54.744,251.051 54.789,251.326 54.842 M246.141 55.058 C 246.353 55.114,246.701 55.114,246.913 55.058 C 247.125 55.003,246.951 54.957,246.527 54.957 C 246.103 54.957,245.929 55.003,246.141 55.058 M272.862 57.055 C 273.217 57.447,273.556 57.720,273.615 57.660 C 273.674 57.601,273.682 57.528,273.631 57.497 C 273.580 57.467,273.241 57.194,272.878 56.892 L 272.216 56.341 272.862 57.055 M249.449 69.832 C 249.661 69.888,250.008 69.888,250.221 69.832 C 250.433 69.777,250.259 69.731,249.835 69.731 C 249.410 69.731,249.236 69.777,249.449 69.832 M242.031 90.610 C 247.121 99.779,257.722 101.655,261.949 94.133 L 262.470 93.206 261.941 93.356 C 261.650 93.438,260.865 93.661,260.198 93.851 C 255.039 95.318,247.869 93.933,242.999 90.528 C 241.395 89.406,241.365 89.409,242.031 90.610 M265.050 102.146 C 265.050 108.496,261.724 112.592,255.237 114.230 C 246.242 116.501,239.434 111.915,237.316 102.158 C 237.125 101.274,236.900 100.551,236.818 100.551 C 236.328 100.551,212.875 108.789,206.437 111.223 C 195.485 115.362,194.505 116.439,183.131 136.825 C 181.575 139.614,179.741 142.740,179.056 143.771 C 171.334 155.393,157.446 185.569,157.443 190.736 C 157.440 194.922,167.609 202.959,189.305 215.916 C 196.940 220.476,198.922 221.632,200.772 222.602 C 201.742 223.111,202.913 223.753,203.374 224.030 L 204.212 224.533 204.093 224.009 C 203.944 223.353,200.882 205.896,200.882 205.702 C 200.882 205.624,200.014 204.840,198.953 203.961 C 197.891 203.081,195.187 200.510,192.944 198.248 C 190.700 195.986,187.706 193.048,186.290 191.720 C 184.559 190.096,183.556 188.972,183.228 188.286 C 182.637 187.051,182.193 188.022,187.349 179.272 C 189.529 175.573,193.540 168.709,196.263 164.019 C 198.985 159.329,201.276 155.558,201.353 155.640 C 201.608 155.910,206.531 167.625,208.026 171.523 C 209.991 176.642,211.141 180.119,212.013 183.572 L 212.737 186.439 215.023 186.383 C 216.281 186.352,233.484 185.967,253.252 185.528 C 273.021 185.088,289.278 184.654,289.379 184.562 C 289.480 184.471,289.811 182.920,290.115 181.117 C 290.853 176.738,291.911 172.621,293.042 169.734 C 294.521 165.956,296.070 158.951,296.920 152.199 L 297.066 151.035 304.052 160.358 C 311.911 170.846,316.828 177.174,318.655 179.149 C 321.566 182.298,321.210 183.120,313.110 191.951 C 311.331 193.892,309.545 195.860,309.143 196.325 C 308.249 197.358,305.564 199.459,302.756 201.321 C 301.604 202.086,300.636 202.730,300.605 202.754 C 300.574 202.777,299.903 207.153,299.114 212.478 C 298.325 217.804,297.624 222.430,297.556 222.758 C 297.240 224.291,313.407 215.403,320.614 210.082 C 329.079 203.833,339.861 191.544,342.132 185.557 C 343.289 182.506,342.982 180.580,340.758 176.943 C 326.641 153.856,319.377 140.683,315.742 131.578 C 311.962 122.108,304.917 114.769,295.149 110.126 C 292.892 109.053,283.828 105.952,270.342 101.640 C 267.613 100.767,265.306 100.011,265.215 99.959 C 265.124 99.906,265.050 100.891,265.050 102.146 M14.994 261.521 L 14.994 267.696 47.078 267.696 L 79.162 267.696 79.162 261.521 L 79.162 255.347 47.078 255.347 L 14.994 255.347 14.994 261.521 " stroke="none" fill="#e05752" fill-rule="evenodd"></path><path id="path1" d="M271.672 52.640 C 269.167 53.696,263.740 54.303,252.481 54.788 C 241.061 55.280,240.175 55.404,238.665 56.729 C 237.231 57.989,236.410 61.086,237.431 61.384 C 237.643 61.446,238.882 61.802,240.183 62.175 C 241.484 62.549,242.687 62.908,242.857 62.973 C 243.074 63.056,243.211 62.846,243.321 62.264 C 244.570 55.602,253.221 54.728,255.820 61.000 C 256.278 62.105,256.376 62.205,256.883 62.089 C 257.191 62.018,258.385 61.897,259.537 61.819 C 261.669 61.674,261.953 61.547,261.959 60.730 C 261.965 59.872,263.297 57.580,264.304 56.693 C 266.699 54.585,270.164 54.615,272.712 56.766 C 273.547 57.471,273.546 57.480,273.064 54.698 C 272.633 52.205,272.648 52.228,271.672 52.640 M267.365 56.427 C 261.101 58.030,262.055 68.137,268.469 68.137 C 272.358 68.137,274.909 63.707,273.287 59.769 C 272.287 57.340,269.638 55.846,267.365 56.427 M230.297 57.887 C 229.846 58.575,229.998 60.299,230.731 62.832 C 231.186 64.402,231.198 64.584,230.884 65.058 C 230.505 65.628,230.424 67.941,230.701 70.243 C 231.141 73.899,235.285 82.512,238.610 86.682 L 239.067 87.255 238.603 90.577 C 238.348 92.403,237.858 95.355,237.515 97.135 L 236.891 100.373 237.297 102.120 C 239.612 112.060,246.204 116.511,255.237 114.230 C 263.011 112.267,266.199 106.782,264.661 98.015 C 264.534 97.288,264.377 95.700,264.312 94.487 L 264.196 92.282 265.046 91.674 C 268.492 89.210,271.400 81.900,273.206 71.167 C 274.055 66.122,274.090 66.348,272.660 67.655 C 268.865 71.123,262.860 69.027,262.048 63.951 C 261.861 62.781,261.691 62.726,259.203 63.032 C 256.476 63.367,256.521 63.340,256.353 64.691 C 255.364 72.605,245.116 73.152,243.331 65.386 L 243.078 64.289 240.232 63.470 C 236.947 62.524,237.076 62.497,237.557 64.024 C 238.044 65.568,238.079 65.491,236.874 65.491 L 235.822 65.491 235.566 63.884 C 234.848 59.369,231.684 55.769,230.297 57.887 M248.732 58.035 C 244.972 58.695,243.142 63.850,245.438 67.317 C 247.926 71.072,253.509 70.196,254.801 65.846 C 256.128 61.379,252.954 57.294,248.732 58.035 M242.999 90.528 C 247.869 93.933,255.039 95.318,260.198 93.851 C 260.865 93.661,261.650 93.438,261.941 93.356 L 262.470 93.206 261.949 94.133 C 257.722 101.655,247.121 99.779,242.031 90.610 C 241.365 89.409,241.395 89.406,242.999 90.528 M43.577 180.280 C 36.787 181.802,31.480 186.622,29.877 192.723 C 29.774 193.116,29.215 193.577,27.931 194.327 C 12.652 203.252,5.513 220.524,5.513 248.563 L 5.513 255.127 3.969 255.127 L 2.426 255.127 2.426 277.729 L 2.426 300.331 3.969 300.331 L 5.513 300.331 5.513 304.520 L 5.513 308.710 47.045 308.710 L 88.576 308.710 88.719 306.229 C 88.798 304.865,88.863 302.980,88.863 302.040 L 88.864 300.331 90.849 300.331 L 92.834 300.331 92.834 277.729 L 92.834 255.127 90.873 255.127 C 88.422 255.127,88.644 255.906,88.644 247.313 C 88.644 221.200,82.091 204.769,67.917 195.339 L 65.602 193.799 65.235 192.496 C 62.778 183.783,52.875 178.198,43.577 180.280 M51.264 184.267 C 54.703 185.144,58.242 187.800,59.683 190.587 C 60.004 191.208,60.000 191.234,59.614 191.067 C 53.188 188.285,43.705 187.959,36.954 190.290 C 35.324 190.852,35.266 190.787,36.230 189.481 C 39.645 184.857,45.549 182.809,51.264 184.267 M79.162 261.521 L 79.162 267.696 47.078 267.696 L 14.994 267.696 14.994 261.521 L 14.994 255.347 47.078 255.347 L 79.162 255.347 79.162 261.521 M227.563 285.599 C 225.128 286.453,221.115 287.541,220.405 287.541 C 218.557 287.541,216.850 294.440,217.725 298.374 C 218.453 301.646,221.943 306.946,223.369 306.946 C 223.646 306.946,229.711 305.074,231.367 304.477 C 232.890 303.928,232.873 304.490,231.550 298.511 C 230.953 295.813,230.153 291.968,229.772 289.967 C 229.391 287.966,229.011 286.069,228.928 285.752 L 228.776 285.174 227.563 285.599 M286.659 291.263 C 284.779 291.832,283.093 292.389,282.911 292.499 C 282.582 292.700,274.409 298.579,273.043 299.598 L 272.326 300.133 276.135 302.069 C 278.628 303.337,280.957 304.332,282.878 304.951 L 285.812 305.896 286.439 305.153 C 289.550 301.472,291.322 295.685,290.709 291.210 C 290.542 289.991,290.874 289.986,286.659 291.263 " stroke="none" fill="#f6c15d" fill-rule="evenodd"></path><path id="path2" d="M252.811 43.243 C 245.072 43.825,236.772 45.288,228.997 47.442 C 227.178 47.946,225.650 48.390,225.603 48.429 C 225.555 48.468,225.674 49.322,225.867 50.325 C 226.060 51.329,226.285 52.728,226.367 53.435 C 226.560 55.096,226.406 55.080,230.766 53.914 C 246.036 49.830,267.662 47.999,274.974 50.172 C 275.319 50.275,275.142 44.645,274.788 44.282 C 273.903 43.375,259.881 42.712,252.811 43.243 M259.264 54.401 C 259.538 54.453,259.935 54.451,260.146 54.396 C 260.357 54.341,260.132 54.298,259.647 54.300 C 259.162 54.303,258.990 54.348,259.264 54.401 M254.744 54.624 C 255.079 54.674,255.575 54.673,255.846 54.620 C 256.118 54.568,255.843 54.527,255.237 54.528 C 254.631 54.530,254.409 54.573,254.744 54.624 M249.228 54.844 C 249.562 54.894,250.107 54.894,250.441 54.844 C 250.775 54.793,250.502 54.752,249.835 54.752 C 249.168 54.752,248.895 54.793,249.228 54.844 M244.710 55.062 C 244.985 55.115,245.382 55.113,245.592 55.058 C 245.803 55.003,245.579 54.959,245.094 54.962 C 244.609 54.964,244.436 55.009,244.710 55.062 M249.231 56.829 C 249.566 56.879,250.063 56.878,250.334 56.826 C 250.605 56.773,250.331 56.732,249.724 56.733 C 249.118 56.735,248.896 56.778,249.231 56.829 M252.701 58.724 C 252.701 58.762,253.024 59.084,253.418 59.441 L 254.135 60.088 253.487 59.372 C 252.883 58.704,252.701 58.554,252.701 58.724 M236.909 60.402 C 236.927 61.066,237.040 61.405,237.266 61.466 C 237.493 61.527,237.515 61.497,237.337 61.370 C 237.195 61.268,237.034 60.789,236.981 60.306 C 236.884 59.433,236.884 59.434,236.909 60.402 M262.900 62.293 C 262.903 62.778,262.948 62.951,263.000 62.677 C 263.053 62.402,263.051 62.005,262.996 61.795 C 262.941 61.584,262.898 61.808,262.900 62.293 M255.182 63.837 C 255.185 64.322,255.230 64.494,255.283 64.220 C 255.335 63.946,255.333 63.549,255.278 63.338 C 255.223 63.127,255.180 63.352,255.182 63.837 M230.265 67.365 C 230.268 67.850,230.313 68.023,230.365 67.748 C 230.418 67.474,230.416 67.077,230.361 66.866 C 230.306 66.655,230.263 66.880,230.265 67.365 M253.239 68.412 L 252.591 69.129 253.308 68.481 C 253.976 67.878,254.126 67.696,253.955 67.696 C 253.917 67.696,253.595 68.018,253.239 68.412 M230.007 68.578 C 230.036 69.202,230.615 70.499,230.634 69.981 C 230.643 69.722,230.502 69.226,230.321 68.879 C 230.140 68.531,229.999 68.396,230.007 68.578 M268.084 69.395 C 268.358 69.448,268.755 69.446,268.966 69.391 C 269.177 69.336,268.953 69.292,268.467 69.295 C 267.982 69.297,267.810 69.342,268.084 69.395 M291.069 184.591 C 285.106 184.829,221.421 186.290,210.695 186.435 C 199.382 186.588,197.574 186.696,197.574 187.223 C 197.574 187.717,200.532 204.560,200.863 205.954 C 200.993 206.499,201.746 210.667,202.537 215.215 C 203.328 219.763,204.027 223.716,204.091 223.999 C 204.177 224.379,204.133 224.469,203.923 224.342 C 203.722 224.221,203.729 224.283,203.949 224.553 C 204.119 224.764,204.578 226.771,204.967 229.014 C 205.357 231.257,205.737 233.153,205.812 233.228 C 205.886 233.303,208.053 234.000,210.625 234.778 C 218.572 237.181,231.031 241.680,244.522 247.019 L 251.226 249.673 252.680 248.855 C 259.730 244.893,276.388 237.686,291.731 231.962 C 296.892 230.036,296.454 230.420,296.880 227.453 C 297.411 223.757,300.509 203.329,300.994 200.331 C 301.229 198.875,301.824 194.956,302.316 191.621 C 302.808 188.286,303.265 185.284,303.331 184.950 L 303.453 184.344 299.521 184.378 C 297.359 184.396,293.556 184.492,291.069 184.591 " stroke="none" fill="#545454" fill-rule="evenodd"></path><path id="path3" d="M216.428 287.256 C 215.943 287.300,213.859 287.574,211.797 287.864 C 206.734 288.577,206.477 288.601,199.669 288.980 C 183.672 289.872,175.001 290.982,171.942 292.529 C 166.021 295.523,161.411 302.075,162.302 306.228 C 163.354 311.134,171.167 312.707,183.908 310.577 C 187.962 309.899,192.127 309.524,203.308 308.827 C 217.642 307.935,222.678 307.495,223.073 307.100 C 223.139 307.034,222.777 306.605,222.268 306.145 C 217.307 301.663,216.116 295.062,219.123 288.710 C 219.432 288.059,219.646 287.494,219.599 287.454 C 219.433 287.310,217.293 287.176,216.428 287.256 M294.812 288.796 L 290.727 290.018 290.728 293.024 C 290.731 297.823,289.485 301.258,286.227 305.437 L 285.771 306.023 287.593 306.583 C 290.949 307.613,293.693 307.895,309.372 308.821 C 317.576 309.305,325.538 309.974,327.588 310.351 C 348.165 314.140,356.705 307.863,346.285 296.608 C 341.727 291.685,337.230 290.517,318.192 289.312 C 306.871 288.596,304.404 288.395,301.985 287.991 C 298.748 287.452,299.640 287.352,294.812 288.796 " stroke="none" fill="#c3cbdb" fill-rule="evenodd"></path><path id="path4" d="M225.308 25.309 C 210.182 33.523,197.806 40.292,197.806 40.353 C 197.806 40.413,202.220 42.393,207.613 44.751 L 217.420 49.040 217.420 62.267 C 217.420 75.091,217.406 75.523,216.974 76.415 C 216.090 78.241,215.436 83.600,215.436 89.007 L 215.436 91.731 218.336 91.731 L 221.236 91.731 221.098 87.045 C 220.916 80.853,220.379 77.373,219.399 76.029 C 218.758 75.149,218.710 49.724,219.350 49.928 C 219.562 49.996,221.174 50.689,222.933 51.467 C 224.691 52.246,226.166 52.785,226.209 52.665 C 226.253 52.545,226.116 51.558,225.905 50.471 C 225.694 49.385,225.559 48.465,225.605 48.427 C 226.166 47.966,237.320 45.326,241.896 44.570 C 253.092 42.722,266.544 42.507,274.028 44.058 L 274.862 44.230 275.006 45.835 C 275.086 46.718,275.185 47.468,275.227 47.503 C 275.331 47.588,300.108 34.317,300.102 34.179 C 300.094 33.984,253.744 10.476,253.269 10.425 C 253.011 10.397,240.800 16.897,225.308 25.309 M275.244 49.394 C 275.244 49.818,275.289 49.992,275.345 49.779 C 275.400 49.567,275.400 49.220,275.345 49.008 C 275.289 48.795,275.244 48.969,275.244 49.394 M258.875 49.420 C 250.532 49.758,240.306 51.397,230.650 53.944 C 228.528 54.503,226.757 54.992,226.715 55.029 C 226.417 55.291,229.277 67.211,229.786 67.826 C 229.896 67.959,229.920 68.132,229.840 68.212 C 229.760 68.292,229.803 68.357,229.936 68.357 C 230.069 68.357,230.211 68.531,230.253 68.743 C 230.295 68.955,230.333 68.385,230.337 67.475 C 230.342 66.380,230.467 65.590,230.707 65.138 C 231.046 64.497,231.042 64.365,230.642 63.033 C 229.086 57.846,230.303 55.646,233.254 58.312 C 234.341 59.294,235.237 61.265,235.692 63.677 L 236.042 65.532 236.792 65.411 C 237.794 65.248,237.784 65.274,237.369 63.844 C 236.904 62.244,236.694 62.286,240.129 63.301 C 243.193 64.207,243.429 64.347,243.439 65.270 C 243.448 66.166,244.436 68.030,245.428 69.022 C 249.279 72.873,255.660 70.245,256.172 64.596 L 256.287 63.321 257.655 63.083 C 258.407 62.952,259.672 62.845,260.468 62.845 L 261.913 62.845 262.068 63.671 C 263.082 69.078,269.168 71.054,273.016 67.227 C 274.955 65.297,275.736 61.916,274.706 59.909 C 274.578 59.659,274.581 59.410,274.713 59.247 C 275.314 58.506,275.597 50.361,275.028 50.189 C 273.055 49.594,264.559 49.190,258.875 49.420 M273.074 54.022 C 273.274 55.113,273.501 56.475,273.580 57.049 L 273.723 58.092 273.010 57.280 C 269.573 53.366,263.061 55.503,262.074 60.869 L 261.931 61.650 259.466 61.917 C 258.110 62.064,256.778 62.245,256.505 62.319 C 256.120 62.425,256.008 62.363,256.004 62.043 C 255.975 59.617,252.698 56.891,249.810 56.891 C 246.681 56.891,243.452 59.714,243.442 62.459 C 243.439 63.252,243.291 63.242,239.802 62.213 C 236.558 61.257,236.565 61.265,237.034 59.169 C 237.820 55.659,239.425 55.158,251.378 54.689 C 263.855 54.199,269.726 53.532,271.880 52.360 C 272.186 52.194,272.498 52.053,272.574 52.049 C 272.650 52.044,272.875 52.932,273.074 54.022 M270.768 56.814 C 274.438 58.643,275.003 64.147,271.809 66.958 C 266.989 71.201,260.483 64.689,263.832 58.974 C 265.351 56.382,268.151 55.510,270.768 56.814 M251.938 58.295 C 257.382 60.830,255.649 69.908,249.724 69.894 C 246.703 69.886,244.326 67.220,244.326 63.837 C 244.326 59.426,248.243 56.574,251.938 58.295 M135.281 215.440 C 131.994 215.792,130.290 216.569,128.442 218.562 C 124.337 222.986,118.853 234.398,118.853 238.515 C 118.853 241.235,124.582 246.205,144.983 261.185 C 148.258 263.589,151.681 266.167,152.591 266.914 C 158.166 271.491,157.429 271.200,187.726 280.816 L 210.403 288.014 213.554 287.557 C 217.028 287.054,218.281 286.999,219.343 287.303 C 220.241 287.561,222.068 287.191,225.964 285.962 C 227.571 285.456,228.920 285.083,228.962 285.134 C 229.005 285.185,229.300 286.681,229.619 288.460 C 230.844 295.290,233.321 306.264,233.759 306.801 C 233.842 306.903,238.106 305.738,243.234 304.211 L 252.557 301.437 258.822 303.432 L 265.088 305.428 268.542 302.947 C 270.441 301.583,272.071 300.344,272.163 300.195 C 272.255 300.045,274.636 298.263,277.455 296.234 C 280.274 294.205,282.683 292.466,282.808 292.370 C 283.112 292.139,298.621 287.541,299.098 287.541 C 299.302 287.541,304.352 286.110,310.319 284.360 C 324.381 280.237,335.359 277.063,340.463 275.644 C 348.702 273.353,354.960 270.562,360.529 266.694 C 377.246 255.084,391.212 243.818,393.267 240.284 C 394.772 237.695,392.004 229.669,386.996 222.100 C 382.703 215.612,381.867 215.294,369.350 215.386 C 357.675 215.472,356.182 215.712,333.848 221.085 C 323.666 223.535,320.378 224.243,318.412 224.409 C 316.826 224.542,317.137 224.619,308.615 222.002 L 303.559 220.449 300.527 221.952 L 297.495 223.456 297.269 224.793 C 297.144 225.528,296.924 226.999,296.779 228.060 C 296.461 230.385,296.948 230.010,291.731 231.959 C 276.269 237.737,259.723 244.896,252.680 248.855 L 251.226 249.673 244.522 247.019 C 231.003 241.669,218.571 237.181,210.580 234.764 C 207.038 233.694,205.817 233.235,205.699 232.931 C 205.613 232.707,205.282 230.937,204.964 228.997 C 204.233 224.534,204.329 224.729,202.266 223.520 L 200.523 222.498 198.332 223.486 C 195.032 224.974,195.441 225.026,178.390 220.946 C 158.139 216.100,155.834 215.690,147.409 215.432 C 140.182 215.212,137.400 215.213,135.281 215.440 " stroke="none" fill="#333353" fill-rule="evenodd"></path></g></svg>