<svg xmlns="http://www.w3.org/2000/svg" width="14.88" height="22.008" viewBox="0 0 16.88 24.008">
  <g id="placeholder" transform="translate(-76)">
    <g id="Group_492" data-name="Group 492" transform="translate(76)">
      <g id="Group_491" data-name="Group 491">
        <path id="Path_1449" data-name="Path 1449" d="M84.44,0a8.442,8.442,0,0,0-7.18,12.879l6.7,10.8a.7.7,0,0,0,.6.333h.006a.7.7,0,0,0,.6-.342l6.529-10.9A8.442,8.442,0,0,0,84.44,0Zm6.043,12.042-5.936,9.911-6.091-9.816a7.038,7.038,0,1,1,12.027-.1Z" transform="translate(-76)" fill="#fff"/>
      </g>
    </g>
    <g id="Group_494" data-name="Group 494" transform="translate(80.22 4.22)">
      <g id="Group_493" data-name="Group 493">
        <path id="Path_1450" data-name="Path 1450" d="M170.22,90a4.22,4.22,0,1,0,4.22,4.22A4.225,4.225,0,0,0,170.22,90Zm0,7.043a2.823,2.823,0,1,1,2.818-2.823A2.825,2.825,0,0,1,170.22,97.043Z" transform="translate(-166 -90)" fill="#fff"/>
      </g>
    </g>
  </g>
</svg>
