<?xml version="1.0" encoding="utf-8"?>
<!-- Generator: Adobe Illustrator 23.0.1, SVG Export Plug-In . SVG Version: 6.00 Build 0)  -->
<svg version="1.1" id="Layer_1" xmlns="http://www.w3.org/2000/svg" xmlns:xlink="http://www.w3.org/1999/xlink" x="0px" y="0px"
	 viewBox="0 0 1920 1080" style="enable-background:new 0 0 1920 1080;" xml:space="preserve">
<style type="text/css">
	.st0{fill:#FFCC38;}
	.st1{fill:#FFFFFF;}
</style>
<path id="Path_1287" class="st0" d="M912.6,516.2c0,18.1-14.7,27.5-32.8,27.5c-18.1,0-32.8-9.4-32.8-27.5c0-18.1,32.8-52,32.8-52
	S912.6,498.1,912.6,516.2z"/>
<path id="Path_1288" class="st0" d="M863.2,449.6l16.6,32.8l16.6-32.8c0,0-7.5,4-16.6-1.5C870.8,442.6,863.2,449.6,863.2,449.6z"/>
<g id="Group_287" transform="translate(22.222 41.016)">
	<path id="Path_1289" class="st1" d="M861.9,474c0-1-0.3-2.1-1-2.8c-1-0.9-2.1-1.6-3.4-2c-2.6-0.8-5-2.1-7.1-3.9
		c-1.6-1.6-2.4-3.8-2.3-6c-0.1-2.2,0.8-4.3,2.3-5.9c1.7-1.6,3.9-2.6,6.2-2.7V446h3.4v4.7c2.3,0.3,4.4,1.4,5.9,3.2
		c1.5,1.9,2.2,4.3,2.1,6.7l-0.1,0.1h-6.1c0.1-1.4-0.3-2.7-1-3.9c-1.4-1.6-3.8-1.8-5.4-0.5c-0.1,0.1-0.1,0.1-0.2,0.2
		c-0.6,0.8-1,1.8-0.9,2.8c0,1,0.3,2,1,2.7c1,0.9,2.2,1.6,3.5,2c2.6,0.9,4.9,2.2,7,4c1.6,1.6,2.4,3.7,2.3,5.9c0.1,2.2-0.7,4.4-2.3,6
		c-1.7,1.6-3.9,2.5-6.2,2.6v4.2h-3.4v-4.2c-2.5-0.2-4.8-1.2-6.6-2.8c-1.7-1.6-2.6-4-2.5-7.2l0-0.1h6.1c0,1.9,0.4,3.3,1.3,4.1
		c0.9,0.8,2.1,1.3,3.4,1.2c1.1,0.1,2.2-0.3,3-1C861.5,476.1,861.9,475,861.9,474z"/>
</g>
</svg>
