<?xml version="1.0" encoding="utf-8"?>
<!-- Generator: Adobe Illustrator 23.0.1, SVG Export Plug-In . SVG Version: 6.00 Build 0)  -->
<svg version="1.1" id="Layer_1" xmlns="http://www.w3.org/2000/svg" xmlns:xlink="http://www.w3.org/1999/xlink" x="0px" y="0px"
	 viewBox="0 0 1920 1080" style="enable-background:new 0 0 1920 1080;" xml:space="preserve">
<style type="text/css">
	.st0{fill:#4D5CC4;}
	.st1{fill:#4B78FF;}
	.st2{fill:#FF63BE;}
	.st3{fill:#00AEF2;}
	.st4{fill:#00D7FF;}
	.st5{fill:#FFFFFF;}
</style>
<g id="Group_297" transform="translate(46.962)">
	<path id="Path_1301" d="M964.7,597.5l-1.5-7.2l20.9-7.2l0,0c0.2,2.8-1.7,5.2-4.4,5.7l-2.6,0.5c-1.7,0.6-6.5,4.3-5.2,5.7
		L964.7,597.5z"/>
	<path id="Path_1302" class="st0" d="M910.3,621.1c8.8,4.4,33.5,13.9,33.5,13.9l17.8-41.2l12.7,0.4l-14.8,47.5
		c-0.5,5.1-5,8.8-10.1,8.3c-0.2,0-0.4,0-0.6-0.1l-58.2-8l-1.8-21.4l-4.7-1.3C898.9,616.4,901.4,616.8,910.3,621.1z"/>
	<path id="Path_1303" d="M954.1,600.5l-1.7-7.1l20.7-7.7l0,0c0.3,2.7-1.5,5.3-4.3,5.8l-2.6,0.5c-1.7,0.6-6.4,4.5-5.1,5.8
		L954.1,600.5z"/>
	<path id="Path_1304" class="st1" d="M907.9,619.9c7.5,4.3,27.3,14.9,27.3,14.9l15-39.1l11.4,1.9l-14.1,45.6c-0.7,6-6,10.4-12.1,9.8
		l-53.2-2.9l-3.9-26.7l5.7-5C889.9,617,897,613.6,907.9,619.9z"/>
	<g id="Group_296">
		<g id="Group_294" transform="translate(2.117 50.698)">
			<g id="Group_293" transform="translate(0 27.564)">
				<path id="Path_1305" class="st2" d="M798.3,562.4l-1.8,0.4c-5.2-0.1-10.2-2-14.2-5.3l-0.3-0.3c-0.9-0.7-2.2-0.6-2.9,0.2
					c-0.1,0.1-0.1,0.2-0.2,0.3l0,0c-0.4,0.8-0.4,1.7,0.2,2.4l0,0c3.6,4.2,8.7,6.9,14.2,7.6l6.1,0.8L798.3,562.4z"/>
				<path id="Path_1306" class="st2" d="M784.7,565.8l11.8,0.2l0,2.6l-11.8-0.2c-0.7,0-1.3-0.6-1.3-1.3
					C783.4,566.4,784,565.8,784.7,565.8L784.7,565.8z"/>
			</g>
			<path id="Path_1307" class="st3" d="M790.4,588.6v7.2h38.6l23.8-23.2l-23.7-16l-9.2,28.9L790.4,588.6z"/>
		</g>
		<path id="Path_1308" class="st4" d="M842.6,595.8c4.4-2.1,8.3,0.8,12.3,4.7c3.5,3.4,7.9,12.9,14,16.3c9.2,5.2,11.2,2.1,16,1.6
			l-1.3,32c0,0-30.2,0-41.7-13.5c-11.5-13.5-13.4-19-11.2-33.6L842.6,595.8z"/>
		<path id="Path_1309" class="st2" d="M813.6,575.2c-0.7-6.7,5.9-15.4,15.6-15.6c5.3,0,10.2,2.5,13.3,6.8l0.4,0.5
			c2.7,3.6,4,11.7,3.1,16.1l-3.6,11.8l0.4,0.7l-5.7,7.9c-1.3,1.8-3.7,2.2-5.5,0.9c-0.2-0.2-0.4-0.3-0.6-0.5l-0.3-0.4l-3.1-7.9
			l-4.6,0.4c-4.3,0.3-8-2.9-8.4-7.1l0-0.1l-0.3-3.6L813.6,575.2z"/>
		<path id="Path_1310" d="M810.7,562.6l7.5-0.8c4-4,9.6-5.8,15.2-4.9l0,0c9.6,1.5,16.2,10.5,14.7,20.2c-0.1,0.7-0.3,1.4-0.5,2.1
			c-1,3.4-3.7,10.6-3.7,10.6L835,578C811.5,576.3,810.7,562.6,810.7,562.6z"/>
		<path id="Path_1311" class="st2" d="M834,581.1c0.2,2.2,2.1,3.8,4.3,3.6s3.8-2.1,3.6-4.3c-0.2-2.2-2.1-3.8-4.3-3.6
			C835.4,577,833.8,578.9,834,581.1z"/>
		<path id="Path_1312" class="st5" d="M821.1,586.6c0.2,1.9,1.8,3.3,3.7,3.1c1.9-0.2,3.3-1.8,3.1-3.7l0,0"/>
		<g id="Group_295" transform="translate(0 82.496)">
			<path id="Path_1313" class="st2" d="M784.7,565.8l11.8,0.2l0,2.6l-11.8-0.2c-0.7,0-1.3-0.6-1.3-1.3
				C783.4,566.4,784,565.8,784.7,565.8L784.7,565.8z"/>
			<path id="Path_1314" class="st2" d="M798.3,562.4l-1.8,0.4c-5.2-0.1-10.2-2-14.2-5.3l-0.3-0.3c-0.9-0.7-2.2-0.6-2.9,0.2
				c-0.1,0.1-0.1,0.2-0.2,0.3l0,0c-0.4,0.8-0.4,1.7,0.2,2.4l0,0c3.6,4.2,8.7,6.9,14.2,7.6l6.1,0.8L798.3,562.4z"/>
		</g>
		<path id="Path_1315" class="st4" d="M795.8,645v8.8h33.8c3.9,0,7.4-2.3,9-5.9l13-29.1l-12.4-10.5L826.4,642L795.8,645z"/>
	</g>
</g>
<g id="Group_298" transform="translate(0 61.244)">
	<path id="Path_1316" class="st5" d="M830.4,592.8h17.7c0-2.7-2.2-5-5-5c0,0,0,0,0,0h-12.5L830.4,592.8z"/>
	<path id="Path_1317" d="M788.6,592.8h43.5c2.2,0,4.1-1.8,4.1-4.1c0-0.3,0-0.6-0.1-0.9l-6-28c-0.4-1.9-2.1-3.2-4-3.2h-43.5
		c-2.2,0-4.1,1.8-4.1,4.1c0,0.3,0,0.6,0.1,0.8l6,28C785,591.5,786.7,592.8,788.6,592.8z"/>
	<path id="Path_1318" class="st5" d="M803.6,574.8c0,2.1,1.7,3.8,3.8,3.8s3.8-1.7,3.8-3.8c0-2.1-1.7-3.8-3.8-3.8l0,0
		C805.3,571,803.6,572.7,803.6,574.8z"/>
</g>
<rect id="Rectangle_1458" x="879.1" y="574.8" width="3.3" height="8.3"/>
</svg>
