<?xml version="1.0" encoding="utf-8"?>
<!-- Generator: Adobe Illustrator 23.0.1, SVG Export Plug-In . SVG Version: 6.00 Build 0)  -->
<svg version="1.1" id="Layer_1" xmlns="http://www.w3.org/2000/svg" xmlns:xlink="http://www.w3.org/1999/xlink" x="0px" y="0px"
	 viewBox="0 0 1920 1080" style="enable-background:new 0 0 1920 1080;" xml:space="preserve">
<style type="text/css">
	.st0{fill:#FFCC38;}
	.st1{fill:#FFFFFF;}
	.st2{fill:#FF63BE;}
</style>
<g>
	<g id="Group_289" transform="translate(0 82.891)">
		<path id="Path_1290" d="M889.2,170.9l2.8,5.8h-17.8c0.5-2.2,2.6-3.5,4.8-3.2l2.1,0.3c1.2,0,2.1-0.9,2.1-2.1c0-0.3-0.1-0.5-0.2-0.8
			L889.2,170.9L889.2,170.9z"/>
		<path id="Path_1291" d="M915.6,170.9l-2.8,5.8h17.8c-0.5-2.2-2.6-3.5-4.8-3.2l-2.1,0.3c-1.2,0-2.1-0.9-2.1-2.1
			c0-0.3,0.1-0.5,0.2-0.8L915.6,170.9L915.6,170.9z"/>
		<path id="Path_1292" class="st0" d="M931,123.3l-14.6-3.9l-14,0.8l-14-0.8l-14.6,3.9c-3.7,1.1-5.8,5-4.8,8.7l11,39.7h11.1
			l-7.6-37.4l18.8-5.1l18.8,5.2l-7.6,37.3h11.1l11-39.7C936.8,128.2,934.7,124.4,931,123.3z"/>
	</g>
	<path id="Path_1293" d="M901,203.2v-48.2h9.6c1.6,0,4,0.1,6.5,0.3c5.5,0.3,10,4.6,10.5,10.1l2.7,20.9c0.4,3.2-0.9,6.3-3.5,8.2
		l-4.4,3.3l-2.9-21.3v26.7L901,203.2z"/>
	<path id="Path_1294" d="M903.8,203.2v-48.2h-9.6c-1.6,0-4,0.1-6.5,0.3c-5.5,0.3-10,4.6-10.5,10.1l-2.7,20.9
		c-0.4,3.2,0.9,6.3,3.5,8.2l4.4,3.3l2.9-21.3v26.7L903.8,203.2z"/>
	<g id="Group_290" transform="translate(11.601 59.298)">
		<path id="Path_1295" class="st1" d="M874.2,146.5h33.2c1.7,0,3-1.2,3.2-2.9l2.2-20.7c0.2-1.8-1.1-3.4-2.9-3.5c-0.1,0-0.2,0-0.3,0
			H872c-1.8,0-3.2,1.4-3.2,3.2c0,0.1,0,0.2,0,0.3l2.2,20.7C871.2,145.3,872.6,146.5,874.2,146.5z"/>
		<path id="Path_1296" class="st2" d="M888,132.9c0,1.6,1.3,2.8,2.8,2.8c1.6,0,2.8-1.3,2.8-2.8c0-1.6-1.3-2.8-2.8-2.8l0,0
			C889.3,130.1,888,131.4,888,132.9z"/>
	</g>
	<g id="Group_291" transform="translate(17.584)">
		<path id="Path_1297" class="st1" d="M880.6,138.8l0.2,8.7c0,3-2.4,5.5-5.4,5.6c-3,0-5.5-2.4-5.6-5.4l0,0l0.1-8.9L880.6,138.8z"/>
		<path id="Path_1298" class="st2" d="M869.3,134.3c-0.1-4.3,3.8-9.4,9.3-10.9c5.3-1.4,11,0.8,13.9,5.5l0.5,0.8
			c1.9,3.1,2.4,6.8,1.3,10.2l-3.7,9.1l-0.2,6.1l-5.5,3.5l-5.1-3.5l0.2-6.6l-4.9,0c-3.4-0.1-6.1-2.8-6.1-6.2v-0.1v-2.8L869.3,134.3z"
			/>
		<circle id="Ellipse_32" class="st2" cx="888.1" cy="137.6" r="3.1"/>
		<path id="Path_1299" class="st1" d="M874.4,141.8c0,1.5,1.2,2.7,2.7,2.7s2.7-1.2,2.7-2.7"/>
		<path id="Path_1300" class="st1" d="M869.5,128.7c2.5-7.3,10-10.7,17.1-8.9l0,0c6.5,1.6,11.1,7.3,11.3,13.9l0.3,13.8
			c0.1,3-2.4,5.5-5.4,5.6c0,0-0.1,0-0.1,0l0,0c-3,0-5.5-2.5-5.5-5.5l0,0l0.1-14.9l-18.4-1.2C868.9,130.6,869.1,129.6,869.5,128.7z"
			/>
	</g>
</g>
</svg>
