<?xml version="1.0" encoding="utf-8"?>
<!-- Generator: Adobe Illustrator 23.0.1, SVG Export Plug-In . SVG Version: 6.00 Build 0)  -->
<svg version="1.1" id="Layer_1" xmlns="http://www.w3.org/2000/svg" xmlns:xlink="http://www.w3.org/1999/xlink" x="0px" y="0px"
	 viewBox="500 0 1920 1000" style="enable-background:new 0 0 100 200;" xml:space="preserve">
<style type="text/css">
	.st0{fill:#FFD01F;}
	.st1{fill:#FF63BE;}
	.st2{fill:#FFFFFF;}
</style>
<path id="Path_1319" d="M604,646.4v9.2c0,4.2,3.4,7.6,7.6,7.6c0,0,0,0,0,0h37.7c4.2,0,7.6-3.4,7.6-7.6c0,0,0,0,0,0v-9.2H604z"/>
<path id="Path_1320" d="M656.8,584.7v-6.4c0-4.2-3.4-7.6-7.6-7.6l0,0h-37.7c-4.2,0-7.6,3.4-7.6,7.6v6.4H656.8z"/>
<g id="Group_300" transform="translate(18.863 69.265)">
	<path id="Path_1321" class="st0" d="M604,578.3c0,4.2,3.4,7.5,7.5,7.5s7.5-3.4,7.5-7.5s-3.4-7.5-7.5-7.5
		C607.4,570.7,604,574.1,604,578.3C604,578.3,604,578.3,604,578.3z"/>
</g>
<rect id="Rectangle_1459" x="604" y="583.3" class="st1" width="52.8" height="64.3"/>
<path id="Path_1322" class="st2" d="M634.6,624.6c0.1-1.1-0.3-2.2-1-3.1c-1-1-2.2-1.7-3.4-2.2c-3.2-1.1-6.1-2.8-8.8-4.9
	c-1.8-1.6-2.7-4.1-2.7-7.2c-0.1-2.7,1-5.3,2.9-7.1c2.1-1.9,4.9-3.1,7.8-3.3v-5.4h4.1v5.5c5.9,0.6,10.3,5.8,9.9,11.7l-0.1,0.1h-8.4
	c0.1-1.5-0.3-2.9-1.1-4.1c-0.7-0.9-1.7-1.4-2.9-1.4c-1-0.1-2,0.3-2.7,1.1c-0.6,0.8-0.9,1.8-0.9,2.9c0,1,0.3,2,0.9,2.9
	c1,1,2.2,1.7,3.5,2.2c3.1,1.2,6.1,2.9,8.7,5c1.9,1.7,2.8,4.1,2.8,7.2c0.1,2.7-0.9,5.3-2.8,7.1c-2.1,1.9-4.7,3-7.5,3.2v5.1h-4.1v-5.2
	c-3-0.2-5.9-1.4-8.2-3.5c-2.2-2-3.2-4.9-3.2-8.7l0.1-0.2h8.4c0,2.1,0.5,3.6,1.4,4.6c0.9,0.9,2.2,1.4,3.6,1.4c1,0.1,2.1-0.3,2.8-1.1
	C634.4,626.6,634.7,625.6,634.6,624.6z"/>
</svg>
