<?xml version="1.0" encoding="utf-8"?>
<!-- Generator: Adobe Illustrator 23.0.1, SVG Export Plug-In . SVG Version: 6.00 Build 0)  -->
<svg version="1.1" id="Layer_1" xmlns="http://www.w3.org/2000/svg" xmlns:xlink="http://www.w3.org/1999/xlink" x="0px" y="0px"
	 viewBox="0 0 1920 1080" style="enable-background:new 0 0 1920 1080;" xml:space="preserve">
<style type="text/css">
	.st0{fill:#FFCC38;}
	.st1{fill:#FF63BE;}
	.st2{fill:#FFFFFF;}
</style>
<g id="Group_285" transform="translate(0)">
	<path id="Path_1275" class="st0" d="M952.3,604.5c2.7-4.4,8-7,13-5.7l22.5,5h51.7l22.5-5c5.1-1.1,10.3,1.1,13,5.5
		c3.9,6.3,1.3,15.1-5.5,17.9l-40.2,12.9h-42.6l-29.1-12.8c-6.3-2.8-9.1-10.2-6.2-16.5C951.8,605.3,952.1,604.9,952.3,604.5z"/>
	<path id="Path_1276" d="M1000.5,632.3l-2.5,2.8l-29.3,0.9l0,0c0.8-3.6,4.2-6,7.8-5.5l3.5,0.4c6.4,0,10.7-5.2,10.7-5.2L1000.5,632.3
		z"/>
	<path id="Path_1277" d="M1044.8,629.5c0.8,0.2,1.7,0.3,2.6,0.3l3.5-0.4c3.6-0.4,7,2,7.8,5.5l-29.3,0.2L1044.8,629.5z"/>
	<g id="Group_282" transform="translate(0 123.16)">
		<path id="Path_1278" class="st1" d="M954.7,480.8l12.2-11.9l2.6,2.7l-12.1,11.9c-0.7,0.7-1.9,0.7-2.7,0S953.9,481.6,954.7,480.8
			C954.7,480.8,954.7,480.8,954.7,480.8L954.7,480.8z"/>
		<path id="Path_1279" class="st1" d="M965.2,464.9l-1.5,0.6c-5.4,5.3-12.4,8.5-19.9,9.2l-0.6,0.1c-1.7,0.1-2.9,1.6-2.7,3.3
			c0,0.2,0,0.3,0.1,0.5l0,0c0.3,1.2,1.4,2.1,2.7,2.2l0,0c8,0.6,16-1.9,22.3-6.8l7.1-5.5L965.2,464.9z"/>
	</g>
	<g id="Group_283" transform="translate(20.737 54.383)">
		<path id="Path_1280" class="st2" d="M951.8,521.1l3.3-30.9c1.3-12.1,6.5-17,15.6-17.6c4-0.3,37.7-0.3,41.7,0
			c6.3,0.4,10.5,2.8,13.7,7.8l0,0l18.6,28l20.6-24.2l8.4,7.2l-24.3,33.2c-3.2,4.4-9.3,5.3-13.7,2.1c-0.8-0.6-1.6-1.4-2.2-2.2
			l-14.1-21.2l-3.7,46.2h-44.5l-4.2-44.5l-3.2,21.7c-0.3,1.8-1.2,3.5-2.6,4.6l-14.4,13.4l-6.5-9.1L951.8,521.1z"/>
		<path id="Path_1281" class="st1" d="M1080.5,481.7c-0.1-1.5-0.6-2.8-1.6-4l3.3-8.7c0.4-1.1-0.2-2.3-1.4-2.7
			c-1-0.3-2.2,0.2-2.6,1.2l-3,7.7c-0.1,0-0.1,0-0.2,0l-0.5-8.2c-0.1-1.2-1.1-2.1-2.3-2l0,0c-1.2,0.1-2.1,1.1-2,2.3l0.5,8.1
			c-2.4,0.8-4.2,2.7-4.9,5.1l-0.7,3.8l8.4,7.2l4.6-3.9l0,0C1079.8,486,1080.7,483.9,1080.5,481.7z"/>
	</g>
	<g id="Group_284" transform="translate(52.686)">
		<path id="Path_1282" class="st1" d="M986.2,492c0.1-7.1-6.2-15.4-15.3-17.9c-8.8-2.4-18.1,1.3-22.9,9.1l-0.8,1.3
			c-3.1,5-3.9,11.2-2.2,16.9l6,14.9l0.1,10.6l8.5,6.4l8.7-6.4l0.2-11.4l8,0c5.6-0.1,10.1-4.6,10.1-10.2v-0.1v-4.7L986.2,492z"/>
		<path id="Path_1283" class="st2" d="M977.9,504.4c0,2.5-2,4.5-4.5,4.5s-4.5-2-4.5-4.5"/>
		<path id="Path_1284" d="M949.9,513.3l-8.2-16.9l-0.2-0.3c-4-12.6,3-26.1,15.6-30c0.9-0.3,1.8-0.5,2.8-0.7l0,0
			c12.5-2.4,24.6,5.4,27.7,17.8l-3.2,3.5c-9.6,8.5-26.1,6.4-26.1,6.4L949.9,513.3z"/>
		<path id="Path_1285" class="st1" d="M963.5,498.2c0,2.9-2.3,5.2-5.2,5.2s-5.2-2.3-5.2-5.2s2.3-5.2,5.2-5.2l0,0
			C961.2,493,963.5,495.3,963.5,498.2z"/>
	</g>
</g>
<path id="Path_1286" d="M1003.3,478c-2.8-8.5-15-17.4-25.6-5.3c-10.6,12.1,0.4,28.1-15.2,31.9c0,0,16.6,16.5,31.3-4.9"/>
</svg>
