<svg xmlns="http://www.w3.org/2000/svg" width="131.92" height="152.166" viewBox="0 0 131.92 152.166">
    <defs>
        <style>
            .cls-1,.cls-2{fill:#fff;fill-rule:evenodd}.cls-2{fill:#b80c04}
        </style>
    </defs>
    <g id="svgg" transform="translate(-.003)">
        <path id="path0" d="M121.957.259c-.042.249-.6.946-.754.946a.846.846 0 0 0-.254.144 4.087 4.087 0 0 1-.434.268c-.131.068-.238.146-.238.172s-.041.049-.091.049a.311.311 0 0 0-.176.079 2.5 2.5 0 0 1-.394.236 2.669 2.669 0 0 0-.38.222 2 2 0 0 1-.324.191 4.692 4.692 0 0 0-.443.254 4.334 4.334 0 0 1-.539.331.759.759 0 0 0-.179.126.3.3 0 0 1-.174.083c-.05 0-.091.029-.091.064a.066.066 0 0 1-.068.063.848.848 0 0 0-.275.159 1.039 1.039 0 0 1-.252.158.265.265 0 0 0-.121.066c-.042.036-.3.213-.584.393a3.855 3.855 0 0 0-.528.378.094.094 0 0 1-.081.051 3.753 3.753 0 0 0-.571.365c-.281.2-.615.433-.743.517a1.056 1.056 0 0 0-.253.206.123.123 0 0 1-.111.054c-.049 0-.09.022-.09.05s-.078.1-.174.155a3.617 3.617 0 0 0-.333.232c-.087.07-.415.315-.729.544s-.616.455-.672.5l-.539.422c-.527.407-1 .778-1.04.824-.017.018-.16.131-.317.251a4.74 4.74 0 0 0-.425.363.555.555 0 0 1-.19.146 1.48 1.48 0 0 0-.317.238c-.146.13-.4.35-.563.49s-.329.282-.368.317-.205.172-.37.3-.336.275-.381.317-.281.246-.525.454-.49.422-.547.476-.267.241-.468.415-.458.4-.572.507c-.205.188-.592.532-1.33 1.18-.209.184-.455.408-.547.5s-.4.376-.691.638-.727.668-.973.9a3.357 3.357 0 0 1-.5.428c-.029 0-.035.029-.013.063s.009.064-.028.064c-.113 0-2.8 2.632-4.824 4.732-1.54 1.6-2.1 2.2-3.147 3.372-.134.15-.344.38-.466.51s-.35.388-.507.573-.364.417-.46.515a1 1 0 0 0-.174.21 1.028 1.028 0 0 1-.174.215 5.892 5.892 0 0 0-.65.757.833.833 0 0 1-.174.211 3.51 3.51 0 0 0-.27.292c-.087.109-.988 1.2-1.26 1.525-.063.075-.212.261-.33.412a7.361 7.361 0 0 1-.506.616c-.055.057-.239.288-.409.515s-.326.426-.348.444-.122.146-.225.285-.2.268-.223.286-.163.2-.318.411a7.872 7.872 0 0 1-.551.7.3.3 0 0 0-.079.121 2.957 2.957 0 0 1-.291.4c-.422.528-.426.533-.595.776a1.606 1.606 0 0 1-.216.274c-.037.025-.04.047-.007.047s.016.037-.038.08c-.1.082-.838 1.072-1.61 2.16-.243.342-.544.756-.67.919s-.423.583-.66.932-.45.648-.474.666a2.265 2.265 0 0 0-.221.317c-.1.157-.261.392-.364.523s-.163.239-.134.24 0 .031-.058.067-.111.094-.111.129a.3.3 0 0 1-.079.153 1.8 1.8 0 0 0-.3.406 4.472 4.472 0 0 1-.278.414c-.11.147-.235.322-.278.388s-.192.285-.331.485a1.494 1.494 0 0 0-.218.365c.019 0 0 .042-.049.093s-.113.13-.15.174a34.68 34.68 0 0 0-.974 1.473.577.577 0 0 1-.083.127c-.1.112-1.5 2.281-1.519 2.349a.649.649 0 0 1-.114.176 2.907 2.907 0 0 0-.224.328c-.254.431-.754 1.209-.8 1.24a1.3 1.3 0 0 0-.163.254 4.661 4.661 0 0 1-.261.422 1.234 1.234 0 0 0-.143.23 3.8 3.8 0 0 1-.254.41 2.1 2.1 0 0 0-.254.451c0 .039-.022.071-.049.071s-.1.107-.171.238a4 4 0 0 1-.26.429c-.076.105-.193.291-.26.412s-.227.384-.357.583a2.9 2.9 0 0 0-.235.4 1.126 1.126 0 0 1-.159.247 1.065 1.065 0 0 0-.159.25 6.57 6.57 0 0 1-.353.628l-.41.681c-.16.265-.485.792-.568.921-.153.235-.507.85-.507.881a3.862 3.862 0 0 1-.243.4c-.134.2-.263.412-.287.464s-.129.238-.232.412a3.972 3.972 0 0 0-.227.428c-.022.061-.063.111-.091.111s-.07.059-.093.131a8.173 8.173 0 0 1-.42.773 7.882 7.882 0 0 0-.391.709.192.192 0 0 1-.049.1 11.443 11.443 0 0 0-.588 1.014c-.062.122-.221.422-.353.666-1.022 1.883-2.77 5.29-2.789 5.436a3.79 3.79 0 0 1-.193.412c-.237.464-1.017 2.105-1.017 2.141s-.062.165-.477 1.072a3.541 3.541 0 0 0-.184.461.342.342 0 0 1-.088.16.3.3 0 0 0-.076.186.188.188 0 0 1-.054.144 1.139 1.139 0 0 0-.162.336 8.108 8.108 0 0 1-.194.494l-.25.551a2.145 2.145 0 0 0-.164.447.262.262 0 0 1-.051.146c-.051.061-.473 1.122-.882 2.216-.052.14-.123.307-.157.372a1.116 1.116 0 0 0-.085.222c-.013.057-.083.261-.157.453s-.187.505-.252.7-.207.591-.317.888-.223.624-.254.729a7.914 7.914 0 0 1-.267.761 1.652 1.652 0 0 0-.083.254c-.015.07-.1.326-.18.57-.17.493-.421 1.306-.426 1.378a2.688 2.688 0 0 1-.1.317 4.259 4.259 0 0 0-.121.384 7.439 7.439 0 0 1-.224.718c-.028.074-.1.331-.155.571s-.145.571-.2.737a12.644 12.644 0 0 0-.345 1.284c-.043.209-.1.466-.131.57-.062.218-.211.924-.342 1.617-.206 1.093-.244 1.308-.259 1.469-.008.093-.046.364-.082.6a57.887 57.887 0 0 0 0 14.318c.035.209.075.523.088.7s.053.488.088.7.081.552.1.761a6.171 6.171 0 0 0 .093.615.607.607 0 0 1 .026.263 12.711 12.711 0 0 0 .264 1.69c.05.261.124.661.164.888s.111.555.157.729.132.5.19.729.131.478.163.558a.894.894 0 0 1 .057.27.593.593 0 0 0 .059.235 6.154 6.154 0 0 1 .3.965.357.357 0 0 0 .1.205c.042.026.055.048.031.049a11.536 11.536 0 0 0 .712 2.062c.028.07.107.255.176.412s.192.442.274.634c.308.723 1.646 3.309 1.807 3.492a.346.346 0 0 1 .088.174.069.069 0 0 0 .063.074.066.066 0 0 1 .063.069 1.743 1.743 0 0 0 .212.4c.117.18.3.464.4.631.165.272.833 1.249.962 1.409.028.035.148.206.266.38a3.854 3.854 0 0 0 .255.349 3.974 3.974 0 0 1 .253.333 1.112 1.112 0 0 0 .266.3.059.059 0 0 1 .053.063c0 .058.091.178.412.545.07.079.212.251.317.38s.248.3.319.369a2.837 2.837 0 0 1 .239.291 54.863 54.863 0 0 0 4.2 4.216c.242.209.5.437.574.507s.256.227.408.349.472.386.713.588.514.415.608.475a2.846 2.846 0 0 1 .31.237 8.067 8.067 0 0 0 .812.636c.279.206.535.4.57.423a4.314 4.314 0 0 0 .724.495.091.091 0 0 1 .079.052 2.87 2.87 0 0 0 .433.333 3.147 3.147 0 0 1 .433.329.1.1 0 0 0 .085.047 2.717 2.717 0 0 1 .676.46.1.1 0 0 0 .082.047.265.265 0 0 1 .137.068c.07.062 1.112.739 1.433.931a.327.327 0 0 0 .159.063c.014-.009.078.032.143.09s.5.337.974.619l.951.571c.213.131 1.306.748 1.395.787.052.024.238.124.412.224s.531.291.792.427a5.737 5.737 0 0 1 .507.281c.058.065 2.514 1.264 2.589 1.264.041 0 .074.021.074.047a.78.78 0 0 0 .3.169c.166.067.5.219.745.338s.65.3.9.4.509.212.57.245c.177.1.857.4.931.414a5.18 5.18 0 0 1 .639.252c.339.155.628.276.919.386.27.1.6.227 1.395.537.192.075.506.189.7.255s.591.209.888.318c.63.233 3.515 1.192 3.706 1.232.072.015.444.13.828.255s.909.284 1.167.352c.446.117.589.159 1.121.321a3.573 3.573 0 0 0 .365.092c.075.012.351.083.612.158s.519.145.571.157c.355.077 1.115.274 1.712.443.157.045.457.115.666.158s.514.117.678.166a2.127 2.127 0 0 0 .457.089 1.024 1.024 0 0 1 .305.056c.132.051.4.112 1.54.355 1.032.22 2.762.546 3.55.669.244.038.658.108.92.157s.689.119.951.158.647.1.856.137.495.077.634.091.4.053.57.087.445.077.6.094c.349.038 1.2.142 1.85.228.268.035.653.078.856.095s.654.071 1 .119.92.12 1.268.159.933.111 1.3.16.923.122 1.236.162a14.158 14.158 0 0 1 3.626.9 1.824 1.824 0 0 0 .3.116.455.455 0 0 1 .158.112 3.591 3.591 0 0 0 2.266.457h1.127l.227-.2c.557-.5.786-1.3.454-1.58a2.2 2.2 0 0 0-.65-.336c0 .017-.106-.026-.237-.1a1.171 1.171 0 0 0-.307-.127 3.558 3.558 0 0 1-.476-.136 5.84 5.84 0 0 0-.5-.15 1.016 1.016 0 0 1-.19-.051c-.148-.059-.816-.27-1.236-.39-.209-.06-.438-.132-.507-.161s-.384-.129-.7-.223-.9-.279-1.3-.409-1.114-.358-1.585-.506-.942-.3-1.046-.341a1.632 1.632 0 0 0-.222-.074 6.814 6.814 0 0 1-.761-.237 3.3 3.3 0 0 0-.348-.114c-.1-.027-.29-.085-.412-.128a22.526 22.526 0 0 0-1.014-.346 17.128 17.128 0 0 1-1.11-.385c-.209-.08-.523-.189-.7-.242-.4-.121-1.1-.367-1.554-.545-.192-.075-.42-.16-.507-.189s-.4-.142-.7-.252-.667-.241-.824-.293a3.206 3.206 0 0 1-.4-.157 3.248 3.248 0 0 0-.412-.16 13.42 13.42 0 0 1-.744-.277c-.4-.161-.92-.369-1.458-.582a2.631 2.631 0 0 0-.258-.09 4.449 4.449 0 0 1-.412-.17c-.189-.086-.458-.2-.6-.258-.353-.143-1.584-.661-1.931-.813l-.415-.181-.507-.226c-.209-.094-.48-.213-.6-.264s-.293-.131-.38-.177a.883.883 0 0 0-.19-.083c-.017 0-.26-.107-.539-.24s-.522-.244-.539-.247a95.547 95.547 0 0 1-2.682-1.307c-.48-.233-.5-.242-.944-.49a1.818 1.818 0 0 0-.46-.2c-.054 0-.1-.022-.1-.05s-.093-.095-.206-.149c-.315-.151-1.339-.694-1.411-.749-.035-.027-.349-.2-.7-.383s-.677-.37-.729-.413a.747.747 0 0 0-.161-.1c-.065-.024-1.079-.621-1.984-1.169a3.449 3.449 0 0 0-.523-.282.054.054 0 0 1-.058-.049.884.884 0 0 0-.3-.206 2.444 2.444 0 0 1-.333-.2 3.2 3.2 0 0 0-.627-.379c-.014.009-.042-.008-.063-.037a1.64 1.64 0 0 0-.512-.338.067.067 0 0 1-.066-.067c0-.037-.023-.053-.052-.035s-.092-.023-.141-.091-.108-.123-.132-.123c-.039 0-.451-.271-1.483-.977a2.748 2.748 0 0 1-.4-.307.13.13 0 0 0-.111-.048c-.049 0-.09-.022-.09-.049s-.093-.1-.206-.17a6.485 6.485 0 0 1-.925-.684.129.129 0 0 0-.111-.048c-.049 0-.09-.022-.09-.048a.766.766 0 0 0-.254-.205.77.77 0 0 1-.254-.205c0-.027-.043-.048-.1-.048s-.095-.024-.095-.052a1.11 1.11 0 0 0-.3-.267c-.165-.118-.332-.244-.37-.28s-.164-.137-.28-.224-.246-.194-.291-.238a.269.269 0 0 0-.143-.079.1.1 0 0 1-.084-.05c-.012-.027-.332-.3-.711-.611s-.741-.607-.8-.663-.152-.131-.2-.166c-.159-.12-.908-.753-.971-.822-.035-.038-.247-.225-.47-.416s-.483-.419-.575-.506-.337-.311-.544-.5c-1.557-1.406-3.8-3.641-4.556-4.542-.176-.209-.378-.438-.448-.507s-.321-.355-.557-.634l-.51-.6c-.045-.052-.179-.224-.3-.38s-.232-.3-.251-.317-.16-.2-.315-.412-.3-.395-.32-.412a2.373 2.373 0 0 1-.193-.254 4.065 4.065 0 0 0-.266-.344.79.79 0 0 1-.149-.238c-.02-.064-.063-.116-.1-.116a.063.063 0 0 1-.059-.066.274.274 0 0 0-.066-.143c-.037-.042-.236-.333-.443-.647s-.406-.6-.441-.647a.276.276 0 0 1-.065-.112 4.41 4.41 0 0 0-.38-.6 2.251 2.251 0 0 1-.157-.285 7.776 7.776 0 0 0-.267-.486c-.3-.5-1.665-3.141-1.888-3.667a2.054 2.054 0 0 0-.214-.4c-.051-.061-.073-.111-.048-.111s0-.078-.046-.174a10.308 10.308 0 0 1-.361-.808 7.814 7.814 0 0 0-.157-.349 3.521 3.521 0 0 1-.16-.412 1.042 1.042 0 0 0-.122-.285.884.884 0 0 1-.112-.254 17.378 17.378 0 0 0-.463-1.236c-.035-.07-.148-.388-.252-.707s-.216-.648-.248-.729-.136-.405-.231-.719-.2-.642-.228-.729a40.72 40.72 0 0 1-.466-1.712c-.2-.78-.475-1.944-.5-2.092l-.07-.412a41.345 41.345 0 0 0-.129-.7 23.312 23.312 0 0 1-.407-2.663c-.032-.279-.087-.75-.123-1.046a40.981 40.981 0 0 1 .341-10.778c.05-.331.1-.688.117-.793s.058-.361.1-.57.1-.537.139-.729.1-.534.152-.761.1-.5.125-.6a2.875 2.875 0 0 1 .113-.475c.019-.052.1-.352.174-.666s.163-.671.193-.793.082-.352.116-.511a3.581 3.581 0 0 1 .124-.444c.034-.085.125-.369.2-.63.334-1.148.988-3.122 1.117-3.37a.765.765 0 0 0 .087-.267 1.271 1.271 0 0 1 .1-.339c.057-.132.125-.3.15-.367s.094-.237.153-.372a.548.548 0 0 0 .073-.28c-.018-.019-.009-.065.021-.1a6.252 6.252 0 0 0 .289-.672c.246-.633.313-.8.45-1.109.046-.1.12-.3.165-.444a1.9 1.9 0 0 1 .125-.317c.024-.035.261-.586.528-1.225s.509-1.209.54-1.268.126-.264.212-.456l.3-.666c.223-.492.872-1.849 1.147-2.4a3.2 3.2 0 0 0 .248-.581.124.124 0 0 1 .049-.108 6.333 6.333 0 0 0 .428-.782c.208-.418.393-.775.41-.793s.148-.26.291-.539c.529-1.035.82-1.586.854-1.616a2.561 2.561 0 0 0 .186-.317c.083-.157.231-.428.328-.6s.206-.374.24-.444.149-.269.254-.444.211-.36.235-.412.224-.4.445-.767a5.482 5.482 0 0 0 .4-.745c0-.041.023-.074.051-.074s.115-.121.193-.269c.176-.334.117-.235 1.183-1.979.488-.8.881-1.476.872-1.5s.011-.052.044-.052.1-.07.143-.156c.107-.2 1.209-1.946 1.366-2.162a2.894 2.894 0 0 0 .25-.409.422.422 0 0 1 .083-.127c.049-.039.91-1.338.946-1.427a.28.28 0 0 1 .064-.1c.021-.017.16-.217.308-.444.373-.569.392-.6.7-1.019a2.125 2.125 0 0 0 .269-.438.064.064 0 0 1 .064-.064c.035 0 .063-.043.063-.1s.027-.095.059-.095.077-.057.1-.126A.6.6 0 0 1 86 45a21.228 21.228 0 0 0 1.242-1.76.061.061 0 0 1 .059-.063c.033 0 .124-.114.2-.254s.166-.254.194-.254.052-.041.052-.09a.128.128 0 0 1 .048-.111 2.345 2.345 0 0 0 .433-.56c-.02 0 .013-.055.074-.122a4.571 4.571 0 0 0 .458-.59c.1-.149.261-.356.353-.461a2.986 2.986 0 0 0 .271-.365c.057-.1.126-.174.153-.174s.05-.041.05-.09a.126.126 0 0 1 .055-.106 2.816 2.816 0 0 0 .333-.4c.155-.209.328-.437.385-.507.39-.482 1.2-1.506 1.348-1.715a3.121 3.121 0 0 1 .255-.315 4.245 4.245 0 0 0 .29-.349c.121-.157.313-.385.427-.507a1.053 1.053 0 0 0 .207-.274.27.27 0 0 1 .08-.132c.147-.148.649-.75.7-.838a1.672 1.672 0 0 1 .19-.233c.135-.14.451-.5.708-.813.4-.477.825-.979.86-1.006s.177-.189.344-.38c.734-.844.9-1.036 1.08-1.231.1-.114.315-.348.468-.519.355-.4.847-.926 1.878-2.023.453-.482.967-1.031 1.141-1.22s1.444-1.475 2.821-2.858 2.5-2.536 2.489-2.563.013-.047.047-.047a3.184 3.184 0 0 0 .532-.46c.258-.253.877-.845 1.375-1.316a507.728 507.728 0 0 0 2.24-2.124c.182-.174.685-.645 1.119-1.046s.862-.8.953-.888.476-.444.856-.793c.761-.7 1.25-1.151 1.607-1.49.129-.122.5-.465.828-.761s.729-.667.894-.824.552-.514.859-.793.741-.685.966-.9.417-.4.429-.4.8-.722 1.376-1.284a3.7 3.7 0 0 1 .407-.365c.1 0 3.122-3.031 3.122-3.131a.461.461 0 0 1 .111-.156 1.28 1.28 0 0 0 .333-.454.059.059 0 0 1 .054-.063 11.454 11.454 0 0 0 1.446-2.6 9.454 9.454 0 0 0 .592-2.153A10.179 10.179 0 0 0 123.9 0H122l-.044.259M3.419 19.081c-.78.143-2.086 1.193-2.086 1.677a.166.166 0 0 1-.057.13 1.313 1.313 0 0 0-.166.4l-.164.555a.848.848 0 0 0-.045.222.487.487 0 0 1-.069.179 10.924 10.924 0 0 0-.494 1.866.552.552 0 0 1-.089.273.27.27 0 0 0-.057.192.645.645 0 0 1-.093.3 19.609 19.609 0 0 0 .081 4.48c.291 1.351.338 1.56.42 1.871s.2.8.255 1.078c.086.417.385 1.511.529 1.934.048.143.06.183.195.7a10.728 10.728 0 0 0 .359 1.141c.044.122.166.493.272.824s.282.845.391 1.141.252.7.317.888a14 14 0 0 0 .514 1.341.933.933 0 0 1 .095.245 16.9 16.9 0 0 0 .649 1.582c.09.192.166.363.168.38a.994.994 0 0 0 .074.159 2.8 2.8 0 0 1 .149.38 3.507 3.507 0 0 0 .159.412c.044.087.136.287.206.444s.233.514.362.793l.382.824c.4.865.809 1.725.871 1.839.1.187.192.365.6 1.2.2.418.383.775.4.792a2.1 2.1 0 0 1 .155.317 2.372 2.372 0 0 0 .2.38 2.272 2.272 0 0 1 .191.365c.064.148.139.269.167.269s.051.051.051.114a.3.3 0 0 0 .057.174c.031.033.234.4.451.821s.474.9.572 1.078.282.517.408.761c.474.912.7 1.332.737 1.363a1.23 1.23 0 0 1 .131.222c.052.1.22.418.373.7s.332.614.4.745.148.238.181.238.046.024.028.053.033.15.114.269a4.156 4.156 0 0 1 .263.47c.1.211.4.749.661 1.173.032.052.15.273.263.491a1.343 1.343 0 0 0 .257.4c.029 0 .052.053.052.119a.293.293 0 0 0 .1.2.255.255 0 0 1 .095.134 4.655 4.655 0 0 0 .441.754 3.649 3.649 0 0 1 .219.38c.178.337.806 1.416 1.1 1.892.079.128.172.289.207.358s.12.213.19.317a1.788 1.788 0 0 1 .165.3c.021.061.061.111.088.111s.067.071.089.159.068.159.1.159.062.038.062.085a.375.375 0 0 0 .127.2c.07.063.113.13.1.147s.04.125.127.239a.851.851 0 0 1 .158.275.066.066 0 0 0 .063.068c.035 0 .063.041.063.091a.313.313 0 0 0 .079.177 1.674 1.674 0 0 1 .156.211c.355.576 1.136 1.8 1.217 1.908.056.075.136.189.18.254l.479.721a9.944 9.944 0 0 0 .885 1.257.1.1 0 0 1 .047.082.273.273 0 0 0 .063.137c.076.092.5.677.634.872.191.281.987 1.364 1.093 1.487.06.07.288.37.507.667.468.636 1.116 1.462 1.216 1.552a4.15 4.15 0 0 1 .29.349 4.842 4.842 0 0 0 .363.425.5.5 0 0 1 .145.2.1.1 0 0 0 .047.082 5.093 5.093 0 0 1 .424.465c.207.244.454.529.55.634.279.306.384.425.786.891.209.243.434.5.5.568s.321.369.57.666.509.6.579.666.255.284.41.475.326.395.38.452.173.2.266.317l.446.562c.153.192.448.577.655.856a10.264 10.264 0 0 0 .991 1.226.092.092 0 0 1 .054.079 1.852 1.852 0 0 0 .4.513.47.47 0 0 1 .111.152.291.291 0 0 0 .079.118c.044.045.179.2.3.355a82.95 82.95 0 0 0 1.876 2.217c.146.157.4.442.571.634.625.712 2.526 2.643 3.235 3.286.205.186.5.457.659.6.49.451 1.155 1.024 1.217 1.048a1.367 1.367 0 0 1 .24.19c.392.365.5.453.532.453a.468.468 0 0 1 .157.111 17.1 17.1 0 0 0 1.526 1.157c.076.052.377.273.668.491a3.617 3.617 0 0 0 .6.4.063.063 0 0 1 .069.053c0 .029.078.093.174.142a8.966 8.966 0 0 1 .977.69.657.657 0 0 0 .232.129.1.1 0 0 1 .085.049 4.724 4.724 0 0 0 .866.585.576.576 0 0 1 .2.13 7.406 7.406 0 0 0 .711.46l.763.448c.4.239 1.805.932 1.933.956a1.069 1.069 0 0 1 .246.086 2.086 2.086 0 0 0 2.322-.544 3.266 3.266 0 0 0 .335-2.308c-.047-.152-.121-.4-.164-.561s-.114-.385-.159-.507c-.084-.229-.71-2.113-.758-2.282-.015-.052-.087-.252-.162-.444s-.188-.505-.253-.7a28.466 28.466 0 0 0-.514-1.395c-.349-.792-.883-2.126-.882-2.2 0-.044-.021-.079-.047-.079a.835.835 0 0 1-.165-.329c-.065-.181-.217-.545-.339-.808s-.28-.607-.351-.764-.381-.805-.69-1.441-.561-1.182-.561-1.215a.1.1 0 0 0-.047-.081 7.536 7.536 0 0 1-.457-.845 6.963 6.963 0 0 0-.46-.845c-.028-.012-.051-.074-.051-.137s-.021-.126-.047-.138a5.22 5.22 0 0 1-.383-.687c-.431-.856-.915-1.781-1-1.9a.66.66 0 0 1-.069-.127 8.745 8.745 0 0 0-.473-.92 25.213 25.213 0 0 1-.444-.824c-.214-.421-.742-1.424-1.086-2.061l-.376-.7a1.305 1.305 0 0 0-.2-.307c-.026-.012-.047-.07-.047-.13a.283.283 0 0 0-.057-.169 13.439 13.439 0 0 1-.7-1.265 6.915 6.915 0 0 0-.513-.92 1.647 1.647 0 0 1-.157-.285 43.69 43.69 0 0 0-.974-1.807 8.14 8.14 0 0 1-.21-.38c-.2-.376-.61-1.124-.753-1.363-.062-.1-.171-.3-.242-.444s-.213-.4-.317-.571-.248-.431-.32-.571-.184-.342-.249-.45-.224-.394-.354-.634a2.563 2.563 0 0 0-.308-.484c-.04-.025-.05-.047-.024-.047s-.019-.108-.1-.24-.235-.4-.338-.586a6.039 6.039 0 0 0-.4-.7 7.644 7.644 0 0 1-.284-.523 2.075 2.075 0 0 0-.3-.491.057.057 0 0 1-.064-.06 16.891 16.891 0 0 0-.818-1.491c-.062-.1-.207-.361-.323-.57s-.284-.495-.372-.634a1.562 1.562 0 0 1-.176-.342.225.225 0 0 0-.066-.127 2.324 2.324 0 0 1-.235-.387 3.622 3.622 0 0 0-.269-.449.349.349 0 0 1-.086-.166.251.251 0 0 0-.094-.145c-.052-.043-.081-.1-.064-.127s-.012-.084-.064-.127a.263.263 0 0 1-.094-.166c0-.048-.029-.087-.063-.087a.065.065 0 0 1-.064-.065 5.935 5.935 0 0 0-.4-.733c-.511-.861-.73-1.24-.786-1.358-.025-.052-.177-.309-.338-.571s-.314-.519-.34-.571c-.181-.369-1.2-2.06-1.256-2.081a.128.128 0 0 1-.054-.115.779.779 0 0 0-.143-.3 5.716 5.716 0 0 1-.432-.709c-.075-.139-.229-.4-.341-.571s-.413-.659-.669-1.078a11.2 11.2 0 0 0-.966-1.48c-.027-.012-.033-.047-.013-.079s.006-.058-.031-.058a.065.065 0 0 1-.067-.063 4.34 4.34 0 0 0-.351-.618c-.193-.306-.386-.613-.428-.682a1.119 1.119 0 0 0-.111-.159c-.019-.017-.2-.3-.4-.634a4.5 4.5 0 0 0-.425-.623.123.123 0 0 1-.055-.111c0-.049-.03-.09-.067-.09s-.049-.028-.028-.063.009-.063-.028-.063a.063.063 0 0 1-.067-.058 8.543 8.543 0 0 0-.614-.99 3.5 3.5 0 0 1-.175-.286 2.2 2.2 0 0 0-.19-.294 10.046 10.046 0 0 1-.415-.628 156.402 156.402 0 0 0-1.692-2.6 2.656 2.656 0 0 1-.253-.409.472.472 0 0 0-.079-.127c-.02-.017-.138-.189-.263-.38l-.769-1.173c-.298-.453-.62-.952-.717-1.109a2.169 2.169 0 0 0-.222-.317 1.185 1.185 0 0 1-.159-.253 4.571 4.571 0 0 0-.3-.475c-.31-.43-1-1.508-1-1.561 0-.027-.05-.078-.111-.112s-.1-.078-.1-.1a10.048 10.048 0 0 0-.75-1.227 1.357 1.357 0 0 1-.184-.333.061.061 0 0 0-.059-.062c-.032 0-.075-.051-.095-.113a6.374 6.374 0 0 0-.6-.975.638.638 0 0 1-.132-.238.067.067 0 0 0-.063-.069.064.064 0 0 1-.063-.065 2.68 2.68 0 0 0-.28-.492 6.6 6.6 0 0 1-.359-.6c-.044-.1-.1-.174-.132-.174s-.053-.033-.053-.073a.772.772 0 0 0-.149-.27 1.427 1.427 0 0 1-.195-.339c-.025-.078-.072-.143-.1-.143a.062.062 0 0 1-.059-.065 1.325 1.325 0 0 0-.173-.333c-.1-.147-.209-.34-.252-.427s-.249-.415-.458-.729-.443-.692-.522-.84-.165-.269-.193-.269a.056.056 0 0 1-.051-.06 15.5 15.5 0 0 0-.87-1.366c-.029-.035-.123-.163-.208-.285s-.2-.278-.252-.347c-.162-.21-1.848-1.872-1.9-1.872a.615.615 0 0 1-.2-.134 3.047 3.047 0 0 0-.311-.235c-.087-.056-.28-.2-.428-.317s-.27-.191-.27-.161-.022.025-.047-.011a8.828 8.828 0 0 0-1.063-.71c-.069-.043-.239-.137-.378-.208s-.4-.215-.571-.319a3.34 3.34 0 0 0-2.511-.634m42.036 17.631a6.208 6.208 0 0 0-2.882.973 7.5 7.5 0 0 0-1.747 1.5.068.068 0 0 1-.063.072c-.035 0-.145.113-.245.251s-.292.383-.428.546a1.518 1.518 0 0 0-.247.354.152.152 0 0 1-.067.1 10.658 10.658 0 0 0-1.33 2.436c-.06.184-.144.421-.188.525a5.1 5.1 0 0 0-.262.919c-.012.087-.048.316-.08.507a14.04 14.04 0 0 0-.015 2.542c.033.153.078.393.1.533a6.241 6.241 0 0 0 .416 1.331 7.079 7.079 0 0 0 .523 1.036.088.088 0 0 1 .047.074 10.683 10.683 0 0 0 2.579 2.833 2.788 2.788 0 0 1 .3.227.42.42 0 0 0 .2.111.371.371 0 0 1 .187.125c.062.069.138.11.168.091s.055-.011.055.017a6.473 6.473 0 0 0 1.267.669 14.052 14.052 0 0 0 1.9.589 12.854 12.854 0 0 0 3.525.008l.412-.1a9.925 9.925 0 0 0 2.029-.738 2.513 2.513 0 0 1 .317-.181 4.573 4.573 0 0 0 .412-.233 1.826 1.826 0 0 1 .3-.163c.061-.021.111-.059.111-.084s.064-.075.143-.111a8.809 8.809 0 0 0 1.368-1.158 9.358 9.358 0 0 0 1.1-1.308c.038-.083.093-.152.122-.152a.062.062 0 0 0 .053-.068.823.823 0 0 1 .151-.27 11.093 11.093 0 0 0 1.028-2.167.766.766 0 0 1 .043-.159 8.884 8.884 0 0 0 .2-4.923 1.06 1.06 0 0 1-.089-.272 9.979 9.979 0 0 0-1.306-2.334 10.562 10.562 0 0 0-4.3-3.191 1.567 1.567 0 0 0-.469-.125c-.014.008-.042-.01-.063-.039a5.142 5.142 0 0 0-1.275-.367c-.122-.02-.436-.077-.7-.126s-.518-.089-.571-.09l-1.141-.031a17.775 17.775 0 0 0-1.585.019m3.9 72.418a1.377 1.377 0 0 0-.427.2c-.025.04-.047.053-.047.027 0-.149-.961.723-1.3 1.187-.1.14-.22.289-.26.331a2.742 2.742 0 0 0-.219.317 2.562 2.562 0 0 1-.224.319.62.62 0 0 0-.117.206c-.022.07-.064.127-.092.127s-.1.093-.157.206-.189.334-.291.491-.205.328-.228.38a1.054 1.054 0 0 1-.119.19 5.038 5.038 0 0 0-.281.473 7.85 7.85 0 0 1-.316.539 2.372 2.372 0 0 0-.156.256 2.996 2.996 0 0 1-.122.222c-.067.109-.229.379-.533.887-.042.07-.1.171-.123.223s-.149.266-.276.475-.25.423-.275.475-.158.295-.3.539-.344.615-.456.824-.261.487-.333.618c-.818 1.5-2.079 3.974-2.946 5.786-.217.453-.435.9-.485.992a.753.753 0 0 0-.09.27c0 .055-.027.1-.059.1s-.078.064-.1.143c-.043.141-.589 1.317-.763 1.643a.753.753 0 0 0-.09.262.274.274 0 0 1-.1.174.169.169 0 0 0-.065.167c.018.047 0 .085-.029.085a.065.065 0 0 0-.061.067 4.212 4.212 0 0 1-.254.591c-.139.288-.254.541-.254.561s-.1.261-.227.534l-.38.831a3.26 3.26 0 0 0-.153.369 3.743 3.743 0 0 1-.164.395c-.09.2-.186.418-.214.487s-.128.3-.224.5a4.739 4.739 0 0 0-.188.444 6.381 6.381 0 0 1-.321.766c-.079.174-.265.617-.413.983s-.334.808-.413.983-.192.445-.251.6-.144.371-.189.475l-.149.349c-.037.088-.129.3-.206.475-.5 1.145-1.115 2.7-1.171 2.98a2.52 2.52 0 0 1-.116.348c-.772 1.891-.276 3.161 1.572 4.026 1.033.483 1.676.591 4 .673.977.034 2.2.078 2.721.1a8.267 8.267 0 0 0 2.51-.237 4.936 4.936 0 0 0 1.18-.3 1.2 1.2 0 0 1 .284-.1 6.573 6.573 0 0 0 .723-.268 6.851 6.851 0 0 0 1.144-.578c.069-.043.246-.14.394-.217s.269-.164.269-.193a.061.061 0 0 1 .066-.052c.066 0 .152-.061.382-.269a.528.528 0 0 1 .156-.111 1.5 1.5 0 0 0 .27-.205c.356-.311 1.494-1.443 1.449-1.443-.021 0 .046-.081.151-.181a.666.666 0 0 0 .19-.254.069.069 0 0 1 .063-.072c.035 0 .064-.043.064-.1s.027-.095.059-.095a8.176 8.176 0 0 0 1.015-1.547 15.724 15.724 0 0 0 1.272-3.526l.193-.761c.076-.3.148-.62.162-.718a.857.857 0 0 1 .061-.238 1.863 1.863 0 0 0 .09-.359c.03-.166.07-.358.09-.428s.091-.383.159-.7c.136-.632.261-1.183.411-1.809.054-.228.117-.527.139-.666a1.526 1.526 0 0 1 .067-.3c.015-.024.084-.3.152-.6s.138-.6.153-.653.072-.281.125-.507c.179-.757.422-1.679.477-1.807.042-.1.183-.587.228-.793a1.235 1.235 0 0 1 .046-.127c.021-.052.067-.2.1-.317s.152-.465.26-.761.222-.61.252-.7c.056-.165.346-.889.444-1.109a4.387 4.387 0 0 0-.1-3.114 7.563 7.563 0 0 0-.464-.975 3.143 3.143 0 0 1-.229-.412c-.1-.209-.292-.552-.416-.761s-.348-.609-.5-.888a5.71 5.71 0 0 0-.36-.607.379.379 0 0 1-.088-.137 9.338 9.338 0 0 0-.564-1 6.481 6.481 0 0 1-.32-.6 3.566 3.566 0 0 0-.333-.592.11.11 0 0 1-.051-.1 2.844 2.844 0 0 0-.226-.518c-.124-.242-.383-.826-.576-1.3s-.391-.95-.44-1.064a1.1 1.1 0 0 1-.089-.3 1.116 1.116 0 0 0-.12-.331 1.574 1.574 0 0 1-.127-.3c-.054-.523-1.062-.853-1.814-.594" class="cls-1" />
        <path id="path1" d="M172.223 136.6c0 .227.012.32.026.206a2.053 2.053 0 0 0 0-.412c-.014-.113-.026-.02-.026.206m9.953 45.587c0 .192.012.27.027.174a1.4 1.4 0 0 0 0-.349c-.014-.1-.027-.017-.027.174m0 1.109c0 .174.013.238.027.142a1.127 1.127 0 0 0 0-.317c-.015-.078-.027 0-.026.175m-10.589 4.343c0 .157.012.221.027.143a.9.9 0 0 0 0-.286c-.015-.078-.027-.014-.027.143m0 3.3c0 .122.013.172.029.111a.523.523 0 0 0 0-.222c-.016-.061-.029-.011-.029.111" class="cls-2" transform="translate(-115.011 -91.392)" />
        <path id="path2" d="M172.223 136.6c0 .227.012.32.026.206a2.053 2.053 0 0 0 0-.412c-.014-.113-.026-.02-.026.206m9.953 45.587c0 .192.012.27.027.174a1.4 1.4 0 0 0 0-.349c-.014-.1-.027-.017-.027.174m0 1.109c0 .174.013.238.027.142a1.127 1.127 0 0 0 0-.317c-.015-.078-.027 0-.026.175m-10.589 4.343c0 .157.012.221.027.143a.9.9 0 0 0 0-.286c-.015-.078-.027-.014-.027.143m0 3.3c0 .122.013.172.029.111a.523.523 0 0 0 0-.222c-.016-.061-.029-.011-.029.111" class="cls-2" transform="translate(-115.011 -91.392)" />
        <path id="path3" d="M172.223 136.6c0 .227.012.32.026.206a2.053 2.053 0 0 0 0-.412c-.014-.113-.026-.02-.026.206m9.953 45.587c0 .192.012.27.027.174a1.4 1.4 0 0 0 0-.349c-.014-.1-.027-.017-.027.174m0 1.109c0 .174.013.238.027.142a1.127 1.127 0 0 0 0-.317c-.015-.078-.027 0-.026.175m-10.589 4.343c0 .157.012.221.027.143a.9.9 0 0 0 0-.286c-.015-.078-.027-.014-.027.143m0 3.3c0 .122.013.172.029.111a.523.523 0 0 0 0-.222c-.016-.061-.029-.011-.029.111" class="cls-2" transform="translate(-115.011 -91.392)" />
        <path id="path4" d="M172.223 136.6c0 .227.012.32.026.206a2.053 2.053 0 0 0 0-.412c-.014-.113-.026-.02-.026.206m9.953 45.587c0 .192.012.27.027.174a1.4 1.4 0 0 0 0-.349c-.014-.1-.027-.017-.027.174m0 1.109c0 .174.013.238.027.142a1.127 1.127 0 0 0 0-.317c-.015-.078-.027 0-.026.175m-10.589 4.343c0 .157.012.221.027.143a.9.9 0 0 0 0-.286c-.015-.078-.027-.014-.027.143m0 3.3c0 .122.013.172.029.111a.523.523 0 0 0 0-.222c-.016-.061-.029-.011-.029.111" class="cls-2" transform="translate(-115.011 -91.392)" />
    </g>
</svg>
