<svg xmlns="http://www.w3.org/2000/svg" width="233.994" height="307.607" viewBox="0 0 233.994 307.607">
  <g id="Group_561" data-name="Group 561" transform="translate(-127.491 -97.881)">
    <path id="Path_1467" data-name="Path 1467" d="M212.264,239.045c-44.064,37.037-68.979-13.226-59.064-39.2,0,0,12.852,7.375,13.445-1.3s-8.087-2.529-11.794-5.812-2.31-7.759,1.1-8.88,4.954,0,5.652,4.291c.63,3.865,6.663,4.335,8,1.073s.491-13.951-15.079-14.4c-.445-2.224,4.512-20.718-3.963-20.606-6.762.088-4.111,14.89-3.963,19.042-2.372-6.97-2.678-18.639-9.8-15.08s4.073,19.262,4.073,19.262-7.629-12.933-12.218-6.934c-3.3,4.316.881,8.255,6.85,12.59,4.621,3.355,1.88,13.116,1.187,16.755-2.225,11.67-8.975,57.64,26.84,72.316,18.685,7.656,38.078,1.334,38.078,1.334Z" fill="#ffc9ae"/>
    <path id="Path_1468" data-name="Path 1468" d="M212.266,239.041l-10.66,34.46s-19.39,6.32-38.07-1.34c-29.56-12.11-30.13-45.53-28.17-63.4-.29,18.35,4.23,43.18,28.82,53.25,18.68,7.66,38.08,1.34,38.08,1.34l6.7-21.67C210.046,240.861,211.156,239.981,212.266,239.041Z" fill="#ffb890"/>
    <path id="Path_1469" data-name="Path 1469" d="M276.711,239.045c44.064,37.037,68.979-13.226,59.065-39.2,0,0-12.853,7.375-13.446-1.3s8.088-2.529,11.8-5.812,2.31-7.759-1.1-8.88-4.953,0-5.652,4.291c-.629,3.865-6.662,4.335-8,1.073s-.49-13.951,15.08-14.4c.445-2.224-4.513-20.718,3.963-20.606,6.762.088,4.11,14.89,3.962,19.042,2.373-6.97,2.678-18.639,9.8-15.08s-4.072,19.262-4.072,19.262,7.629-12.933,12.218-6.934c3.3,4.316-.881,8.255-6.851,12.59-4.62,3.355-1.88,13.116-1.186,16.755,2.224,11.67,8.975,57.64-26.841,72.316-18.684,7.656-38.077,1.334-38.077,1.334Z" fill="#ffc9ae"/>
    <path id="Path_1470" data-name="Path 1470" d="M276.746,239.041l10.66,34.46s19.39,6.32,38.07-1.34c29.56-12.11,30.13-45.53,28.17-63.4.29,18.35-4.23,43.18-28.82,53.25-18.68,7.66-38.08,1.34-38.08,1.34l-6.7-21.67C278.966,240.861,277.856,239.981,276.746,239.041Z" fill="#ffb890"/>
    <path id="Path_1471" data-name="Path 1471" d="M298.24,246.78c-5.162-.7-19.3-6.916-24.635-10.172-13.148-10.392-43.766-11.051-57.144-.982-1.243.935-20.937,11.679-26.2,11.154-4.273-.427-5.585,35.114,0,36.662a55.354,55.354,0,0,0,5.6,1.228c-.732,23.289-1.366,59.338,2.784,63.994,5.038,5.654,86.556,5.654,91.6,0,4.167-4.676,3.358-40.814,2.569-64.022a54.971,54.971,0,0,0,5.434-1.2C303.825,281.894,302.5,247.354,298.24,246.78Z" fill="#363636"/>
    <path id="Path_1472" data-name="Path 1472" d="M254.086,222.44H234.792c0,11.785-1.08,17.678,9.647,17.678S254.086,234.226,254.086,222.44Z" fill="#ffb890"/>
    <path id="Path_1473" data-name="Path 1473" d="M350.621,364.048c-4.582-18.78-35.6-24.321-52.285-24.013H193.252c-16.685-.308-47.7,5.233-52.284,24.013-4.532,18.575.795,54.006,104.826,33.929C349.826,418.054,355.153,382.623,350.621,364.048Z" fill="#073d4c"/>
    <path id="Path_1474" data-name="Path 1474" d="M350.621,363.7c5.341,19.015-.9,55.274-108.3,33.537,0,0,3.183-20.494-1.71-34.468C303.051,340.315,346.364,348.54,350.621,363.7Z" fill="#074559"/>
    <path id="Path_1475" data-name="Path 1475" d="M242.316,397.231s.34-2.17.63-5.58c96.42,19.1,109.88-9.23,107.44-28.68q.135.36.24.72C355.966,382.711,349.726,418.971,242.316,397.231Z" fill="#073d4c"/>
    <g id="Group_551" data-name="Group 551">
      <path id="Path_1476" data-name="Path 1476" d="M285.117,403.882a59.528,59.528,0,0,1-11.028-.243c-15.6-1.526-35.366-6.91-35.366-6.91l10.889-28.794s15.06-.647,27.194-.546c6.021.053,11.324.291,13.71.877C301.026,370.87,301.391,402.3,285.117,403.882Z" fill="#ffbe13"/>
      <path id="Path_1477" data-name="Path 1477" d="M249.406,375.856c.4.042,24.391.8,23.681,1.136s-1.619,15.25-1.619,15.25-24.295-3.4-24.035-3.791S249.406,375.856,249.406,375.856Z" fill="#919191"/>
      <path id="Path_1478" data-name="Path 1478" d="M285.117,403.882a59.528,59.528,0,0,1-11.028-.243c-3.288-4.815-4.965-11.85-4.159-19.443a30.466,30.466,0,0,1,6.876-16.807c6.021.053,11.324.291,13.71.877C301.026,370.87,301.391,402.3,285.117,403.882Z" fill="#fff"/>
      <path id="Path_1479" data-name="Path 1479" d="M285.117,403.882a45.3,45.3,0,0,1-6.274.107c.426-.028.835-.058,1.23-.1,16.281-1.575,15.908-33.012,5.4-35.616a43.118,43.118,0,0,0-8.666-.884c4.824,0,10.532.09,13.71.874C301.026,370.87,301.391,402.3,285.117,403.882Z" fill="#d1d1d1"/>
      <g id="Group_546" data-name="Group 546">
        <g id="Group_543" data-name="Group 543">
          <path id="Path_1480" data-name="Path 1480" d="M268.924,395.165a1.5,1.5,0,0,1-1.443-1.093c-1.238-4.387-.507-9.9.406-13.978-1.785,3.143-3.409,7.818-2.88,12.291a1.5,1.5,0,0,1-2.979.352c-.962-8.131,4.411-18.637,8.643-19.353a1.5,1.5,0,0,1,1.661,1.989c-.04.108-3.911,10.984-1.964,17.884a1.5,1.5,0,0,1-1.036,1.851A1.482,1.482,0,0,1,268.924,395.165Z" fill="#d1d1d1"/>
        </g>
        <g id="Group_544" data-name="Group 544">
          <path id="Path_1481" data-name="Path 1481" d="M257.442,393.417a1.5,1.5,0,0,1-1.487-1.325c-.962-8.131,4.411-18.636,8.642-19.352a1.5,1.5,0,1,1,.5,2.957c-1.769.3-7.06,8.462-6.164,16.044a1.5,1.5,0,0,1-1.313,1.665A1.34,1.34,0,0,1,257.442,393.417Z" fill="#d1d1d1"/>
        </g>
        <g id="Group_545" data-name="Group 545">
          <path id="Path_1482" data-name="Path 1482" d="M251.37,392.772a1.5,1.5,0,0,1-1.487-1.324c-.962-8.13,4.41-18.636,8.641-19.354a1.5,1.5,0,1,1,.5,2.957c-1.77.3-7.061,8.464-6.165,16.045a1.5,1.5,0,0,1-1.313,1.665A1.346,1.346,0,0,1,251.37,392.772Z" fill="#d1d1d1"/>
        </g>
      </g>
      <g id="Group_550" data-name="Group 550">
        <g id="Group_547" data-name="Group 547">
          <path id="Path_1483" data-name="Path 1483" d="M268.98,394.641a1.506,1.506,0,0,1-.555-.106c-3.987-1.591-7.035-12.991-4.387-20.738a1.5,1.5,0,0,1,2.838.971c-2.468,7.223.992,16.315,2.66,16.98a1.5,1.5,0,0,1-.556,2.893Z" fill="#fff"/>
        </g>
        <g id="Group_548" data-name="Group 548">
          <path id="Path_1484" data-name="Path 1484" d="M262.908,394a1.513,1.513,0,0,1-.556-.107c-3.986-1.591-7.034-12.99-4.386-20.737a1.5,1.5,0,1,1,2.837.971c-2.467,7.222.993,16.314,2.661,16.979a1.5,1.5,0,0,1-.556,2.894Z" fill="#fff"/>
        </g>
        <g id="Group_549" data-name="Group 549">
          <path id="Path_1485" data-name="Path 1485" d="M256.835,393.352a1.511,1.511,0,0,1-.556-.106c-3.986-1.591-7.034-12.991-4.387-20.738a1.5,1.5,0,0,1,2.838.971c-2.468,7.223.992,16.315,2.66,16.98a1.5,1.5,0,0,1-.555,2.893Z" fill="#fff"/>
        </g>
      </g>
    </g>
    <path id="Path_1486" data-name="Path 1486" d="M294.962,352.9c-5.081,4.139-95.387,4.756-101.158,0s-12.272-76.742-8.815-80.2,114-3.143,118.788,0S300.042,348.766,294.962,352.9Z" fill="#c9c9c9"/>
    <path id="Path_1487" data-name="Path 1487" d="M299.256,338.551c-1.47,7.74-2.99,13.29-4.29,14.35-5.08,4.14-95.39,4.76-101.16,0s-12.27-76.74-8.82-80.2c.48-.47,5.6,46.8,20.386,59.6C231.266,354.7,281.017,349.172,299.256,338.551Z" fill="#c9c9c9" opacity="0.21" style="mix-blend-mode: multiply;isolation: isolate"/>
    <g id="Group_552" data-name="Group 552">
      <circle id="Ellipse_36" data-name="Ellipse 36" cx="14.797" cy="14.797" r="14.797" transform="translate(227.696 325.564) rotate(-81.091)" fill="#fff"/>
      <path id="Path_1488" data-name="Path 1488" d="M242.7,295.892s-5.7-9.384-8.745-3.27C232.327,295.892,242.7,295.892,242.7,295.892Z" fill="#fff"/>
      <path id="Path_1489" data-name="Path 1489" d="M245.794,295.892s5.7-9.384,8.746-3.27C256.168,295.892,245.794,295.892,245.794,295.892Z" fill="#fff"/>
    </g>
    <path id="Path_1490" data-name="Path 1490" d="M176.279,347.9c23.235,1.493,60.975,14.259,75.831,18.14-2.226,3.508-5.617,31.53-4.114,32.984-108.32,21.967-111.644-17.635-107.028-35.779C142.423,357.527,151.8,346.327,176.279,347.9Z" fill="#0c5870"/>
    <path id="Path_1491" data-name="Path 1491" d="M248,399.021c-100.65,20.41-110.64-12.33-107.86-31.63,2.89,18.33,23.64,38.47,107.86,21.4Z" fill="#074559"/>
    <g id="Group_559" data-name="Group 559">
      <path id="Path_1492" data-name="Path 1492" d="M291.786,176.081a1.6,1.6,0,0,1-.49.23,21.4,21.4,0,0,1-4.38.59c-.49.03-1.02.06-1.58.08a1.928,1.928,0,0,1-.24.01c-.41.02-.83.04-1.27.05-.33.02-.68.03-1.04.04-.59.02-1.21.03-1.85.04-18.37.36-55.01-1.13-72.33-1.91-.32-.01-.63-.03-.93-.04-.91-.04-1.76-.08-2.54-.11-.42-.02-.81-.04-1.19-.06-3.06-.14-4.83-.23-4.83-.23a18.793,18.793,0,0,1-1.62-2.06c-3.41-4.84-7.35-13.41-5.08-15.18,2.65-2.07,6.62-.51,6.7-1.72s-6.25-10.52-3.69-13.45,2.57-.34,3.69-1.38c.65-.6-1.17-4.97-1.56-9.38-.06-.6-.08-1.2-.08-1.79.04-2.56.75-4.95,2.93-6.42a12.9,12.9,0,0,0,2.92-2.49c1.71-2.15-.36-2.82,2.49-4.4,3.73-2.07,8.56,1.03,8.56,1.03s6.72-12.58,10.17-13.1,3.1,4.65,6.04,3.96,7.24-6.72,10.86-7.93c5.23-1.74-1.48,5.52,1.03,5.52s8.11-6.9,16.21-8.1c2.76,2.41-1.21,6.38,5.17,7.41s3.45,6.55,7.59,8.45,3.62.52,7.76,1.9,2.63,2.75,3.81,7.24.15,5.34,4.55,7.76,9.01,4.31,6.7,9.65-2.69,9.14,0,8.1,3.21-1.2,2.52,1.9-5.86,10.35-1.55,10.35S295.706,173,291.786,176.081Z" fill="#b64401"/>
      <path id="Path_1493" data-name="Path 1493" d="M291.786,176.081a1.6,1.6,0,0,1-.49.23,21.4,21.4,0,0,1-4.38.59c-.49.03-1.02.06-1.58.08a1.928,1.928,0,0,1-.24.01c-.41.02-.83.04-1.27.05-.33.02-.68.03-1.04.04-.59.02-1.21.03-1.85.04-18.37.36-55.01-1.13-72.33-1.91-.32-.01-.63-.03-.93-.04-.91-.04-1.76-.08-2.54-.11-.42-.02-.81-.04-1.19-.06-3.06-.14-4.83-.23-4.83-.23a18.793,18.793,0,0,1-1.62-2.06c-3.41-4.84-7.35-13.41-5.08-15.18,2.65-2.07,6.62-.51,6.7-1.72s-6.25-10.52-3.69-13.45,2.57-.34,3.69-1.38c.65-.6-1.17-4.97-1.56-9.38-.06-.6-.08-1.2-.08-1.79.04-2.56.75-4.95,2.93-6.42a12.9,12.9,0,0,0,2.92-2.49c1.71-2.15-.36-2.82,2.49-4.4,3.73-2.07,8.56,1.03,8.56,1.03s6.72-12.58,10.17-13.1,3.1,4.65,6.04,3.96,7.24-6.72,10.86-7.93c5.23-1.74-1.48,5.52,1.03,5.52s8.11-6.9,16.21-8.1c2.76,2.41-1.21,6.38,5.17,7.41s3.45,6.55,7.59,8.45,3.62.52,7.76,1.9,2.63,2.75,3.81,7.24.15,5.34,4.55,7.76,9.01,4.31,6.7,9.65-2.69,9.14,0,8.1,3.21-1.2,2.52,1.9-5.86,10.35-1.55,10.35S295.706,173,291.786,176.081Z" fill="#b64401"/>
      <path id="Path_1494" data-name="Path 1494" d="M288.546,173.831l-.03.96a2.379,2.379,0,0,1-1.6,2.11,2.524,2.524,0,0,1-1.58.08.292.292,0,0,1-.09-.02.4.4,0,0,1-.15.03,2.727,2.727,0,0,1-1.27.05,2.272,2.272,0,0,1-1.02-.44,2.074,2.074,0,0,1-.7-.96,2.442,2.442,0,0,1-.13-.92,38.523,38.523,0,0,0-1.08-11.16,2.255,2.255,0,0,1,1.83-2.85.61.61,0,0,1,.13-.03q-.285-1.23-.66-2.43c0-.01,0-.01-.01-.02a29.578,29.578,0,0,0-1.505-3.9c-.076-.151-.146-.3-.225-.452s-.16-.3-.24-.44c-.01-.02-.01-.03-.02-.05a2.9,2.9,0,0,0-.19-.34,4.864,4.864,0,0,0-.39-.65,18,18,0,0,0-1.77-2.43c-.05-.06-.1-.13-.16-.19-3.31-3.78-7.9-6.16-12.74-8.09-11.61-4.61-25.12-4.27-37.28-1.42a3.193,3.193,0,0,1-2.5,4c-6.18,2.06-10.91,5.33-16.01,8.94h-.01c-.67.47-1.34.95-2.03,1.43a35.456,35.456,0,0,1-.58,6.45,3.9,3.9,0,0,1-.14.59,31.275,31.275,0,0,1,1.85,6.04c.03.03.05.06.08.09a4.874,4.874,0,0,1,.85,1.39,4.948,4.948,0,0,1-.63,4.96v.01a6.3,6.3,0,0,1-.87,1,.6.6,0,0,1-.08.08,6.414,6.414,0,0,1-1.28,1.63,7.146,7.146,0,0,1-2.23,1.41c-.23.08-.47.16-.71.22a3.113,3.113,0,0,1-.41.11,7.623,7.623,0,0,1-5.28-.74,12.916,12.916,0,0,1-2.86-2.19,6.858,6.858,0,0,1,1.8-2.37,6.57,6.57,0,0,1,.87-.61c-3.41-4.84-7.35-13.41-5.08-15.18,2.65-2.07,6.62-.51,6.7-1.72s-6.25-10.52-3.69-13.45,2.57-.34,3.69-1.38c.65-.6-1.17-4.97-1.56-9.38.02-.01.05-.01.07-.02a15.275,15.275,0,0,1-.15-1.77c.04-2.56.75-4.95,2.93-6.42a12.9,12.9,0,0,0,2.92-2.49.737.737,0,0,1,.55.92c-1.19,3.52-2.59,6.21-1.21,9.94a33.974,33.974,0,0,1,2.67-2.7c1.99-1.82,4.85.78,3.48,2.79a9.9,9.9,0,0,1,2.16.33c1.53-3.49,3.27-6.8,7.12-8.46,1.44-.62,3.4.41,2.85,2.2-.14.44-.3.95-.46,1.5.36-.62.65-1.11.82-1.36a4.969,4.969,0,0,1,5.87-1.53c2.03-1.95,4.1-3.86,6.22-5.68,3.52-3.02,6.86-5.07,11.57-4.38,2.96.43,3.11,4.84.8,6.15-.76.48-1.5,1-2.22,1.52a19.051,19.051,0,0,0-2.23,2.09l-.02.03c-.18.27-1.7,2.15-2.67,3.24.06.08.14.14.19.22a40.013,40.013,0,0,0,7.81-2.77,28.093,28.093,0,0,1,10.51-2.45,3.956,3.956,0,0,1,3.79,4.61c3.54.13,7.08.15,10.64.01a2.109,2.109,0,0,1,2,2.62,9.718,9.718,0,0,1-.59,2.19c.96-.12,1.93-.2,2.9-.23a.982.982,0,0,1,.26,1.92c-1.99.67-4.03,1.15-6.05,1.73a1.519,1.519,0,0,1-1.75-2.1,16.135,16.135,0,0,1-4.45.85,42.724,42.724,0,0,1,6.5,2.54C283.946,143.331,288.916,159.741,288.546,173.831Z" fill="#b64401" opacity="0.31" style="mix-blend-mode: multiply;isolation: isolate"/>
      <g id="Group_553" data-name="Group 553">
        <path id="Path_1495" data-name="Path 1495" d="M206.876,197.361a5.489,5.489,0,0,1-.58-.03c-12.29-.68-14.81-14.96-11.47-21.64a6.858,6.858,0,0,1,1.8-2.37,6.57,6.57,0,0,1,.87-.61c2.62-1.58,4.84-.5,6.42.98a11.763,11.763,0,0,1,1.22,1.37,12.6,12.6,0,0,1,1.18,1.82c.1.17.15.27.15.27Z" fill="#ffb890"/>
        <path id="Path_1496" data-name="Path 1496" d="M201.171,184.561a7.385,7.385,0,0,1,.146-.78,15.266,15.266,0,0,1,2.3-4.683.4.4,0,0,0-.542-.552c-3.048,1.836-5.709,5.773-4.432,9.461.978,2.826,5.614,4.692,7.11,1.281C206.927,186.6,204.1,182.742,201.171,184.561Z" fill="#f29b62"/>
      </g>
      <g id="Group_554" data-name="Group 554">
        <path id="Path_1497" data-name="Path 1497" d="M280.276,198.721a.22.22,0,0,1-.08.01c-.17.01-.34.02-.52.02l.01-.69.4-19.51a12.633,12.633,0,0,1,.85-1.43,11.885,11.885,0,0,1,1.93-2.23c1.74-1.54,4.2-2.49,7.06-.17a6.273,6.273,0,0,1,1.37,1.59C295.246,182.571,293.056,198.011,280.276,198.721Z" fill="#ffb890"/>
        <path id="Path_1498" data-name="Path 1498" d="M285.376,185.96a7.389,7.389,0,0,0-.146-.78,15.267,15.267,0,0,0-2.3-4.683.4.4,0,0,1,.542-.552c3.048,1.836,5.709,5.773,4.432,9.461-.978,2.826-5.614,4.692-7.11,1.282C279.62,188,282.446,184.141,285.376,185.96Z" fill="#f29b62"/>
      </g>
      <path id="Path_1499" data-name="Path 1499" d="M283.016,164.451c0,3.65-.04,7.13-.15,10.44-.02.74-.05,1.47-.08,2.19q-.18,4.71-.58,8.95c-.19,1.98-.41,3.89-.69,5.72-.35,2.43-.78,4.73-1.31,6.9a.249.249,0,0,1-.01.08c-1.53,6.29-3.83,11.44-7.22,15.44-5.93,7.01-15.2,10.52-29.57,10.52-14.58,0-23.92-3.61-29.84-10.84a35.331,35.331,0,0,1-6.33-12.79c-.34-1.2-.66-2.44-.94-3.73q-.735-3.33-1.21-7.05c-.24-1.77-.43-3.62-.59-5.53q-.39-4.605-.55-9.75c-.01-.43-.03-.87-.03-1.31-.09-2.95-.12-6.03-.12-9.24C203.8,127.731,283.016,127.731,283.016,164.451Z" fill="#ffc9ae"/>
      <path id="Path_1500" data-name="Path 1500" d="M274.136,212.711c-.37.5-.76.99-1.16,1.46-5.93,7.01-15.2,10.52-29.57,10.52-14.58,0-23.92-3.61-29.84-10.84a35.331,35.331,0,0,1-6.33-12.79c-.34-1.2-.66-2.44-.94-3.73q-.735-3.33-1.21-7.05c-.24-1.77-.43-3.62-.59-5.53q-.39-4.605-.55-9.75c-.01-.43-.03-.87-.03-1.31-.09-2.95-.12-6.03-.12-9.24a22.778,22.778,0,0,1,8.7-18.01,22.216,22.216,0,0,0-4.26,13.31c0,3.21.03,6.29.12,9.24,0,.44.02.88.03,1.31q.165,5.145.55,9.75c.16,1.91.35,3.76.59,5.53q.48,3.72,1.21,7.05c.28,1.29.6,2.53.94,3.73a35.331,35.331,0,0,0,6.33,12.79c5.92,7.23,15.26,10.84,29.84,10.84C259.8,219.991,268.226,217.561,274.136,212.711Z" fill="#ffb890"/>
      <g id="Group_555" data-name="Group 555">
        <path id="Path_1501" data-name="Path 1501" d="M224.111,191.976c-4.523,0-9.1-3.561-9.1-10.365a1.5,1.5,0,0,1,3,0c0,5.06,3.163,7.365,6.1,7.365s6.1-2.3,6.1-7.365a1.5,1.5,0,0,1,3,0C233.214,188.415,228.635,191.976,224.111,191.976Z" fill="#b64401"/>
      </g>
      <g id="Group_556" data-name="Group 556">
        <path id="Path_1502" data-name="Path 1502" d="M264.249,191.976c-4.523,0-9.1-3.561-9.1-10.365a1.5,1.5,0,0,1,3,0c0,5.06,3.164,7.365,6.1,7.365s6.1-2.3,6.1-7.365a1.5,1.5,0,1,1,3,0C273.352,188.415,268.773,191.976,264.249,191.976Z" fill="#b64401"/>
      </g>
      <g id="Group_557" data-name="Group 557">
        <path id="Path_1503" data-name="Path 1503" d="M228.1,161.954a1.5,1.5,0,0,1-1.269-.7c-1-1.583-1.967-2.454-2.719-2.454s-1.719.871-2.719,2.454a1.5,1.5,0,1,1-2.536-1.6c1.639-2.591,3.357-3.85,5.254-3.85s3.616,1.259,5.255,3.85a1.5,1.5,0,0,1-1.266,2.3Z" fill="#b64401"/>
      </g>
      <g id="Group_558" data-name="Group 558">
        <path id="Path_1504" data-name="Path 1504" d="M268.237,161.954a1.5,1.5,0,0,1-1.268-.7c-1-1.583-1.967-2.454-2.72-2.454s-1.718.871-2.719,2.454a1.5,1.5,0,1,1-2.535-1.6c1.639-2.591,3.357-3.85,5.254-3.85s3.616,1.259,5.255,3.85a1.5,1.5,0,0,1-1.267,2.3Z" fill="#b64401"/>
      </g>
      <rect id="Rectangle_1576" data-name="Rectangle 1576" width="5.192" height="9.086" rx="2.361" transform="translate(242.284 202.176)" fill="#b64401"/>
    </g>
    <g id="Group_560" data-name="Group 560" opacity="0.68">
      <path id="Path_1505" data-name="Path 1505" d="M225.526,204.661a9.513,9.513,0,0,1-11.96,9.19,35.331,35.331,0,0,1-6.33-12.79,9.5,9.5,0,0,1,18.29,3.6Z" fill="#f29d86"/>
      <path id="Path_1506" data-name="Path 1506" d="M280.276,198.721a.22.22,0,0,1-.08.01c-1.53,6.29-3.83,11.44-7.22,15.44h-.12a9.505,9.505,0,1,1,6.83-16.11,5.776,5.776,0,0,1,.52.59A.234.234,0,0,1,280.276,198.721Z" fill="#f29d86"/>
    </g>
  </g>
</svg>
