<svg id="Group_883" data-name="Group 883" xmlns="http://www.w3.org/2000/svg"  viewBox="-9 -8 51.827 52.016">
  <path id="Path_19" data-name="Path 19" d="M10.769-6.151A17.372,17.372,0,0,0-6.18-19.563,25.138,25.138,0,0,0-9.5-19.23,17.366,17.366,0,0,0-21.4,6.088a1.123,1.123,0,0,1,.159.866c-.812,2.663-1.558,5.394-2.277,8.084-.12.466-.12.466.326.347,2.817-.773,5.607-1.492,8.418-2.185a.734.734,0,0,1,.626.027,17.45,17.45,0,0,0,11.414,1.61A17.424,17.424,0,0,0,10.769-6.151Zm-14.5,18.206a8.138,8.138,0,0,1-2,.173,15.106,15.106,0,0,1-7.838-2.01.907.907,0,0,0-.886-.134c-1.572.374-3.1.8-4.662,1.2-.32.093-.353.027-.28-.28.413-1.439.8-2.9,1.252-4.4a1.062,1.062,0,0,0-.18-1.026,14.372,14.372,0,0,1,.513-16.208c3.669-4.9,8.711-6.939,14.7-5.648C2.783-15.035,6.567-11.2,7.912-5.312A14.324,14.324,0,0,1-3.736,12.055Z" transform="translate(23.589 19.563)" fill="#fff" fill-rule="evenodd"/>
  <path id="Path_20" data-name="Path 20" d="M6.366,14.705a4.618,4.618,0,0,1-1.8-.226,17.686,17.686,0,0,1-9.4-6.912,9.794,9.794,0,0,1-2.018-4.1A4.716,4.716,0,0,1-5.3-1.17a2.622,2.622,0,0,1,2.318-.346,1.877,1.877,0,0,1,.386.453C-2.1.175-1.573,1.32-1.073,2.492a.943.943,0,0,1-.074.746A7.157,7.157,0,0,1-2.212,4.677a.641.641,0,0,0-.107.945,11.643,11.643,0,0,0,5.933,5.1.692.692,0,0,0,.893-.2c.446-.52.885-1.093,1.3-1.638a.728.728,0,0,1,.966-.227c.852.373,1.691.772,2.5,1.146.226.12.386.2.585.292.859.427.859.48.76,1.4-.113,1.811-1.506,2.731-3.1,3.183A2.846,2.846,0,0,1,6.366,14.705Z" transform="translate(15.592 10.946)" fill="#fff" fill-rule="evenodd"/>
</svg>
