<?xml version="1.0" encoding="utf-8"?>
<!-- Generator: Adobe Illustrator 22.0.1, SVG Export Plug-In . SVG Version: 6.00 Build 0)  -->
<svg version="1.1" id="Layer_1" xmlns="http://www.w3.org/2000/svg" xmlns:xlink="http://www.w3.org/1999/xlink" x="0px" y="0px"
	 viewBox="0 0 400 400" style="enable-background:new 0 0 400 400;" xml:space="preserve">
<style type="text/css">
	.st0{fill:#FFFFFF;}
</style>
<g id="Group_19" transform="translate(1615.935 1014.721)">
	<g id="Group_17" transform="translate(-47.935 -43.721)">
		<path id="Path_18" class="st0" d="M-1368.3-961c104.8,0,190.3,85,190.3,190.6l0,0c0,105-84.9,190.6-190.3,190.6l0,0
			c-104.8,0-190.3-85-190.3-190.6l0,0C-1558-876-1473.1-961-1368.3-961L-1368.3-961 M-1368.3-971c-110.6,0-199.7,89.8-199.7,200
			s89.6,200,199.7,200c110.6,0,199.7-89.8,200.3-200C-1168-881.2-1257.6-971-1368.3-971z"/>
	</g>
	<g id="Group_18" transform="translate(-31.902 -27.812)">
		<path id="Path_19" class="st0" d="M-1271.4-814.2c-12.1-52.5-59.2-89.2-112.7-89.2c-7.3,0-14.7,1-22,2.1
			c-62.4,12.6-103.3,73-91.2,136c2.1,11.5,6.3,22.6,12.1,32.5c1,1.6,1.6,3.7,1,5.8c-5.2,17.8-10.5,35.7-15.2,54.1
			c-1,3.1-1,3.1,2.1,2.1c18.9-5.2,37.2-10,56.1-14.7c1.6-0.5,2.6-0.5,4.2,0c23.6,12.1,50.3,15.7,76,10.5
			c62.9-12.6,103.3-74,90.7-137C-1270.9-812.1-1270.9-813.1-1271.4-814.2z M-1367.9-692.9c-4.2,1-8.9,1.6-13.1,1
			c-18.3,0.5-36.2-4.2-51.9-13.6c-1.6-1.6-3.7-1.6-5.8-1c-10.5,2.6-20.4,5.2-30.9,7.9c-2.1,0.5-2.1,0-2.1-2.1
			c2.6-9.4,5.2-19.4,8.4-29.4c1-2.1,0.5-4.7-1-6.8c-21-33.1-19.9-76.1,3.7-108.1c24.6-32.5,58.2-46.2,98-37.8
			c39.3,8.4,64.5,33.6,73.4,73c12.1,51.4-19.9,102.4-71.3,114.4C-1363.7-693.4-1365.8-692.9-1367.9-692.9z"/>
		<path id="Path_20" class="st0" d="M-1353.7-732.3c-4.2,0.5-8.4,0-12.1-1.6c-25.7-7.9-47.7-24.1-62.4-46.2
			c-6.8-7.9-11-17.3-13.6-27.3c-2.6-11.5,1.6-23.1,10.5-31c4.7-3.1,10-4.2,15.2-2.1c1,1,2.1,2.1,2.6,3.1c3.1,8.4,6.8,15.7,10,23.6
			c0.5,1.6,0.5,3.7-0.5,4.7c-2.1,3.7-4.2,6.8-7.3,9.4c-2.1,1.6-2.1,4.2-1,5.8c0,0,0,0,0.5,0.5c8.9,15.7,22.5,27.8,39.3,34.1
			c2.1,1,4.7,0.5,5.8-1.6c3.1-3.7,5.8-7.3,8.4-11c1.6-2.1,4.2-2.6,6.3-1.6c5.8,2.6,11,5.2,16.8,7.9c1.6,1,2.6,1.6,3.7,2.1
			c5.8,2.6,5.8,3.1,5.2,9.4c-0.5,12.1-10,18.4-20.4,21C-1348.5-732.3-1351.1-732.3-1353.7-732.3z"/>
	</g>
</g>
</svg>
