<svg id="svg" version="1.1" xmlns="http://www.w3.org/2000/svg" xmlns:xlink="http://www.w3.org/1999/xlink" width="400" height="461.3565217391304" viewBox="0, 0, 400,461.3565217391304"><g id="svgg"><path id="path0" d="M369.901 0.786 C 369.773 1.541,368.090 3.654,367.615 3.654 C 367.519 3.654,367.172 3.851,366.845 4.092 C 366.518 4.332,365.925 4.698,365.529 4.905 C 365.132 5.111,364.808 5.347,364.808 5.428 C 364.808 5.510,364.684 5.577,364.533 5.577 C 364.382 5.577,364.142 5.685,363.999 5.817 C 363.857 5.950,363.319 6.271,362.804 6.532 C 362.289 6.793,361.771 7.095,361.652 7.205 C 361.533 7.314,361.092 7.575,360.670 7.783 C 360.249 7.992,359.644 8.339,359.327 8.553 C 358.495 9.116,358.021 9.407,357.692 9.558 C 357.534 9.631,357.289 9.803,357.150 9.941 C 357.010 10.079,356.772 10.192,356.621 10.192 C 356.470 10.192,356.346 10.279,356.346 10.385 C 356.346 10.490,356.254 10.577,356.141 10.577 C 356.028 10.577,355.652 10.793,355.306 11.058 C 354.959 11.322,354.615 11.538,354.541 11.538 C 354.467 11.538,354.302 11.628,354.175 11.738 C 354.047 11.848,353.250 12.384,352.404 12.929 C 351.558 13.475,350.837 13.990,350.801 14.076 C 350.766 14.161,350.655 14.231,350.555 14.231 C 350.454 14.231,349.675 14.728,348.822 15.337 C 347.970 15.945,346.956 16.650,346.569 16.904 C 346.182 17.158,345.837 17.439,345.801 17.529 C 345.766 17.619,345.615 17.692,345.465 17.692 C 345.315 17.692,345.192 17.760,345.192 17.843 C 345.192 17.926,344.954 18.137,344.663 18.312 C 344.373 18.487,343.918 18.804,343.654 19.017 C 343.389 19.230,342.394 19.973,341.442 20.668 C 340.490 21.363,339.574 22.048,339.405 22.189 C 339.236 22.330,338.501 22.905,337.770 23.468 C 336.170 24.702,334.747 25.828,334.615 25.967 C 334.563 26.022,334.130 26.365,333.654 26.729 C 333.178 27.092,332.598 27.588,332.365 27.830 C 332.132 28.071,331.872 28.272,331.788 28.274 C 331.704 28.277,331.271 28.602,330.827 28.996 C 330.383 29.389,329.614 30.058,329.118 30.481 C 328.621 30.904,328.119 31.337,328.001 31.442 C 327.884 31.548,327.379 31.963,326.880 32.365 C 326.380 32.766,325.860 33.199,325.724 33.326 C 325.588 33.454,324.872 34.073,324.133 34.702 C 323.393 35.332,322.647 35.981,322.475 36.145 C 322.303 36.308,321.664 36.875,321.056 37.404 C 320.448 37.933,319.667 38.625,319.321 38.942 C 318.699 39.513,317.524 40.556,315.288 42.522 C 314.654 43.080,313.907 43.758,313.629 44.028 C 313.351 44.298,312.408 45.168,311.532 45.962 C 310.657 46.755,309.328 47.988,308.580 48.702 C 307.831 49.416,307.147 50.000,307.059 50.000 C 306.972 50.000,306.954 50.087,307.019 50.192 C 307.085 50.298,307.046 50.385,306.934 50.385 C 306.590 50.385,298.451 58.368,292.302 64.737 C 287.630 69.577,285.918 71.412,282.758 74.965 C 282.352 75.421,281.716 76.117,281.346 76.512 C 280.976 76.906,280.284 77.688,279.808 78.251 C 279.332 78.813,278.704 79.517,278.413 79.814 C 278.123 80.112,277.885 80.398,277.885 80.451 C 277.885 80.504,277.647 80.797,277.356 81.102 C 276.353 82.154,275.385 83.283,275.385 83.399 C 275.385 83.463,275.147 83.751,274.856 84.038 C 274.565 84.326,274.196 84.725,274.036 84.925 C 273.771 85.257,271.038 88.565,270.214 89.551 C 270.022 89.780,269.571 90.342,269.212 90.800 C 268.163 92.136,267.998 92.337,267.678 92.668 C 267.512 92.840,266.954 93.543,266.437 94.231 C 265.921 94.918,265.447 95.524,265.383 95.577 C 265.320 95.630,265.014 96.019,264.702 96.442 C 264.391 96.865,264.087 97.255,264.027 97.308 C 263.966 97.361,263.533 97.921,263.064 98.554 C 262.082 99.879,261.730 100.327,261.394 100.681 C 261.262 100.820,261.154 100.985,261.154 101.047 C 261.154 101.109,260.757 101.656,260.272 102.262 C 258.993 103.863,258.981 103.879,258.468 104.615 C 258.210 104.986,257.909 105.352,257.798 105.430 C 257.687 105.507,257.678 105.572,257.777 105.574 C 257.877 105.576,257.825 105.685,257.662 105.817 C 257.356 106.066,255.119 109.067,252.780 112.367 C 252.044 113.404,251.129 114.659,250.747 115.155 C 250.364 115.652,249.464 116.923,248.746 117.981 C 248.028 119.038,247.381 119.947,247.307 120.000 C 247.233 120.053,246.931 120.486,246.636 120.962 C 246.340 121.438,245.844 122.151,245.533 122.548 C 245.222 122.945,245.040 123.272,245.128 123.275 C 245.216 123.278,245.137 123.369,244.952 123.477 C 244.767 123.585,244.615 123.761,244.615 123.869 C 244.615 123.978,244.507 124.187,244.375 124.334 C 243.884 124.881,243.700 125.131,243.468 125.565 C 243.337 125.810,242.958 126.375,242.625 126.822 C 242.292 127.269,241.912 127.799,241.781 128.000 C 241.650 128.201,241.198 128.863,240.777 129.471 C 240.356 130.079,240.059 130.577,240.116 130.577 C 240.173 130.577,240.105 130.704,239.966 130.859 C 239.826 131.014,239.622 131.252,239.512 131.388 C 239.224 131.744,236.649 135.638,236.557 135.857 C 236.515 135.958,236.401 136.131,236.305 136.241 C 236.009 136.580,231.753 143.160,231.697 143.365 C 231.668 143.471,231.513 143.711,231.351 143.899 C 231.190 144.087,230.885 144.534,230.673 144.893 C 229.902 146.199,228.385 148.560,228.257 148.654 C 228.184 148.707,227.963 149.053,227.764 149.424 C 227.566 149.795,227.209 150.370,226.971 150.704 C 226.733 151.037,226.538 151.351,226.538 151.402 C 226.538 151.453,226.192 152.013,225.769 152.647 C 225.346 153.280,225.000 153.896,225.000 154.015 C 225.000 154.134,224.933 154.231,224.851 154.231 C 224.770 154.231,224.537 154.555,224.333 154.952 C 224.130 155.349,223.775 155.934,223.545 156.253 C 223.314 156.572,222.960 157.135,222.756 157.503 C 222.553 157.872,222.066 158.667,221.674 159.270 C 221.282 159.873,220.962 160.419,220.962 160.484 C 220.962 160.549,220.745 160.886,220.481 161.233 C 220.216 161.580,220.000 161.921,220.000 161.991 C 220.000 162.062,219.518 162.919,218.930 163.896 C 218.341 164.874,217.782 165.803,217.686 165.962 C 217.202 166.766,216.216 168.363,215.962 168.754 C 215.497 169.467,214.423 171.333,214.423 171.426 C 214.423 171.473,214.092 172.015,213.687 172.631 C 213.282 173.246,212.890 173.880,212.816 174.038 C 212.741 174.197,212.424 174.760,212.111 175.288 C 211.798 175.817,211.487 176.401,211.421 176.587 C 211.355 176.772,211.231 176.923,211.144 176.923 C 211.058 176.923,210.931 177.102,210.861 177.321 C 210.792 177.540,210.218 178.595,209.586 179.665 C 208.954 180.735,208.421 181.702,208.401 181.815 C 208.382 181.927,208.315 182.063,208.253 182.115 C 208.118 182.232,206.942 184.258,206.469 185.192 C 206.281 185.563,205.799 186.471,205.397 187.212 C 202.296 192.922,196.996 203.256,196.939 203.701 C 196.929 203.780,196.666 204.343,196.354 204.951 C 195.634 206.358,193.269 211.336,193.269 211.446 C 193.269 211.523,193.081 211.947,191.823 214.698 C 191.537 215.326,191.285 215.954,191.264 216.095 C 191.244 216.235,191.124 216.453,190.998 216.579 C 190.872 216.705,190.769 216.958,190.769 217.142 C 190.769 217.327,190.696 217.523,190.605 217.579 C 190.515 217.634,190.295 218.094,190.115 218.599 C 189.935 219.105,189.670 219.779,189.526 220.096 C 189.382 220.413,189.040 221.165,188.767 221.767 C 188.493 222.369,188.269 222.979,188.269 223.123 C 188.269 223.267,188.200 223.467,188.115 223.567 C 187.959 223.752,186.679 226.969,185.440 230.288 C 185.282 230.712,185.068 231.219,184.965 231.416 C 184.862 231.613,184.746 231.916,184.707 232.089 C 184.669 232.262,184.455 232.880,184.231 233.462 C 184.007 234.043,183.664 234.995,183.467 235.577 C 183.270 236.159,182.839 237.370,182.507 238.269 C 182.176 239.168,181.830 240.163,181.738 240.481 C 181.536 241.183,181.155 242.268,180.929 242.788 C 180.837 243.000,180.724 243.346,180.678 243.558 C 180.633 243.769,180.387 244.548,180.132 245.288 C 179.616 246.784,178.855 249.249,178.840 249.468 C 178.835 249.546,178.698 249.979,178.535 250.430 C 178.373 250.881,178.208 251.405,178.168 251.595 C 178.087 251.980,177.724 253.149,177.490 253.774 C 177.406 253.999,177.195 254.778,177.021 255.505 C 176.846 256.232,176.580 257.238,176.429 257.740 C 175.778 259.903,175.606 260.545,175.383 261.635 C 175.254 262.269,175.075 263.048,174.985 263.365 C 174.798 264.027,174.345 266.167,173.948 268.269 C 173.322 271.584,173.207 272.237,173.163 272.725 C 173.138 273.007,173.025 273.829,172.913 274.552 C 171.112 286.105,171.105 307.287,172.898 317.981 C 173.005 318.615,173.124 319.567,173.164 320.096 C 173.204 320.625,173.324 321.577,173.430 322.212 C 173.537 322.846,173.676 323.885,173.740 324.519 C 173.804 325.154,173.930 325.993,174.021 326.385 C 174.112 326.776,174.147 327.135,174.099 327.183 C 174.014 327.269,174.360 329.484,174.900 332.308 C 175.052 333.101,175.276 334.313,175.398 335.000 C 175.520 335.688,175.734 336.683,175.874 337.212 C 176.014 337.740,176.273 338.736,176.449 339.423 C 176.625 340.111,176.847 340.872,176.942 341.115 C 177.038 341.358,177.115 341.727,177.115 341.935 C 177.115 342.143,177.196 342.463,177.294 342.647 C 177.504 343.040,178.080 344.890,178.205 345.573 C 178.253 345.835,178.396 346.115,178.521 346.195 C 178.647 346.275,178.689 346.342,178.615 346.343 C 178.437 346.347,179.384 349.091,180.774 352.596 C 180.858 352.808,181.098 353.370,181.307 353.846 C 181.516 354.322,181.890 355.188,182.138 355.769 C 183.072 357.961,187.131 365.807,187.618 366.361 C 187.765 366.528,187.885 366.766,187.885 366.890 C 187.885 367.014,187.971 367.115,188.077 367.115 C 188.183 367.115,188.269 367.209,188.269 367.323 C 188.269 367.437,188.559 367.978,188.912 368.525 C 189.266 369.072,189.807 369.933,190.114 370.438 C 190.616 371.263,192.640 374.227,193.033 374.712 C 193.119 374.817,193.483 375.337,193.841 375.865 C 194.200 376.394,194.547 376.870,194.613 376.923 C 194.678 376.976,195.023 377.430,195.379 377.933 C 195.735 378.435,196.099 378.846,196.186 378.846 C 196.274 378.846,196.346 378.932,196.346 379.037 C 196.346 379.214,196.621 379.578,197.596 380.689 C 197.808 380.930,198.240 381.450,198.558 381.843 C 198.875 382.237,199.310 382.740,199.525 382.962 C 199.740 383.184,200.065 383.582,200.249 383.846 C 201.293 385.353,209.742 393.839,212.981 396.635 C 213.716 397.269,214.499 397.962,214.721 398.173 C 214.942 398.385,215.499 398.861,215.958 399.231 C 216.417 399.601,217.390 400.403,218.120 401.013 C 218.850 401.623,219.680 402.272,219.964 402.455 C 220.248 402.638,220.671 402.961,220.904 403.173 C 221.512 403.726,221.664 403.844,223.367 405.101 C 224.212 405.725,224.990 406.302,225.096 406.384 C 226.135 407.191,227.151 407.885,227.293 407.885 C 227.389 407.885,227.497 407.955,227.532 408.042 C 227.567 408.128,228.159 408.582,228.846 409.051 C 229.534 409.520,230.125 409.969,230.160 410.048 C 230.196 410.127,230.311 410.192,230.417 410.192 C 230.639 410.192,232.372 411.370,232.468 411.587 C 232.503 411.666,232.615 411.731,232.716 411.731 C 232.818 411.731,233.005 411.824,233.133 411.938 C 233.344 412.126,236.506 414.180,237.479 414.761 C 237.701 414.894,237.918 414.980,237.960 414.953 C 238.002 414.926,238.197 415.049,238.393 415.226 C 238.589 415.403,239.918 416.248,241.346 417.104 C 242.774 417.959,244.072 418.739,244.231 418.836 C 244.878 419.232,248.193 421.104,248.462 421.224 C 248.620 421.296,249.183 421.601,249.712 421.903 C 250.240 422.204,251.322 422.786,252.115 423.197 C 252.909 423.607,253.601 423.991,253.654 424.050 C 253.829 424.248,261.278 427.885,261.506 427.885 C 261.630 427.885,261.731 427.950,261.731 428.029 C 261.732 428.108,262.143 428.339,262.645 428.542 C 263.147 428.745,264.163 429.206,264.904 429.567 C 265.644 429.927,266.877 430.474,267.643 430.781 C 268.409 431.089,269.187 431.423,269.373 431.524 C 269.911 431.815,271.972 432.732,272.198 432.781 C 272.464 432.838,273.400 433.207,274.135 433.544 C 275.163 434.015,276.040 434.382,276.923 434.714 C 277.743 435.021,278.733 435.403,281.154 436.344 C 281.736 436.570,282.688 436.918,283.269 437.117 C 283.851 437.316,285.063 437.751,285.962 438.083 C 287.872 438.791,296.624 441.699,297.202 441.819 C 297.419 441.864,298.548 442.212,299.712 442.592 C 300.875 442.973,302.468 443.453,303.251 443.660 C 304.603 444.016,305.038 444.141,306.652 444.634 C 307.032 444.750,307.530 444.875,307.758 444.912 C 307.986 444.949,308.822 445.164,309.615 445.391 C 310.409 445.618,311.188 445.832,311.346 445.866 C 312.423 446.100,314.729 446.697,316.538 447.211 C 317.014 447.346,317.923 447.561,318.558 447.689 C 319.192 447.817,320.117 448.043,320.613 448.192 C 321.109 448.340,321.732 448.462,321.998 448.462 C 322.264 448.462,322.681 448.538,322.924 448.631 C 323.325 448.785,324.127 448.970,327.596 449.709 C 330.726 450.375,335.972 451.364,338.365 451.738 C 339.106 451.854,340.361 452.067,341.154 452.213 C 341.947 452.358,343.245 452.574,344.038 452.693 C 344.832 452.812,346.000 453.000,346.635 453.110 C 347.269 453.221,348.135 453.345,348.558 453.385 C 348.981 453.426,349.760 453.545,350.288 453.650 C 350.817 453.755,351.639 453.884,352.115 453.936 C 353.173 454.051,355.740 454.368,357.727 454.629 C 358.540 454.736,359.708 454.866,360.324 454.917 C 360.939 454.969,362.308 455.131,363.365 455.278 C 364.423 455.425,366.154 455.641,367.212 455.760 C 368.269 455.878,370.043 456.097,371.154 456.246 C 372.264 456.396,373.952 456.617,374.904 456.737 C 379.131 457.272,383.279 458.299,385.902 459.459 C 386.354 459.659,386.771 459.818,386.827 459.811 C 386.884 459.805,387.100 459.957,387.306 460.150 C 388.317 461.091,390.536 461.539,394.178 461.535 L 397.596 461.531 398.286 460.910 C 399.975 459.387,400.669 456.975,399.663 456.119 C 399.263 455.778,397.692 454.966,397.692 455.100 C 397.692 455.151,397.369 455.020,396.974 454.808 C 396.579 454.596,396.161 454.423,396.044 454.423 C 395.928 454.423,395.278 454.237,394.599 454.010 C 393.921 453.783,393.236 453.579,393.077 453.556 C 392.918 453.533,392.659 453.463,392.500 453.400 C 392.052 453.222,390.026 452.582,388.750 452.216 C 388.115 452.034,387.423 451.815,387.212 451.729 C 387.000 451.643,386.048 451.339,385.096 451.053 C 384.144 450.766,382.370 450.207,381.154 449.811 C 379.938 449.414,377.774 448.724,376.346 448.277 C 374.918 447.830,373.490 447.365,373.173 447.244 C 372.856 447.123,372.553 447.022,372.500 447.021 C 372.328 447.016,370.686 446.504,370.192 446.301 C 369.928 446.193,369.452 446.036,369.135 445.954 C 368.817 445.871,368.255 445.696,367.885 445.565 C 365.963 444.886,365.134 444.603,364.808 444.515 C 364.279 444.374,362.610 443.794,361.442 443.348 C 360.808 443.105,359.856 442.775,359.327 442.614 C 358.117 442.247,355.993 441.502,354.615 440.962 C 354.034 440.735,353.341 440.476,353.077 440.389 C 352.813 440.301,351.861 439.958,350.962 439.625 C 350.063 439.293,348.938 438.893,348.462 438.736 C 347.986 438.578,347.444 438.364,347.257 438.260 C 347.071 438.156,346.508 437.938,346.007 437.775 C 345.506 437.613,344.490 437.235,343.750 436.935 C 342.542 436.446,340.961 435.815,339.327 435.169 C 339.010 435.044,338.658 434.921,338.544 434.896 C 338.431 434.872,337.869 434.639,337.294 434.379 C 336.720 434.119,335.904 433.766,335.481 433.595 C 334.409 433.161,330.676 431.590,329.624 431.130 C 329.143 430.920,328.577 430.673,328.365 430.582 C 328.154 430.490,327.462 430.183,326.827 429.898 C 326.192 429.614,325.370 429.253,325.000 429.096 C 324.630 428.940,324.111 428.698,323.846 428.558 C 323.582 428.418,323.322 428.306,323.269 428.307 C 323.216 428.309,322.481 427.981,321.635 427.578 C 320.788 427.176,320.053 426.838,320.000 426.828 C 319.885 426.806,313.903 423.912,313.402 423.636 C 313.211 423.531,312.519 423.183,311.864 422.864 C 310.408 422.156,310.361 422.131,309.001 421.377 C 308.398 421.043,307.771 420.769,307.607 420.769 C 307.442 420.769,307.308 420.701,307.308 420.617 C 307.308 420.533,307.026 420.330,306.683 420.166 C 305.727 419.709,302.621 418.060,302.404 417.894 C 302.298 417.813,301.346 417.290,300.288 416.732 C 299.231 416.173,298.236 415.609,298.077 415.479 C 297.918 415.349,297.699 415.210,297.589 415.169 C 297.392 415.097,294.316 413.285,291.570 411.623 C 290.794 411.153,290.080 410.769,289.984 410.769 C 289.887 410.769,289.808 410.703,289.808 410.621 C 289.808 410.539,289.397 410.258,288.894 409.996 C 288.392 409.734,287.938 409.467,287.885 409.404 C 287.718 409.204,286.061 408.201,285.983 408.253 C 285.942 408.280,285.855 408.230,285.791 408.141 C 285.592 407.870,284.451 407.115,284.239 407.115 C 284.129 407.115,284.038 407.024,284.038 406.912 C 284.038 406.800,283.968 406.752,283.881 406.805 C 283.795 406.859,283.602 406.734,283.454 406.528 C 283.306 406.322,283.126 406.154,283.055 406.154 C 282.937 406.154,281.687 405.331,278.558 403.192 C 277.923 402.759,277.375 402.339,277.340 402.260 C 277.304 402.180,277.153 402.115,277.003 402.115 C 276.853 402.115,276.731 402.048,276.731 401.965 C 276.731 401.882,276.450 401.649,276.106 401.449 C 275.299 400.977,273.384 399.562,273.301 399.375 C 273.266 399.296,273.115 399.231,272.965 399.231 C 272.815 399.231,272.692 399.165,272.692 399.084 C 272.692 399.003,272.346 398.723,271.923 398.462 C 271.500 398.200,271.154 397.920,271.154 397.839 C 271.154 397.758,271.024 397.692,270.865 397.692 C 270.707 397.692,270.577 397.620,270.577 397.533 C 270.577 397.445,270.166 397.080,269.663 396.722 C 269.161 396.364,268.656 395.982,268.540 395.872 C 268.425 395.763,268.043 395.457,267.692 395.192 C 267.342 394.928,266.945 394.603,266.810 394.471 C 266.676 394.339,266.480 394.231,266.376 394.231 C 266.271 394.231,266.157 394.163,266.122 394.080 C 266.087 393.997,265.116 393.163,263.965 392.227 C 262.814 391.291,261.716 390.386,261.527 390.215 C 261.337 390.044,261.067 389.817,260.926 389.712 C 260.445 389.349,258.173 387.427,257.981 387.220 C 257.875 387.106,257.233 386.539,256.554 385.959 C 255.874 385.378,255.089 384.688,254.809 384.423 C 254.529 384.159,253.787 383.479,253.160 382.912 C 248.438 378.647,241.641 371.870,239.342 369.135 C 238.808 368.500,238.196 367.808,237.982 367.596 C 237.767 367.385,237.007 366.519,236.293 365.673 C 235.578 364.827,234.882 364.005,234.746 363.846 C 234.610 363.688,234.203 363.168,233.841 362.692 C 233.479 362.216,233.137 361.784,233.081 361.731 C 233.025 361.678,232.595 361.115,232.127 360.481 C 231.659 359.846,231.222 359.284,231.157 359.231 C 231.092 359.178,230.829 358.832,230.573 358.462 C 230.316 358.091,229.954 357.622,229.767 357.418 C 229.580 357.214,229.377 356.890,229.316 356.697 C 229.255 356.504,229.124 356.346,229.026 356.346 C 228.927 356.346,228.846 356.256,228.846 356.146 C 228.846 356.035,228.755 355.841,228.645 355.713 C 228.534 355.585,227.929 354.702,227.302 353.750 C 226.674 352.798,226.072 351.915,225.965 351.787 C 225.857 351.659,225.769 351.506,225.769 351.446 C 225.769 351.337,224.798 349.793,224.617 349.615 C 224.563 349.563,224.349 349.173,224.140 348.750 C 223.932 348.327,223.567 347.664,223.331 347.276 C 222.413 345.773,218.282 337.750,217.603 336.154 C 217.401 335.678,217.109 335.137,216.953 334.952 C 216.798 334.767,216.733 334.615,216.808 334.615 C 216.883 334.615,216.820 334.377,216.668 334.087 C 216.392 333.560,216.023 332.733,215.574 331.635 C 215.444 331.317,215.230 330.841,215.098 330.577 C 214.965 330.313,214.747 329.750,214.612 329.327 C 214.478 328.904,214.312 328.514,214.243 328.462 C 214.175 328.409,214.022 328.063,213.903 327.692 C 213.582 326.690,212.718 324.382,212.500 323.942 C 212.395 323.731,212.051 322.765,211.736 321.797 C 211.420 320.829,211.082 319.833,210.985 319.585 C 210.887 319.337,210.571 318.356,210.283 317.404 C 209.995 316.452,209.684 315.457,209.591 315.192 C 209.418 314.699,208.652 311.884,208.178 310.000 C 207.582 307.633,206.738 304.105,206.661 303.654 C 206.615 303.389,206.520 302.827,206.449 302.404 C 206.378 301.981,206.202 301.029,206.058 300.288 C 205.321 296.506,205.307 296.420,204.823 292.212 C 204.725 291.365,204.558 289.938,204.451 289.038 C 203.317 279.487,203.671 268.274,205.486 256.346 C 205.638 255.341,205.798 254.260,205.841 253.942 C 205.883 253.625,206.018 252.846,206.141 252.212 C 206.263 251.577,206.454 250.582,206.564 250.000 C 206.674 249.418,206.881 248.380,207.024 247.692 C 207.167 247.005,207.337 246.183,207.402 245.865 C 207.621 244.789,207.639 244.712,207.744 244.423 C 207.802 244.264,208.039 243.356,208.271 242.404 C 208.502 241.452,208.765 240.370,208.856 240.000 C 208.946 239.630,209.105 238.932,209.209 238.450 C 209.313 237.968,209.483 237.363,209.586 237.104 C 209.690 236.846,209.964 235.986,210.195 235.192 C 211.209 231.710,213.193 225.724,213.582 224.970 C 213.728 224.690,213.846 224.325,213.846 224.160 C 213.846 223.994,213.988 223.532,214.161 223.132 C 214.335 222.731,214.539 222.231,214.615 222.019 C 214.692 221.808,214.900 221.299,215.078 220.890 C 215.256 220.480,215.355 220.098,215.298 220.042 C 215.242 219.985,215.271 219.845,215.362 219.729 C 215.454 219.614,215.848 218.697,216.238 217.692 C 216.984 215.771,217.188 215.268,217.603 214.327 C 217.742 214.010,217.968 213.404,218.103 212.981 C 218.239 212.558,218.409 212.125,218.483 212.019 C 218.556 211.913,219.276 210.242,220.083 208.305 C 220.890 206.368,221.627 204.637,221.720 204.459 C 221.813 204.281,222.102 203.659,222.362 203.077 C 222.622 202.495,223.031 201.587,223.271 201.058 C 223.947 199.566,225.917 195.451,226.749 193.791 C 227.162 192.968,227.500 192.174,227.500 192.028 C 227.500 191.882,227.567 191.734,227.650 191.699 C 227.732 191.663,228.316 190.596,228.948 189.327 C 229.579 188.058,230.139 186.976,230.192 186.923 C 230.245 186.870,230.642 186.135,231.074 185.288 C 232.678 182.150,233.561 180.478,233.664 180.385 C 233.723 180.332,233.977 179.899,234.228 179.423 C 234.479 178.947,234.928 178.125,235.224 177.596 C 235.520 177.067,235.848 176.462,235.953 176.250 C 236.057 176.038,236.404 175.433,236.723 174.904 C 237.042 174.375,237.362 173.813,237.435 173.654 C 237.508 173.495,238.115 172.449,238.784 171.329 C 239.453 170.209,240.000 169.192,240.000 169.070 C 240.000 168.947,240.069 168.846,240.154 168.846 C 240.239 168.846,240.502 168.478,240.739 168.029 C 241.273 167.016,241.094 167.315,244.327 162.027 C 245.808 159.604,246.998 157.551,246.971 157.465 C 246.945 157.378,247.005 157.308,247.105 157.308 C 247.205 157.308,247.400 157.095,247.538 156.836 C 247.861 156.227,251.204 150.935,251.680 150.278 C 251.979 149.865,252.314 149.319,252.439 149.038 C 252.510 148.880,252.623 148.707,252.690 148.654 C 252.839 148.537,255.450 144.597,255.558 144.327 C 255.600 144.221,255.687 144.091,255.751 144.038 C 255.816 143.986,256.236 143.380,256.686 142.692 C 257.817 140.965,257.876 140.879,258.798 139.601 C 259.248 138.977,259.615 138.380,259.615 138.272 C 259.615 138.165,259.702 138.077,259.808 138.077 C 259.913 138.077,260.000 137.947,260.000 137.788 C 260.000 137.630,260.081 137.500,260.179 137.500 C 260.278 137.500,260.413 137.327,260.480 137.117 C 260.547 136.906,260.712 136.623,260.847 136.489 C 261.306 136.029,264.615 131.344,264.615 131.152 C 264.615 131.047,264.696 130.962,264.795 130.962 C 264.894 130.962,265.170 130.615,265.408 130.192 C 265.646 129.769,265.911 129.423,265.997 129.423 C 266.083 129.423,266.154 129.300,266.154 129.151 C 266.154 129.001,266.219 128.849,266.300 128.814 C 266.506 128.723,267.748 127.115,267.612 127.115 C 267.551 127.115,267.651 126.949,267.837 126.745 C 268.379 126.146,268.628 125.826,269.225 124.956 C 269.534 124.504,270.016 123.875,270.295 123.558 C 270.574 123.240,270.944 122.743,271.116 122.452 C 271.288 122.161,271.497 121.923,271.580 121.923 C 271.663 121.923,271.731 121.800,271.731 121.651 C 271.731 121.501,271.801 121.349,271.886 121.314 C 271.972 121.279,272.426 120.732,272.896 120.100 C 273.366 119.467,273.892 118.775,274.065 118.561 C 275.249 117.099,277.690 113.994,278.154 113.359 C 278.460 112.940,278.808 112.510,278.926 112.404 C 279.044 112.298,279.441 111.822,279.807 111.346 C 280.174 110.870,280.756 110.178,281.101 109.808 C 281.445 109.438,281.728 109.064,281.729 108.977 C 281.730 108.890,281.839 108.709,281.971 108.576 C 282.416 108.127,283.941 106.302,284.097 106.033 C 284.182 105.886,284.442 105.567,284.674 105.325 C 285.082 104.899,286.043 103.796,286.820 102.859 C 288.021 101.412,289.321 99.891,289.429 99.808 C 289.498 99.755,289.967 99.236,290.473 98.654 C 292.698 96.093,293.207 95.513,293.750 94.919 C 294.067 94.572,294.706 93.864,295.170 93.346 C 296.246 92.143,297.738 90.536,300.865 87.210 C 302.240 85.747,303.798 84.082,304.327 83.509 C 304.856 82.937,308.706 79.035,312.884 74.840 C 317.061 70.644,320.458 67.147,320.432 67.067 C 320.406 66.988,320.470 66.923,320.575 66.923 C 320.680 66.923,321.407 66.296,322.190 65.529 C 322.973 64.762,324.850 62.966,326.361 61.538 C 330.174 57.936,331.985 56.218,333.155 55.096 C 333.706 54.567,335.233 53.139,336.548 51.923 C 337.863 50.707,339.163 49.495,339.438 49.231 C 339.712 48.966,340.881 47.885,342.034 46.827 C 344.342 44.711,345.826 43.335,346.908 42.308 C 347.298 41.938,348.429 40.899,349.421 40.000 C 350.412 39.101,351.633 37.976,352.134 37.500 C 352.635 37.024,353.807 35.942,354.738 35.096 C 355.669 34.250,356.987 33.017,357.667 32.356 C 358.346 31.695,358.932 31.154,358.969 31.154 C 359.043 31.154,361.389 28.965,363.143 27.260 C 363.769 26.651,364.324 26.154,364.376 26.154 C 364.680 26.154,373.846 16.960,373.846 16.656 C 373.846 16.591,373.998 16.378,374.183 16.183 C 374.806 15.524,375.192 14.997,375.192 14.805 C 375.192 14.701,375.266 14.615,375.356 14.615 C 375.789 14.615,378.869 9.078,379.742 6.731 C 380.756 4.006,381.538 1.160,381.538 0.200 C 381.538 0.066,379.648 0.000,375.786 0.000 L 370.034 0.000 369.901 0.786 M10.365 57.875 C 8.000 58.308,4.038 61.493,4.038 62.961 C 4.038 63.118,3.960 63.295,3.864 63.354 C 3.768 63.414,3.542 63.960,3.362 64.568 C 3.182 65.176,2.958 65.933,2.864 66.250 C 2.771 66.567,2.708 66.870,2.726 66.923 C 2.743 66.976,2.650 67.220,2.518 67.466 C 2.167 68.122,1.211 71.734,1.020 73.126 C 0.965 73.524,0.844 73.896,0.749 73.955 C 0.654 74.013,0.577 74.275,0.577 74.537 C 0.577 74.799,0.450 75.208,0.294 75.445 C -0.206 76.209,-0.021 86.430,0.541 89.038 C 1.423 93.135,1.566 93.770,1.815 94.712 C 2.054 95.619,2.410 97.125,2.587 97.981 C 2.848 99.247,3.755 102.564,4.191 103.846 C 4.338 104.279,4.372 104.400,4.782 105.962 C 5.139 107.319,5.281 107.770,5.872 109.423 C 6.004 109.793,6.376 110.918,6.698 111.923 C 7.020 112.928,7.553 114.486,7.883 115.385 C 8.213 116.284,8.646 117.495,8.845 118.077 C 9.471 119.907,10.148 121.673,10.403 122.143 C 10.539 122.392,10.668 122.726,10.690 122.885 C 10.736 123.219,11.937 126.151,12.660 127.692 C 12.932 128.274,13.162 128.793,13.171 128.846 C 13.180 128.899,13.280 129.115,13.395 129.327 C 13.510 129.538,13.712 130.058,13.846 130.481 C 13.979 130.904,14.196 131.466,14.328 131.731 C 14.460 131.995,14.741 132.601,14.953 133.077 C 15.165 133.553,15.660 134.635,16.052 135.481 C 16.445 136.327,16.967 137.452,17.212 137.981 C 18.428 140.605,19.665 143.214,19.855 143.558 C 20.170 144.126,20.437 144.664,21.671 147.212 C 22.285 148.481,22.834 149.563,22.890 149.615 C 22.946 149.668,23.157 150.101,23.359 150.577 C 23.561 151.053,23.828 151.572,23.952 151.731 C 24.076 151.889,24.336 152.387,24.530 152.837 C 24.723 153.286,24.952 153.654,25.037 153.654 C 25.122 153.654,25.192 153.810,25.192 154.000 C 25.192 154.190,25.270 154.428,25.364 154.529 C 25.459 154.629,26.074 155.750,26.731 157.019 C 27.388 158.288,28.168 159.760,28.465 160.288 C 28.762 160.817,29.320 161.856,29.704 162.596 C 31.142 165.363,31.830 166.637,31.938 166.731 C 31.999 166.784,32.178 167.087,32.336 167.404 C 32.494 167.721,33.003 168.673,33.466 169.519 C 33.930 170.365,34.474 171.382,34.675 171.779 C 34.876 172.175,35.123 172.500,35.224 172.500 C 35.325 172.500,35.363 172.572,35.308 172.660 C 35.254 172.748,35.409 173.116,35.653 173.477 C 35.896 173.839,36.256 174.481,36.452 174.904 C 36.747 175.543,37.668 177.175,38.457 178.462 C 38.555 178.620,38.913 179.291,39.254 179.952 C 39.595 180.613,39.945 181.154,40.033 181.154 C 40.121 181.154,40.192 181.316,40.192 181.515 C 40.192 181.714,40.322 181.984,40.481 182.115 C 40.639 182.247,40.769 182.429,40.769 182.521 C 40.769 182.685,41.901 184.622,42.106 184.808 C 42.164 184.861,42.462 185.380,42.769 185.962 C 43.308 186.983,45.213 190.257,46.109 191.701 C 46.349 192.088,46.631 192.577,46.737 192.788 C 46.842 193.000,47.102 193.433,47.313 193.750 C 47.524 194.067,47.749 194.478,47.813 194.663 C 47.877 194.849,47.997 195.000,48.079 195.000 C 48.160 195.000,48.282 195.216,48.348 195.481 C 48.415 195.745,48.554 195.962,48.658 195.962 C 48.761 195.962,48.846 196.078,48.846 196.220 C 48.846 196.362,49.020 196.636,49.232 196.828 C 49.444 197.020,49.574 197.221,49.521 197.274 C 49.468 197.327,49.641 197.653,49.905 197.999 C 50.169 198.345,50.385 198.720,50.385 198.833 C 50.385 198.946,50.471 199.038,50.577 199.038 C 50.683 199.038,50.769 199.162,50.769 199.313 C 50.769 199.464,50.877 199.706,51.010 199.850 C 51.142 199.994,51.355 200.282,51.482 200.489 C 52.560 202.236,54.928 205.947,55.174 206.276 C 55.343 206.502,55.588 206.848,55.719 207.045 C 55.851 207.242,56.504 208.226,57.171 209.231 C 58.985 211.964,59.696 212.974,59.856 213.045 C 59.935 213.080,60.000 213.192,60.000 213.293 C 60.000 213.395,60.086 213.582,60.192 213.710 C 60.423 213.990,61.712 215.763,62.115 216.356 C 62.695 217.208,65.108 220.492,65.430 220.865 C 65.611 221.077,66.303 221.987,66.967 222.888 C 68.387 224.817,70.351 227.323,70.656 227.596 C 70.775 227.702,71.170 228.178,71.535 228.654 C 71.899 229.130,72.396 229.710,72.637 229.943 C 72.879 230.176,73.077 230.450,73.077 230.552 C 73.077 230.654,73.142 230.766,73.221 230.801 C 73.300 230.837,73.879 231.471,74.507 232.212 C 75.135 232.952,75.885 233.817,76.174 234.135 C 77.020 235.063,77.338 235.424,78.558 236.836 C 79.192 237.572,79.873 238.346,80.069 238.558 C 80.266 238.769,81.044 239.678,81.797 240.577 C 82.550 241.476,83.341 242.386,83.554 242.598 C 83.768 242.811,84.328 243.460,84.799 244.040 C 85.270 244.621,85.789 245.238,85.953 245.411 C 86.116 245.584,86.479 246.017,86.759 246.373 C 87.039 246.728,87.647 247.495,88.111 248.077 C 88.575 248.659,89.470 249.827,90.099 250.673 C 91.663 252.774,92.908 254.314,93.105 254.391 C 93.195 254.426,93.269 254.534,93.269 254.630 C 93.269 254.800,93.791 255.476,94.471 256.187 C 94.656 256.380,94.808 256.588,94.808 256.648 C 94.808 256.709,94.916 256.870,95.048 257.007 C 95.180 257.143,95.591 257.628,95.962 258.083 C 97.574 260.067,100.914 264.014,101.651 264.808 C 102.094 265.284,102.874 266.149,103.384 266.731 C 105.279 268.890,111.046 274.749,113.196 276.699 C 113.818 277.263,114.718 278.085,115.196 278.526 C 116.681 279.895,118.698 281.631,118.887 281.704 C 118.987 281.742,119.314 282.001,119.614 282.281 C 120.802 283.387,121.117 283.654,121.229 283.654 C 121.293 283.654,121.507 283.805,121.704 283.990 C 122.431 284.674,124.515 286.254,126.334 287.500 C 126.565 287.659,127.477 288.329,128.360 288.990 C 129.243 289.651,130.060 290.192,130.175 290.192 C 130.290 290.192,130.385 290.264,130.385 290.352 C 130.385 290.440,130.623 290.634,130.913 290.784 C 131.385 291.027,132.332 291.696,133.877 292.878 C 134.158 293.093,134.475 293.269,134.582 293.269 C 134.688 293.269,134.804 293.336,134.840 293.418 C 134.926 293.618,137.259 295.192,137.468 295.192 C 137.559 295.192,137.839 295.370,138.089 295.587 C 138.340 295.805,139.310 296.432,140.246 296.982 C 141.182 297.531,142.224 298.143,142.561 298.342 C 143.787 299.066,148.036 301.168,148.423 301.243 C 148.642 301.285,148.978 301.402,149.170 301.503 C 151.216 302.579,154.942 301.707,156.213 299.854 C 157.328 298.229,157.829 294.780,157.229 292.855 C 157.085 292.395,156.862 291.630,156.733 291.154 C 156.603 290.678,156.386 289.986,156.250 289.615 C 155.995 288.921,154.097 283.205,153.950 282.692 C 153.905 282.534,153.685 281.928,153.460 281.346 C 153.236 280.764,152.890 279.813,152.692 279.231 C 152.187 277.749,151.385 275.571,151.133 275.000 C 150.075 272.599,148.454 268.551,148.458 268.317 C 148.460 268.185,148.395 268.077,148.314 268.077 C 148.233 268.077,148.008 267.628,147.813 267.078 C 147.617 266.529,147.155 265.426,146.784 264.626 C 146.413 263.827,145.934 262.784,145.719 262.308 C 145.504 261.832,144.562 259.865,143.626 257.938 C 142.689 256.011,141.923 254.352,141.923 254.252 C 141.923 254.152,141.858 254.042,141.779 254.006 C 141.700 253.971,141.076 252.817,140.394 251.442 C 139.712 250.067,139.085 248.913,139.000 248.878 C 138.915 248.843,138.846 248.655,138.846 248.462 C 138.846 248.268,138.781 248.080,138.702 248.045 C 138.623 248.010,138.100 247.072,137.540 245.962 C 136.232 243.367,134.765 240.561,134.522 240.192 C 134.418 240.034,134.324 239.861,134.312 239.808 C 134.268 239.599,133.598 238.298,132.877 237.019 C 132.459 236.279,131.853 235.154,131.531 234.519 C 130.883 233.243,129.280 230.201,128.237 228.269 C 127.866 227.582,127.354 226.630,127.098 226.154 C 126.843 225.678,126.570 225.260,126.490 225.224 C 126.411 225.189,126.346 225.012,126.346 224.830 C 126.346 224.649,126.268 224.418,126.172 224.317 C 125.996 224.133,125.332 222.940,124.036 220.481 C 122.910 218.343,122.604 217.795,122.480 217.692 C 122.417 217.639,122.202 217.250,122.003 216.827 C 121.641 216.054,119.394 211.886,119.049 211.346 C 118.948 211.188,118.660 210.668,118.411 210.192 C 117.814 209.053,116.560 206.784,116.126 206.058 C 115.937 205.740,115.607 205.135,115.393 204.712 C 115.179 204.288,114.746 203.510,114.432 202.981 C 114.118 202.452,113.681 201.673,113.462 201.250 C 113.244 200.827,112.903 200.212,112.706 199.885 C 112.509 199.557,112.026 198.691,111.633 197.962 C 111.239 197.232,110.819 196.571,110.699 196.493 C 110.579 196.416,110.547 196.351,110.627 196.349 C 110.708 196.347,110.568 196.020,110.317 195.621 C 110.065 195.223,109.604 194.422,109.293 193.843 C 108.569 192.496,108.198 191.852,108.077 191.731 C 108.024 191.678,107.637 190.964,107.217 190.144 C 106.797 189.325,106.386 188.654,106.304 188.654 C 106.221 188.654,106.154 188.568,106.154 188.464 C 106.154 188.302,104.866 185.954,103.674 183.942 C 103.486 183.625,103.045 182.846,102.694 182.212 C 102.342 181.577,101.834 180.712,101.565 180.288 C 101.296 179.865,101.056 179.398,101.031 179.250 C 101.007 179.102,100.916 178.929,100.830 178.865 C 100.744 178.802,100.423 178.274,100.116 177.692 C 99.810 177.111,99.442 176.498,99.299 176.331 C 99.156 176.164,99.038 175.937,99.038 175.826 C 99.038 175.715,98.910 175.517,98.752 175.386 C 98.595 175.256,98.507 175.082,98.558 175.000 C 98.608 174.918,98.521 174.744,98.363 174.614 C 98.206 174.483,98.077 174.257,98.077 174.111 C 98.077 173.965,97.990 173.846,97.885 173.846 C 97.779 173.846,97.692 173.757,97.692 173.649 C 97.692 173.540,97.151 172.540,96.490 171.426 C 94.939 168.813,94.275 167.666,94.107 167.308 C 94.032 167.149,93.571 166.370,93.082 165.576 C 92.593 164.782,92.129 164.003,92.052 163.845 C 91.504 162.725,88.409 157.597,88.242 157.532 C 88.151 157.497,88.077 157.340,88.077 157.183 C 88.077 157.026,87.882 156.622,87.644 156.285 C 87.137 155.569,86.901 155.182,86.334 154.135 C 86.105 153.712,85.640 152.933,85.299 152.404 C 84.959 151.875,84.045 150.404,83.269 149.135 C 81.370 146.029,80.518 144.724,80.339 144.647 C 80.257 144.612,80.239 144.503,80.299 144.407 C 80.358 144.310,80.316 144.231,80.204 144.231 C 80.092 144.231,80.000 144.145,80.000 144.041 C 80.000 143.936,79.520 143.092,78.934 142.166 C 78.348 141.239,77.764 140.308,77.636 140.096 C 77.508 139.885,77.357 139.668,77.300 139.615 C 77.243 139.563,76.691 138.697,76.073 137.692 C 75.456 136.688,74.875 135.837,74.783 135.801 C 74.691 135.766,74.615 135.615,74.615 135.465 C 74.615 135.315,74.524 135.192,74.412 135.192 C 74.300 135.192,74.262 135.106,74.327 135.000 C 74.392 134.894,74.354 134.808,74.242 134.808 C 74.130 134.808,74.038 134.729,74.038 134.633 C 74.038 134.483,72.620 132.196,72.175 131.629 C 72.089 131.520,71.851 131.130,71.645 130.763 C 71.440 130.396,71.180 129.995,71.068 129.872 C 70.957 129.749,70.389 128.892,69.808 127.968 C 68.675 126.169,64.933 120.422,64.675 120.086 C 64.406 119.735,64.041 119.146,63.907 118.846 C 63.836 118.688,63.728 118.514,63.668 118.462 C 63.607 118.409,63.248 117.889,62.869 117.308 C 62.490 116.726,61.441 115.125,60.538 113.750 C 59.635 112.375,58.656 110.861,58.362 110.385 C 58.068 109.909,57.766 109.476,57.690 109.423 C 57.615 109.370,57.399 109.025,57.209 108.655 C 57.020 108.286,56.615 107.637,56.310 107.213 C 55.369 105.908,53.269 102.638,53.269 102.478 C 53.269 102.395,53.118 102.242,52.933 102.138 C 52.748 102.035,52.617 101.902,52.641 101.842 C 52.686 101.737,51.477 99.760,50.365 98.119 C 50.059 97.667,49.808 97.212,49.808 97.110 C 49.808 97.007,49.727 96.923,49.628 96.923 C 49.530 96.923,49.400 96.769,49.340 96.581 C 49.212 96.177,48.087 94.354,47.515 93.623 C 47.295 93.342,47.115 93.018,47.115 92.902 C 47.115 92.787,47.029 92.692,46.923 92.692 C 46.817 92.692,46.731 92.603,46.731 92.494 C 46.731 92.385,46.349 91.714,45.882 91.003 C 45.415 90.293,44.925 89.474,44.793 89.183 C 44.661 88.892,44.481 88.654,44.392 88.654 C 44.303 88.654,44.231 88.554,44.231 88.432 C 44.231 88.309,44.027 87.942,43.778 87.614 C 43.528 87.287,43.263 86.825,43.188 86.587 C 43.113 86.349,42.970 86.154,42.872 86.154 C 42.773 86.154,42.692 86.066,42.692 85.958 C 42.692 85.850,42.455 85.396,42.166 84.948 C 41.876 84.501,41.532 83.918,41.402 83.654 C 41.271 83.389,40.646 82.394,40.012 81.442 C 39.379 80.490,38.667 79.344,38.430 78.894 C 38.194 78.445,37.931 78.077,37.846 78.077 C 37.762 78.077,37.692 77.995,37.692 77.894 C 37.692 77.735,35.489 74.277,35.053 73.750 C 34.965 73.644,34.681 73.255,34.421 72.885 C 34.161 72.514,33.817 72.041,33.657 71.833 C 33.167 71.197,28.052 66.154,27.897 66.154 C 27.817 66.154,27.543 65.971,27.289 65.747 C 27.035 65.523,26.611 65.202,26.346 65.033 C 26.082 64.864,25.498 64.431,25.048 64.070 C 24.599 63.710,24.229 63.491,24.228 63.583 C 24.226 63.675,24.161 63.660,24.084 63.550 C 23.965 63.382,23.045 62.768,20.859 61.398 C 20.651 61.267,20.135 60.983,19.712 60.766 C 19.288 60.548,18.510 60.113,17.981 59.799 C 14.826 57.927,12.833 57.423,10.365 57.875 M137.885 111.335 C 134.616 111.631,131.968 112.526,129.145 114.286 C 127.205 115.496,123.846 118.370,123.846 118.821 C 123.846 118.941,123.760 119.038,123.655 119.038 C 123.550 119.038,123.216 119.380,122.913 119.799 C 122.611 120.217,122.026 120.962,121.614 121.454 C 121.202 121.947,120.865 122.430,120.865 122.528 C 120.865 122.626,120.774 122.768,120.663 122.844 C 120.007 123.288,117.232 128.373,116.629 130.234 C 116.448 130.793,116.192 131.510,116.059 131.827 C 115.763 132.535,115.355 133.968,115.265 134.615 C 115.228 134.880,115.119 135.572,115.022 136.154 C 114.781 137.603,114.751 142.826,114.978 143.865 C 115.079 144.330,115.215 145.058,115.279 145.481 C 115.427 146.455,115.705 147.345,116.540 149.519 C 116.871 150.383,117.991 152.601,118.125 152.660 C 118.204 152.696,118.269 152.796,118.269 152.883 C 118.269 153.909,123.843 160.031,126.091 161.475 C 126.390 161.667,126.802 161.976,127.007 162.162 C 127.212 162.348,127.480 162.500,127.603 162.500 C 127.725 162.500,127.980 162.671,128.169 162.880 C 128.358 163.089,128.588 163.214,128.680 163.157 C 128.771 163.101,128.847 163.124,128.848 163.210 C 128.850 163.375,130.938 164.477,132.692 165.239 C 133.883 165.756,136.317 166.512,138.444 167.026 C 140.493 167.522,147.163 167.536,149.135 167.050 C 149.346 166.998,149.909 166.865,150.385 166.754 C 152.268 166.318,155.921 164.989,156.538 164.516 C 156.697 164.395,157.130 164.147,157.500 163.966 C 157.870 163.785,158.433 163.466,158.750 163.258 C 159.067 163.050,159.478 162.828,159.663 162.764 C 159.849 162.700,160.000 162.585,160.000 162.508 C 160.000 162.432,160.195 162.280,160.433 162.172 C 161.029 161.900,163.102 160.145,164.583 158.659 C 165.883 157.355,167.693 155.208,167.929 154.691 C 168.044 154.438,168.211 154.231,168.300 154.231 C 168.389 154.231,168.462 154.138,168.462 154.026 C 168.462 153.913,168.667 153.545,168.919 153.208 C 169.715 152.142,171.963 147.404,172.038 146.635 C 172.048 146.529,172.107 146.313,172.168 146.154 C 173.736 142.092,174.057 134.118,172.769 131.221 C 172.621 130.888,172.500 130.516,172.500 130.395 C 172.500 129.674,170.099 125.384,168.538 123.317 C 165.559 119.370,160.469 115.596,155.481 113.637 C 154.902 113.409,154.144 113.207,154.060 113.257 C 154.019 113.282,153.932 113.228,153.868 113.138 C 153.713 112.922,151.396 112.255,150.000 112.026 C 149.630 111.965,148.678 111.793,147.885 111.645 C 147.091 111.497,146.313 111.374,146.154 111.371 C 145.995 111.369,144.438 111.326,142.692 111.277 C 140.947 111.227,138.784 111.254,137.885 111.335 M149.712 330.986 C 149.077 331.205,148.494 331.483,148.416 331.605 C 148.339 331.727,148.274 331.765,148.272 331.688 C 148.263 331.235,145.356 333.881,144.317 335.288 C 144.005 335.712,143.650 336.164,143.528 336.293 C 143.407 336.422,143.107 336.855,142.863 337.255 C 142.618 337.654,142.312 338.089,142.183 338.222 C 142.054 338.355,141.894 338.636,141.827 338.847 C 141.760 339.058,141.634 339.231,141.547 339.231 C 141.461 339.231,141.246 339.512,141.070 339.856 C 140.894 340.200,140.496 340.870,140.186 341.346 C 139.875 341.822,139.564 342.341,139.493 342.500 C 139.422 342.659,139.260 342.918,139.132 343.077 C 139.005 343.236,138.621 343.881,138.281 344.512 C 137.940 345.142,137.509 345.878,137.323 346.146 C 137.138 346.415,136.925 346.764,136.851 346.923 C 136.776 347.082,136.610 347.385,136.480 347.596 C 136.277 347.928,135.786 348.746,134.863 350.285 C 134.735 350.498,134.568 350.803,134.491 350.962 C 134.415 351.120,134.038 351.769,133.654 352.404 C 133.270 353.038,132.895 353.688,132.820 353.846 C 132.746 354.005,132.340 354.740,131.919 355.481 C 131.498 356.221,130.876 357.346,130.537 357.981 C 130.198 358.615,129.744 359.458,129.528 359.854 C 127.048 364.393,123.221 371.909,120.591 377.404 C 119.933 378.779,119.271 380.134,119.120 380.414 C 118.969 380.695,118.846 381.063,118.846 381.232 C 118.846 381.400,118.765 381.538,118.667 381.538 C 118.568 381.538,118.429 381.733,118.357 381.971 C 118.227 382.399,116.570 385.967,116.042 386.953 C 115.892 387.233,115.769 387.591,115.769 387.747 C 115.769 387.902,115.635 388.141,115.472 388.276 C 115.309 388.412,115.219 388.639,115.274 388.781 C 115.328 388.923,115.289 389.038,115.186 389.038 C 115.084 389.038,115.000 389.130,115.000 389.242 C 115.000 389.354,114.654 390.161,114.231 391.035 C 113.808 391.909,113.462 392.675,113.462 392.737 C 113.462 392.799,113.151 393.529,112.772 394.358 C 112.393 395.187,111.873 396.322,111.618 396.880 C 111.363 397.438,111.154 397.941,111.154 397.998 C 111.154 398.054,110.931 398.593,110.658 399.195 C 110.385 399.796,110.093 400.462,110.009 400.673 C 109.925 400.885,109.620 401.570,109.330 402.196 C 109.040 402.822,108.784 403.428,108.760 403.542 C 108.713 403.774,108.434 404.439,107.787 405.865 C 107.547 406.394,106.983 407.736,106.533 408.846 C 106.084 409.957,105.519 411.298,105.279 411.827 C 105.039 412.356,104.696 413.178,104.518 413.654 C 104.339 414.130,104.081 414.779,103.944 415.096 C 103.806 415.413,103.603 415.889,103.492 416.154 C 103.381 416.418,103.100 417.067,102.867 417.596 C 101.340 421.069,99.485 425.792,99.316 426.635 C 99.274 426.846,99.116 427.322,98.965 427.692 C 96.623 433.428,98.127 437.281,103.732 439.902 C 106.866 441.368,108.815 441.696,115.865 441.943 C 118.827 442.046,122.541 442.181,124.118 442.241 C 127.051 442.354,128.086 442.256,131.731 441.521 C 134.271 441.008,134.853 440.861,135.311 440.616 C 135.530 440.499,135.918 440.363,136.172 440.315 C 136.427 440.266,137.413 439.901,138.365 439.502 C 139.919 438.852,140.623 438.496,141.834 437.748 C 142.042 437.619,142.579 437.323,143.029 437.089 C 143.478 436.854,143.846 436.591,143.846 436.504 C 143.846 436.417,143.936 436.346,144.047 436.346 C 144.247 436.346,144.509 436.161,145.206 435.529 C 145.410 435.344,145.622 435.192,145.678 435.192 C 145.734 435.192,146.102 434.912,146.496 434.569 C 147.577 433.627,151.027 430.192,150.891 430.192 C 150.826 430.192,151.032 429.945,151.348 429.643 C 151.664 429.340,151.923 428.994,151.923 428.873 C 151.923 428.753,152.010 428.654,152.115 428.654 C 152.221 428.654,152.308 428.524,152.308 428.365 C 152.308 428.207,152.389 428.077,152.488 428.077 C 152.725 428.077,154.601 425.218,155.566 423.386 C 157.086 420.501,158.339 417.028,159.425 412.692 C 159.518 412.322,159.781 411.284,160.009 410.385 C 160.238 409.486,160.458 408.505,160.499 408.206 C 160.540 407.907,160.622 407.582,160.683 407.484 C 160.743 407.387,160.866 406.896,160.956 406.394 C 161.046 405.892,161.169 405.308,161.229 405.096 C 161.289 404.885,161.506 403.933,161.711 402.981 C 162.123 401.065,162.503 399.392,162.957 397.495 C 163.122 396.805,163.312 395.896,163.379 395.476 C 163.445 395.055,163.537 394.650,163.583 394.575 C 163.629 394.501,163.837 393.679,164.045 392.749 C 164.254 391.819,164.463 390.928,164.510 390.769 C 164.557 390.611,164.728 389.918,164.890 389.231 C 165.432 386.936,166.171 384.139,166.338 383.750 C 166.466 383.450,166.894 381.970,167.031 381.346 C 167.043 381.293,167.105 381.120,167.170 380.962 C 167.234 380.803,167.373 380.370,167.478 380.000 C 167.582 379.630,167.938 378.591,168.268 377.692 C 168.598 376.793,168.942 375.841,169.033 375.577 C 169.203 375.076,170.082 372.880,170.379 372.212 C 171.456 369.786,171.331 365.823,170.081 362.766 C 169.591 361.566,168.805 359.912,168.675 359.808 C 168.609 359.755,168.296 359.192,167.980 358.558 C 167.663 357.923,167.095 356.885,166.718 356.250 C 166.341 355.615,165.661 354.404,165.206 353.558 C 164.752 352.712,164.260 351.883,164.113 351.716 C 163.966 351.549,163.846 351.362,163.846 351.300 C 163.846 351.155,162.289 348.395,162.136 348.269 C 162.072 348.216,161.635 347.394,161.165 346.442 C 160.696 345.490,160.241 344.683,160.156 344.647 C 160.070 344.612,160.000 344.478,160.000 344.350 C 160.000 344.221,159.692 343.515,159.315 342.779 C 158.939 342.044,158.152 340.274,157.567 338.846 C 156.982 337.418,156.382 335.966,156.233 335.618 C 156.084 335.271,155.962 334.857,155.962 334.697 C 155.962 334.538,155.798 334.087,155.598 333.694 C 155.397 333.302,155.225 332.894,155.214 332.788 C 155.049 331.202,151.994 330.202,149.712 330.986 " stroke="none" fill="#b40c04" fill-rule="evenodd"></path><path id="path1" d="M173.523 137.115 C 173.523 137.803,173.558 138.084,173.601 137.740 C 173.643 137.397,173.643 136.834,173.601 136.490 C 173.558 136.147,173.523 136.428,173.523 137.115 M203.711 275.385 C 203.711 275.966,203.748 276.204,203.792 275.913 C 203.836 275.623,203.836 275.147,203.792 274.856 C 203.748 274.565,203.711 274.803,203.711 275.385 M203.709 278.750 C 203.710 279.279,203.748 279.472,203.792 279.180 C 203.836 278.888,203.835 278.455,203.789 278.219 C 203.744 277.982,203.707 278.221,203.709 278.750 M171.591 291.923 C 171.591 292.399,171.628 292.594,171.674 292.356 C 171.720 292.118,171.720 291.728,171.674 291.490 C 171.628 291.252,171.591 291.447,171.591 291.923 M171.583 301.923 C 171.583 302.293,171.623 302.445,171.671 302.260 C 171.719 302.075,171.719 301.772,171.671 301.587 C 171.623 301.401,171.583 301.553,171.583 301.923 " stroke="none" fill="#b80c04" fill-rule="evenodd"></path><path id="path2" d="M173.523 137.115 C 173.523 137.803,173.558 138.084,173.601 137.740 C 173.643 137.397,173.643 136.834,173.601 136.490 C 173.558 136.147,173.523 136.428,173.523 137.115 M203.711 275.385 C 203.711 275.966,203.748 276.204,203.792 275.913 C 203.836 275.623,203.836 275.147,203.792 274.856 C 203.748 274.565,203.711 274.803,203.711 275.385 M203.709 278.750 C 203.710 279.279,203.748 279.472,203.792 279.180 C 203.836 278.888,203.835 278.455,203.789 278.219 C 203.744 277.982,203.707 278.221,203.709 278.750 M171.591 291.923 C 171.591 292.399,171.628 292.594,171.674 292.356 C 171.720 292.118,171.720 291.728,171.674 291.490 C 171.628 291.252,171.591 291.447,171.591 291.923 M171.583 301.923 C 171.583 302.293,171.623 302.445,171.671 302.260 C 171.719 302.075,171.719 301.772,171.671 301.587 C 171.623 301.401,171.583 301.553,171.583 301.923 " stroke="none" fill="#b80c04" fill-rule="evenodd"></path><path id="path3" d="M173.523 137.115 C 173.523 137.803,173.558 138.084,173.601 137.740 C 173.643 137.397,173.643 136.834,173.601 136.490 C 173.558 136.147,173.523 136.428,173.523 137.115 M203.711 275.385 C 203.711 275.966,203.748 276.204,203.792 275.913 C 203.836 275.623,203.836 275.147,203.792 274.856 C 203.748 274.565,203.711 274.803,203.711 275.385 M203.709 278.750 C 203.710 279.279,203.748 279.472,203.792 279.180 C 203.836 278.888,203.835 278.455,203.789 278.219 C 203.744 277.982,203.707 278.221,203.709 278.750 M171.591 291.923 C 171.591 292.399,171.628 292.594,171.674 292.356 C 171.720 292.118,171.720 291.728,171.674 291.490 C 171.628 291.252,171.591 291.447,171.591 291.923 M171.583 301.923 C 171.583 302.293,171.623 302.445,171.671 302.260 C 171.719 302.075,171.719 301.772,171.671 301.587 C 171.623 301.401,171.583 301.553,171.583 301.923 " stroke="none" fill="#b80c04" fill-rule="evenodd"></path><path id="path4" d="M173.523 137.115 C 173.523 137.803,173.558 138.084,173.601 137.740 C 173.643 137.397,173.643 136.834,173.601 136.490 C 173.558 136.147,173.523 136.428,173.523 137.115 M203.711 275.385 C 203.711 275.966,203.748 276.204,203.792 275.913 C 203.836 275.623,203.836 275.147,203.792 274.856 C 203.748 274.565,203.711 274.803,203.711 275.385 M203.709 278.750 C 203.710 279.279,203.748 279.472,203.792 279.180 C 203.836 278.888,203.835 278.455,203.789 278.219 C 203.744 277.982,203.707 278.221,203.709 278.750 M171.591 291.923 C 171.591 292.399,171.628 292.594,171.674 292.356 C 171.720 292.118,171.720 291.728,171.674 291.490 C 171.628 291.252,171.591 291.447,171.591 291.923 M171.583 301.923 C 171.583 302.293,171.623 302.445,171.671 302.260 C 171.719 302.075,171.719 301.772,171.671 301.587 C 171.623 301.401,171.583 301.553,171.583 301.923 " stroke="none" fill="#b80c04" fill-rule="evenodd"></path></g></svg>