<?xml version="1.0" encoding="utf-8"?>
<!-- Generator: Adobe Illustrator 22.0.1, SVG Export Plug-In . SVG Version: 6.00 Build 0)  -->
<svg version="1.1" xmlns="http://www.w3.org/2000/svg" xmlns:xlink="http://www.w3.org/1999/xlink" x="0px" y="0px"
	 viewBox="50 65 710 700" style="enable-background:new 0 0 800 800;" xml:space="preserve">
<style type="text/css">
	.st0{clip-path:url(#XMLID_3_);fill:#F75758;}
	.st1{clip-path:url(#XMLID_3_);fill:#DFE7AC;stroke:#F75758;stroke-miterlimit:10;}
	.st2{clip-path:url(#XMLID_3_);fill:#DFE7AC;}
	.st3{clip-path:url(#XMLID_3_);fill:#6DCEAE;}
	.st4{clip-path:url(#XMLID_3_);fill:#FFD01F;}
	.st5{clip-path:url(#XMLID_3_);fill:#E56ADB;}
	.st6{clip-path:url(#XMLID_3_);fill:#FFC0AD;}
	.st7{clip-path:url(#XMLID_3_);fill:#FF7543;}
</style>
<g id="Background">
</g>
<g id="Objects">
	<g>
		<defs>
			<path id="XMLID_1_" d="M425.9,381.4c3.6-3.9,21.3-11.5,42.5-31.5c21.2-20,37-35.7,42.5-45.4c5.4-9.7,12.1-15.7,4.9-52.1
				c0,0,21.8-45.4,26.7-61.1c4.8-15.7,11.5-32.1,15.1-40.6c3.6-8.5,10.9-35.1,11.8-39.7c0.9-4.5,3.6-16.6,6.1-16.6
				c2.4,0,10,0.9,13.6,1.2c3.6,0.3,13,3,16,3.3c3,0.3,1.2-3.3-4.5-5.8c-5.8-2.4-12.1-4.2-7-6.7c5.1-2.4,16.3-3.9,19.4-3.6
				c3,0.3-2.4-6.4-11.8-6.7c0,0,3-2.7,7-5.1c3.9-2.4,1.8-3.6-3.3-1.5c-5.1,2.1-8.8,5.4-13.9,6.7c-5.1,1.2-14.8,3.9-21.2,7
				c-6.4,3-11.2,18.8-14.5,24.2c-3.3,5.4-13,22.7-17.6,29.1c-4.5,6.4-6.7,18.8-8.5,27.2c-1.8,8.5-8.5,25.4-10,30.9
				c-1.5,5.4-21.8,30-21.8,30s-5.4-12.1-6.4-18.5c-0.9-6.4,4.2-14.5,10.3-17.3c6.1-2.7,7.5-4.6,7.5-7.3s-1.8-2.9-2-4.7
				c-0.2-1.8,0.2-2.9,0.2-2.9h-2.6c0,0,1.5-3.9,0.8-5c0,0-2.9-1.1-4.2-2.6c0,0,2.4-4.4,2-5.3c-0.5-0.9-1.8-0.1-7-1.3
				c-5.1-1.2-6.7-3.8-8.5-6.4c-1.8-2.6-7.6-10-18.8-13c-11.2-3-22.9,2.7-29.1,8c-6.2,5.3-12.4,16.6-13.3,25.4c0,0-4.8,1.8-5.9,8.6
				c-1.1,6.8,4.5,22.9,20,18.3c0,0,4.4,7.7,12.3,9.1c7.9,1.4,5.6,5.4,4.1,7.1c-1.5,1.7-17.3-7.3-17.3-7.3s-32.9-16.7-43.4-25
				c-10.5-8.3-20.4-17.4-24.4-21.8c-4-4.4-35.1-24.6-42-28.9c-6.9-4.2-24-18.2-26.4-19.8c-2.4-1.6-26.4-3-33.5-3.4
				c-7.1-0.4-29.1,1.4-28.9,2.8c0.2,1.4,13.7,2.6,13.7,2.6s-11.9,6.7-14.1,8.1c-2.2,1.4,1.4,3.4,7.5,3.8c6.1,0.4,14.5-2.4,18.4-2.8
				c3.8-0.4,12.9-0.2,7.9,2c-5,2.2-12.9,9.3-12.1,12.1c0.8,2.8,4.8-2.2,9.1-4s12.9-5,15.1-5.9c2.2-0.8,6.1-4,9.5-3
				c3.4,1,16.3,18,23.4,23.8c7.1,5.9,36.9,28.7,40,32.3c3,3.6,35.7,34.3,46,42.2c10.3,7.9,21,18.6,22.6,31.5c1.6,12.9,4,35.3,0,37.7
				c-4,2.4-18.4-1.3-28.4-0.1c-10,1.2-28.1,3.9-35.4,3.3c-7.3-0.6-51.2-13-59.6-16c-8.5-3-50.2-18.5-58.1-20.6
				c-7.9-2.1-29.7-9.1-46.9-12.4c-17.3-3.3-53.3-8.5-57.8-10.6c-4.5-2.1-10.7-6.1-22.1-13c-18.9-11.4-44.8-26-50.8-13.9
				c-4.5,9,8.2,17.6,12.6,20.6c27.9,18.5,47,19.5,56.8,23.5c8.5,3.4,39,23.7,57.8,30.7c9.7,3.6,36.2,9.1,48.9,15.8
				c12.7,6.7,47.2,21.8,64.5,30.3c17.3,8.5,49.9,20.6,52.4,27.2c2.4,6.7,5.8,58.1,7.3,75.4c1.5,17.3,4.8,61.1,3.3,68.1
				c-1.5,7-9.4,37.2-0.3,65.4c9.1,28.1,23.9,56,20.6,60.2c-3.3,4.2-14.2,14.2-7.3,23.9c7,9.7,13,15.4,10.6,26.9
				c-2.4,11.5-2.1,21.5,4.8,21.5c7,0,11.1-12,12.6-20.5c3.8-20.8-3.2-54.6-4.4-66.7c-1.2-12.1-6.7-67.2-7-75.7
				c-0.3-8.5,2.4-17.9,4.5-23.6c2.1-5.8,3.9-26,6.1-33.6c2.1-7.6,9.4-40.3,8.5-56C419.9,408.3,422.3,385.3,425.9,381.4z"/>
		</defs>
		<clipPath id="XMLID_3_">
			<use xlink:href="#XMLID_1_"  style="overflow:visible;"/>
		</clipPath>
		<path class="st0" d="M531.6,138.8c-13.3,3.9-25.6,10.8-37.9,17.1c-12.4,6.4-24.6,13.1-36.8,19.9c-12,6.7-24,13.5-35.6,20.9
			c-10.5,6.7-19.8,15.1-30,22.2c-1.7,1.2-1.2,4.5,1.3,4.2c11.8-1.5,21.7-8.5,31.7-14.3c11.8-6.8,23.9-13.2,35.9-19.6
			c12.3-6.6,24.7-12.9,37.3-19.1c13.1-6.5,27-11.9,39.3-19.8C542.8,146.5,538.6,136.8,531.6,138.8z"/>
		<path class="st0" d="M677.6,385.3c-8.1-0.9-15.7,0.1-23.7,1.5c-8.8,1.5-17.7,2-26.6,3.1c-17.8,2.1-35.6,3.8-53.3,6.4
			c-36,5.2-72,10.8-107.9,17c-71.4,12.2-142.1,28-212.4,45.4c-8.3,2.1-16.6,4.2-24.8,6.4c32-13.5,64.6-25,97.1-37.2
			c67-25.1,134.7-48.4,202.7-70.6c25.1-8.2,50.1-16.5,75.2-24.6c11.4-3.7,22.7-8,34.2-11.3c8.5-2.5,18.3-4.4,24.5-11.3
			c4.5-4.9,2.6-15.1-4.9-15.9c-32-3.7-63.7,4-94.8,11c-33.5,7.6-67.3,14-100.6,22.2c-69,16.9-137.1,37.3-205.9,55.1
			c-17.3,4.5-34.6,8.7-52.1,12.6c-12.7,2.8-25.5,5.1-38,8.6c-9.7,2.7-19.5,5.2-29.5,6.6c-1.3,0.2-2.7,0.3-4,0.5
			c6-2.9,12-5.8,17.9-8.7c15.4-7.7,31.2-14.3,46.8-21.7c31.6-14.9,63.9-28.3,96.5-40.9c66.1-25.7,133.3-48.7,200.1-72.6
			c17.4-6.2,34.8-12.6,52.2-19c16-6,31.9-12.8,48.1-18.2c11-3.7,22.1-6.6,32.8-11.1c10.2-4.3,21.9-10.1,26.9-20.7
			c2.3-5,0.5-9.8-4-12.7c-11.4-7.4-26.3-6.4-39.3-5.8c-16.1,0.8-32.2,1.6-48.3,3.2c-35.8,3.5-71.6,8-107.2,12.9
			c-71.9,10-143.2,23.2-214,39c-40.2,9-80.3,18.5-120.3,28.1c-1.6,0.4-3.1,0.8-4.6,1.2c28.8-10.8,57.9-20.6,87.2-30
			c68.1-21.7,137.3-39.6,206.1-58.8c44.6-12.4,89.1-25,133.4-38.3c21.8-6.5,43.6-13.1,65.2-20c9-2.9,18-6,26.9-9.4
			c8-3.1,16.1-7.5,18.3-16.4c1-3.9-1.1-8.3-4.7-10.1c-11.9-6.1-26.1-4.9-39-3.6c-16.9,1.7-34.1,1.8-51,3.2
			c-35.9,2.8-71.5,6.9-107.1,11.9c-35.2,4.9-70.3,10.5-105.2,16.7c22.6-8.4,45.2-16.8,67.8-25.2c14.7-5.5,29.1-11.7,43.4-18.2
			c9.3-4.2,2.2-18.9-7.2-16c-33.8,10.5-66.7,23.4-99.8,35.9c-33,12.5-65.9,25.2-98.5,38.5c-6.1,2.5-12.1,5-18.1,7.5
			c-33.9,7.6-67.5,16.3-101,25.3c-17.2,4.7-34.6,8.9-51.4,14.8C66,177,50.1,183.5,33.3,184c-6.5,0.2-6.1,10.1,0.4,10.1
			c15.8,0,31-5,45.8-9.9c16.1-5.3,32.4-9.3,48.9-13.3c11.8-2.9,23.6-5.8,35.4-8.7c-2.9,1.3-5.8,2.7-8.7,4
			c-30.8,14.4-62.4,28.4-90.6,47.8c-5.3,3.6-11.1,7.2-15.6,11.7c-4.1,4.1-8.2,9.4-14.1,10.8c-4,0.9-2.4,6.3,1.1,6.6
			c6.6,0.5,12.2-2.9,17.5-6.4c7.1-4.7,14.5-8.8,21.9-12.8c14.8-8,29.6-15.9,45-22.7c32.1-14,64-28.3,96.4-41.7
			c16.4-6.8,32.8-13.4,49.3-19.8c59.6-11.8,119.5-21.5,179.8-29.6c35-4.6,69.9-8.5,105.1-11.3c17.8-1.4,35.5-2.5,53.3-3.1
			c3.7-0.1,7.7-0.6,11.8-1c-4.3,1.5-8.6,2.9-13,4.3c-16.9,5.3-33.9,10.2-50.8,15.3c-34.6,10.4-69.3,20.5-104,30.3
			c-69.1,19.5-138.6,37.5-207.4,58c-41.9,12.5-83.6,26-124.6,41.1c-20.5,7.6-41.1,15.1-61.4,23.1c-9.9,3.9-19.8,9.1-30.1,12
			c-8.4,2.3-17.2,5-23.2,11.7c-5.5,6.2-1,15.9,7.2,15.8c33.5-0.3,64.9-13,97-20.7c35-8.5,70.1-16.9,105.2-25
			c70.6-16.3,141.4-30.7,213-41.7c39.4-6.1,79-10.3,118.5-15.3c19.5-2.5,39.2-4.1,58.8-5.1c8-0.4,17.8-1.9,26.7-1
			c-3.5,1.9-7.2,3.5-11,4.9c-9.7,3.7-19.8,6.3-29.6,9.7c-15.6,5.3-30.8,11.9-46.2,17.6c-16.7,6.2-33.4,12.3-50.2,18.3
			c-66.8,23.9-134,47-200.2,72.5c-34.1,13.2-67.9,27.3-101,42.8c-16.2,7.6-32.7,14.6-48.7,22.5c-7,3.5-14,6.9-21,10.2
			c-6.8,3.3-13.7,7.3-18.4,13.4c-3.2,4.1-3.6,9.7,0.5,13.5c7.4,6.9,18.2,7.7,27.9,7.2c11.2-0.5,22.4-3,33.2-5.8
			c10-2.5,19.9-5.2,30-7.3c17.5-3.6,34.9-7.7,52.2-12c69-17.1,137.1-37.6,206-55.1c35.3-8.9,70.8-16.2,106.3-23.8
			c4.9-1,9.8-2.2,14.7-3.3c-2.2,0.7-4.3,1.4-6.5,2.1c-34.1,11.1-68.1,22.3-102,33.8c-67.4,22.8-134.6,46.6-201,72.1
			c-24.4,9.4-48.4,19.7-72.4,30.3c-17.2,7.6-37.6,10.9-48.9,27.5c-4.5,6.5,2.5,14,8.9,14.2c30.9,1,60.5-13.2,89.9-20.6
			c34.9-8.8,70-17.1,105.2-25c70.8-15.9,142.2-28.3,214-39c5.6-0.8,11.2-1.6,16.8-2.3c-30.8,8.9-61.3,19-91.5,29.8
			c-67,23.9-133.1,50.6-199,77.1c-34.6,13.9-68.8,28.8-103.1,43.5c-8.5,3.6-17,7.3-25.4,11c-7.5,3.3-15.1,7.3-22.9,9.9
			c-10.5,3.5-23.9,6.9-31.6,15.5c-7.4,8.3,0.8,18.9,10.6,17.1c34.4-6.3,67.7-18.1,101.4-27.4c34.6-9.5,69.4-18,104.2-26.5
			c34.5-8.4,68.8-17.1,103.4-24.8c16.8-3.8,33.7-7.4,50.6-10.8c-31.2,13.2-62.4,26.6-93.1,41c-32.3,15.2-63.8,32.2-95.2,49.1
			c-13.4,7.2-26.5,14.8-40.2,21.2c-11.9,5.6-23.4,11.7-33.1,20.6c-3.7,3.4-6.8,7.6-9.3,11.9c-3.9,6.9,1.5,13.8,7.2,17.3
			c7.5,4.5,18.5,3.3,26.7,2.4c26.5-3,53-7.1,79.4-11.8c30-5.3,59.9-10.6,90-15.3c12.4-1.9,24.7-3.6,37.1-5.3
			c-1.1,0.4-2.2,0.8-3.3,1.2c-11.3,4.1-21.8,10.3-32.5,15.9c-16.1,8.5-32.2,17-48.2,25.7c-19.4,10.5-38.7,21.1-58.3,31.3
			c-15.4,8-32,15.9-45.1,27.6c-3.5,3.1-6.2,7.6-5.9,12.4c0.7,12.8,18.6,13.4,21.5,3c0.2-0.2,0.4-0.3,0.5-0.5c-0.5,0.5,2.4-1.8,3-2.2
			c1.8-1.3,3.7-2.5,5.5-3.7c7.9-5,16.1-9.5,24.3-13.9c16.8-9,33.7-17.9,50.4-26.9c16-8.7,32.1-17.3,48.2-25.9
			c7.7-4.1,15.4-8.1,23.1-12.2c3.8-2,7.7-4,11.6-6c2.6-1.3,2.8-1.7,4.7-2.3c7.2-2.5,14.4-5.2,21.4-8.2c8.7-3.7,17.9-7.5,25.3-13.5
			c4-3.2,7.9-7,8.9-12.3c1.1-6.1-2.3-11.4-8.3-13.1c-10.7-3-21.8-2-32.6-0.4c-11.8,1.7-23.5,3.3-35.3,5c-27,4-53.9,8.5-80.8,13.2
			c-26.7,4.6-53.3,9.8-80.2,13.3c-6.1,0.8-12.3,1.3-18.4,2.3c-0.3,0.1-0.6,0.1-0.9,0.1c1.5-0.3-1.2,0.2-1.5,0.2
			c-1.9,0.3-3.8,0.5-5.7,0.7c-0.2,0-0.5,0-0.7,0.1c4.6-3.1,9.8-5.8,14.4-8.2c12.4-6.3,24.8-12.3,37.1-19.1
			c31.3-17.2,62.8-34.3,95-49.8c31.7-15.3,64-29.3,96.5-43c11.6-4.9,23-9.4,34.9-13.2c10.7-3.4,21.9-7.5,30.5-14.9
			c3.7-3.2,6.5-7.3,7.6-12.1c1.5-6.2-2.7-11-8.2-12.9c-12.2-4.2-26-1.8-38.3,0.8c-12.3,2.6-24.2,7.2-36.5,9.7
			c-34.8,7.1-69.4,15-104,23.4c-40.9,10-81.8,20.1-122.5,31c17.2-7.3,34.4-14.6,51.7-21.6c65.9-26.7,132-53.4,198.9-77.5
			c33.8-12.2,68-23.4,102.6-33.2c14.8-4.2,29.6-8,44.5-11.8c14.9-3.7,29.8-8.3,42.9-16.3C687.3,399.1,686.5,386.3,677.6,385.3z"/>
		<path class="st1" d="M626.5,445.5c-5.1,16.1-11.5,32.2-17.9,47.8c-4.5,11-9.1,22.8-15.5,33c-1.7,2.7-4.8,6.8-8.3,7.2
			c-3.6,0.5-5.5,0.1-8.4-1.4c-5.9-3.1-10.6-10.8-14.1-17.3c-8.3-15.7-12.6-33.8-16.2-51c-6-28.7-8.5-58-9.4-87.3
			c-1.8-58.9,4.1-117.6,10.4-176c3.2-29.4,6.8-58.7,11-88c2.1-14.9,4.3-29.7,6.4-44.6c2.1-15.2,4.5-31.1,3.7-46.4
			c-0.4-7.4-10.1-7.6-12.2-1.1c-22.3,66.5-46.3,132.4-60.9,201.2c-12,56.3-20.1,113.4-25.7,170.8c-1.4-27.6-2.5-55.3-3.2-83
			c-1.8-70.3,0.7-141.2-7-211.2c-1-8.9-1.7-18-3.9-26.7c-1-4.1-6.6-2.6-6.7,1.1c0,0,0,0-0.1,0c-0.1,16.8,1.9,33.8,2.7,50.5
			c0.8,17.3,1.1,34.7,1.3,52c0.3,35.4-0.4,70.9-0.3,106.3c0.2,72.6,1,145.6,8.2,217.9c0.1,1.5,0.3,3,0.5,4.4
			c-0.1,1.5-0.1,2.9-0.1,4.4c0.1,5.6,0.1,11.2-0.1,16.8c-0.2,5.3-0.7,10.5-2.2,15.6c0,0.1,0,0.1-0.1,0.2c-5.9-5.4-9.7-14.8-13.4-22
			c-31-59.8-42.3-125.4-45.6-192.1c-4.6-91.7,4.2-183.7,6.7-275.4c0.2-7.1-10.1-9-13.1-3c-6.9,13.8-11.7,28.5-16.2,43.2
			c-4.7,15.2-9.8,30-15.9,44.8c-13.4,32.3-27.1,64.4-38.2,97.5c-11,32.8-18.5,66.6-23.5,100.8c-2.5,17-4.4,34.2-5.9,51.3
			c-1.2,14.4-0.9,28.7-1.4,43c-0.2,5-0.6,10.1-1.5,15.1c-2.5-4.6-4-9.4-5.9-15.3c-5.4-17.3-8.9-35.3-12-53.2
			c-6.3-35.7-11.2-71.5-15-107.7c-3.1-29.7-5-59.5-6.1-89.3c-1-25.4,6.7-51.2,0.5-76.3c-0.9-3.6-5.4-6.2-9-4.8
			c-17.2,6.6-21.2,31.4-26,46.9c-8.3,27-13.8,54.8-17.9,82.7c-2,14.1-5.2,28-7.3,42.1c-2.3,14.9-4.3,29.8-6,44.7
			c-1.5,13.2-2.9,26.5-3.9,39.8c-0.3,4.4-0.2,9.7-0.9,14.8c-0.1-0.4-0.2-0.7-0.3-1c-1.7-6.1-3.1-12.3-4.6-18.4
			c-4.1-17.3-7-34.8-9.8-52.4c-2.9-17.6-6-35.2-9-52.8c-3.1-17.9-6.5-35.7-10.7-53.3c-3.4-14.5-6.8-30.7-14.8-43.5
			c-1.7-2.7-4-5.4-6.9-6.8c-6.4-3.1-10.8,1-14,6.5c-4.3,7.5-5.5,16.6-6.6,25c-1.5,10.5-3,21-4.1,31.6c-2.1,20.6-5,41.8-4.4,62.5
			c0.2,8.3,1,17.8,0.3,26.9c-4.1-14.8-5.3-30.6-7.8-45.4c-4.3-25.8-15.9-49.6-24.8-73.9c-1.8-5-9.7-4.1-9.4,1.6
			c0.1,2.8,0.4,5.2,1.5,7.8c0.3,0.8,0.8,1.5,1.4,1.9c7.3,22.5,15.6,44.7,18.8,68.2C78.8,275.4,80,299,91,319.5
			c2.9,5.3,10.2,4.1,12.9-0.5c6.3-10.5,6.9-23.6,7-35.5c0.2-13.1-0.9-25.9,0.2-39c1.4-17.7,2.4-35.4,4.5-53.1
			c0.8-6.6,1.8-13.3,2.7-19.9c0.7-4.9,1.5-9.9,3.1-14.5c0.3,0.5,0.7,1.5,0.7,1.4c3,6.8,5.1,14,7,21.2c4.9,18,8.4,36.4,11.6,54.8
			c3.4,19.4,6.6,38.5,9.7,58.5c3.2,20.9,6.3,41.9,11.1,62.6c3,13,4.8,29.8,16.9,37.6c2.8,1.8,7.4,0.9,9.5-1.6
			c6.7-8.3,8.1-18.4,8.9-28.7c0.9-11.7,1.6-23.3,2.7-34.9c2.9-28.5,6.9-56.8,11.9-85c4.9-27.3,9-54.6,16.1-81.4
			c2.8-10.6,6.1-21,9.4-31.4c0.8-2.6,1.9-6.7,3.5-10.5c0.8,10.4-0.4,21.1-1,31.2c-1.1,16.4-0.2,32.8,0.3,49.3
			c1.2,35.5,3.8,71,8,106.3c3.6,30.6,7.6,61.2,13.4,91.5c3,15.5,6.3,31.3,12,46c3.5,8.8,9.9,23,21.6,21.7c2.7-0.3,5.6-1.6,6.8-4.3
			c5.6-13.2,6.1-27.5,6-41.7c-0.1-15,0.2-29.8,1.4-44.7c2.7-34.4,8.5-68.6,17-102c8.7-34,21.4-66.6,34.8-99
			c6.5-15.7,13.5-31.3,19.5-47.2c4.1-10.6,7.4-21.4,10.6-32.3c-2.3,58.1-7,116.1-7.8,174.3c-0.9,69.3,3,140.2,24.9,206.5
			c5.2,15.9,11.9,31.3,19.5,46.1c4.2,8.2,8.2,16.7,13.6,24.2c5.3,7.3,14.7,16.3,24.4,10.5c7.7-4.6,9.4-14.7,10.1-23.7
			c1.3-1.2,2.2-3,2-5.4c-0.5-7.1-1-14.3-1.5-21.4c0.2-5.8,0.7-11.6,1.1-17.4c1.2-17.7,2.1-35.4,3.3-53.1
			c2.5-35.6,6.2-71.2,10.9-106.6c6.9-52.1,16.2-104.1,30-154.9c8.8-32.3,19.2-64.1,29.4-95.9c-2.5,17.1-5.1,34.2-7.5,51.3
			c-4.9,34.4-8.6,68.9-12.3,103.5c-7.2,68.5-12.6,137.9-3.8,206.5c2.4,18.5,5.7,37,10.9,55c4.8,16.8,11.5,36.1,25,47.9
			c6.1,5.3,14,8.4,22.1,7.5c11.8-1.4,18.8-10.5,23.7-20.6c5.4-10.9,9.5-22.8,13.6-34.3c5.4-15.3,8.7-31.1,13.5-46.5
			C638.2,441.6,628.5,439.5,626.5,445.5z"/>
		<path class="st2" d="M436.1,732.5c-0.5-8.6-1.8-17.1-3.2-25.6c-2.7-17.2-5.6-34.3-9-51.3c-7-34.9-15.2-69.5-24.9-103.7
			c-6.1-21.7-13.2-43-20.7-64.3c-6.5-18.3-14.8-38.3-29-52c-2.7-2.6-6.8-0.9-7.8,2.4c-3.3,11.2,3.2,24.9,6.5,35.6
			c4.6,15.2,9.2,30.4,13.8,45.6c1.2,3.9,7.2,2.1,6.1-1.8c-3.8-13.2-7.5-26.4-11.3-39.6c-1.8-6.5-3.9-12.9-5.2-19.5
			c-0.2-1.1-0.5-2.2-0.8-3.3c5,8.7,9.3,17.6,12.9,27.3c5.9,16.1,10.9,32.6,15.6,49c9.7,34.1,17.3,68.8,24.5,103.5
			c3.6,17.5,7,35.1,9.8,52.8c2.6,16.3,5.4,32.9,5.9,49.4c0.1,3.3,0.1,6.6-0.4,9.8c-3.4-2.4-8-7.6-9.7-9.6c-4.5-4.9-8.2-10.5-12-15.9
			c-4-5.7-8.4-11.2-12.6-16.8c-9.5-12.9-21.3-24-30.8-36.8c0.2-1,0.1-2.2-0.5-3.2c-3-5.2-6.2-10.2-10.5-14.5
			c-4.6-4.6-13,0.5-10.8,6.7c4.8,13.5,14.6,24.8,23.7,35.6c9,10.6,17.8,21.3,25.7,32.8c7.9,11.4,15.3,23.7,25.9,33
			c4.3,3.8,9.7,7.1,15.7,7c6.6-0.2,10.3-5.9,11.9-11.6C437,746.8,436.5,739.2,436.1,732.5z"/>
		<path class="st2" d="M619.2,147c-2.6,8-4.4,16.2-6.4,24.4c-1.1,4.2-2.4,9.5-4.5,14.1c-1.9-7.1-1.4-16-2-22.1
			c-1.8-17.9-1.1-36.1-1.2-54.1c-0.1-18.3-1.1-36.4-2.2-54.6c-0.5-8.2-1-16.4-1.1-24.7c-0.1-5.9-0.2-12.9-4-17.7
			c-2.1-2.7-6.8-1.1-5.7,2.6c2,6.5,1.1,13.2,0.7,19.9c-0.5,8.8-0.5,17.6-0.6,26.4c-0.2,19.1-0.4,38.1-1,57.2
			c-0.6,17.2-0.8,34.3-0.1,51.5c0.5,12.5,1,26.9,10.5,36.3c2.4,2.4,7.2,3.2,10,1c16.9-12.9,15.9-38.6,18.9-57.6
			C631.6,142.1,621.5,140,619.2,147z"/>
		<path class="st3" d="M669.5,176.9c-17-22.6-32-46.6-48.3-69.8c-6.3-9-13.1-18-21.7-24.9c-5.3-4.3-12-7.6-18.7-4.4
			c-11.8,5.6-10.1,25.3-9.2,35.6c1.9,20.7,7.4,41,12.9,61c3,11,6.3,22,9.4,33c1.7,6,3.7,12.1,4.7,18.3c-10.6-5-18.2-16.2-24.5-25.5
			c-7.2-10.5-13.4-21.7-21.5-31.6c-11.4-14.2-23.4-27.9-35.6-41.4c-10.6-11.7-20.3-25.5-33.7-34.3c-1-0.7-2.5,0.1-2.7,1.3
			c-2,10.9,3,22.1,7.7,31.7c5.4,11.2,12.3,21.6,18.5,32.4c6.2,10.8,12.8,21.4,18.5,32.5c5.9,11.6,12.5,25.6,11.2,39
			c-0.2,2.2-0.6,4.5-1.2,6.6c-1,3.7-6.2,2.2-8.8,1.7c-0.8-0.2-1.6-0.4-2.3-0.6c-4.2-3-8.4-5.7-12.8-8.1c-0.4-0.3-0.8-0.7-1.2-1
			c-10.1-8.6-18.4-19.2-26.9-29.4c-9.5-11.4-19.3-22.4-28.5-33.9c-9.7-12.1-19.4-24.3-30.2-35.4c-8.8-9-18.7-17-29.6-23.4
			c-1.1-0.6-2.4,0.1-2.6,1.2c-2.5,9.7,2.9,19.9,7,28.5c6.2,13.1,12.9,25.9,19.1,39c6.5,13.7,12.7,27.7,18.1,41.8
			c2.4,6.4,4.2,13,6.5,19.4c2.1,5.7,4.3,11.6,3.2,17.6c-6.5-4.6-11.1-11.3-15.6-17.7c-5.1-7.3-11-14-16.3-21.1
			c-11.4-15.2-22.1-30.8-33.2-46.2c-11.3-15.6-22.9-31.1-34.3-46.7c-4.6-6.3-9.7-12.1-14.6-18.3c-4.4-5.4-8.9-10.5-14.8-14.3
			c-1.1-0.7-2.5,0.4-2.5,1.6c0.3,14.6,5.8,28.2,12.1,41.1c5.4,11.2,11,22.4,16.7,33.5c5.6,10.8,11.3,21.9,14,33.8
			c0.6,2.4,0.8,4.9,0.9,7.3c0.1,4.5-0.4,5.2-4.6,3.5c-6.5-2.5-11.7-8.4-16.2-13.5c-20.8-23.7-40.9-48.5-64.3-69.7
			c-7.3-6.6-15.2-12.6-22.3-19.3c-6.5-6.1-17.5-16.2-15.6-26.2c0.3-1.6-2.1-2.1-2.4-0.5c-1.9,10.4,7.6,19.9,14.2,26.6
			c9.3,9.4,20.1,17,29.3,26.4c16.2,16.4,31.9,33.4,47.1,50.7c9.6,10.9,19.1,27.9,34.9,30c0.6,0.1,1.5-0.1,1.7-0.8
			c2.7-7.3,0.7-15.3-1.6-22.5c-3.2-10-8.2-19.5-13-28.8c-4.8-9.5-9.5-19.1-14.2-28.6c-6.2-12.5-12-25.7-13.1-39.7
			c5.5,4.3,9.7,9.9,14.1,15.3c5.3,6.6,10.5,13.1,15.5,20c11.8,16.1,23.7,32.1,35.3,48.4c10.5,14.8,20.9,29.8,31.9,44.2
			c5.2,6.9,10.6,13.6,15.6,20.6c4.3,6,9.2,11.6,15.5,15.6c1.1,0.7,2.3-0.2,2.7-1.2c3.7-10.4-2.6-21.1-5.5-30.9
			c-4.1-13.9-10.4-27.1-16.3-40.3c-5.7-12.7-11.8-25.2-18-37.6c-3.4-6.9-6.9-13.7-9.9-20.8c-2.2-5.3-4.6-10.9-4.1-16.7
			c27.3,16.7,46,43.7,65.8,68.1c8.1,10,16.8,19.6,25.1,29.5c4.4,5.3,8.9,10.7,13.8,15.7c-3.9-1.5-7.9-2.7-12-3.6
			c-36.7-7.5-16.1,48.6-10.1,63.9c5.8,14.7,12.6,29,20.2,42.8c5.2,9.5,10.9,18.6,15.7,28.3c4.1,8.3,7.8,16.7,11.5,25.2
			c1.4,3.2,11.6,18.8,1.6,16.9c-9.6-1.8-18.5-11.5-25.6-17.5c-12.7-10.7-25.1-21.2-36.5-33.4c-25.3-26.8-47.4-56.1-74.6-81.2
			c-6.3-5.8-12.1-14-21.6-13.2c-1,0.1-1.8,0.9-1.8,1.9c0.5,13.8,9,25.7,16.4,36.7c10,14.7,18.5,30.6,28.3,45.5
			c9.7,14.8,19.7,29.4,29.3,44.3c5,7.7,9.8,15.5,14.6,23.4c3.9,6.5,9.5,11.2,11.3,18.5c-6.3-3.4-11.7-8.2-16.9-13.3
			c-6.9-6.6-13.9-13.1-20.8-19.8c-15.4-15.1-31.1-30.6-44.9-47.1c-13.3-16-26.7-32-40.4-47.7c-6.4-7.4-12.8-14.8-19.2-22.2
			c-4.8-5.4-10.2-10.7-17.1-13c-1.4-0.5-2.7,1.2-2.3,2.5c8.5,27,28.1,48,43.5,70.9c14.1,20.9,34.1,39.8,42.7,64
			c-3.8-2.9-7.8-5.5-12.1-7.6c-0.4-0.2-0.9-0.2-1.3-0.1c-0.1-0.1-0.2-0.2-0.3-0.4c-6-6.3-12.4-12.1-18.6-18.1
			c-14.5-14-28.4-28.7-42.1-43.5c-13.6-14.7-27.1-29.5-41.6-43.4c-5.4-5.2-10.8-10.4-16.4-15.3c-4.5-4-9.7-7.9-15.8-9
			c-1.2-0.2-2.5,0.7-2.4,2c1.6,19.2,16.6,35.1,28.1,49.3c6.1,7.4,11.3,15.3,16.6,23.3c5.8,8.8,12.4,19.1,11.4,30
			c-7.4-2.9-13.1-11-18.1-16.7c-6.9-7.9-13.7-15.9-20.3-24c-14.7-17.7-29-35.8-43.5-53.7c-14.1-17.3-28.1-34.7-41.6-52.5
			c-10.7-14.1-22.6-27.9-38.6-36.2c-1.4-0.7-2.7,0.4-2.8,1.8c-0.9,10.8,4,21.3,9,30.5c6.2,11.6,14.1,22.3,21.5,33.2
			c6.1,8.8,11.9,17.8,18.3,26.5c6.7,9,17,21.4,16.8,33.4c-6.9-1.9-12.3-7-17.6-11.7c-6.5-5.9-13-11.8-19.2-18
			c-13.4-13.3-25.5-27.7-37.9-41.9c-12.7-14.4-24.1-29.8-35.4-45.3c-5.5-7.5-10.9-15.1-16.5-22.5c-4.3-5.6-8.1-11.6-14.1-15.6
			c-0.8-0.5-1.7,0.3-1.7,1.1c-0.8,11.1,2.8,21.3,6.4,31.7c0.4,1.1,2.1,0.6,1.7-0.5c-3.1-9.5-6.2-18.9-5.9-29
			c6,4.8,10.4,12.2,14.8,18.4c5.5,7.8,11,15.6,16.6,23.4c10.9,15.3,22.7,29.7,34.7,44.2c12.5,15.1,25.7,29.5,39.7,43.3
			c6,5.8,12.1,11.5,18.4,17c5,4.3,10.6,8.3,17.2,9.5c0.9,0.2,2.1-0.4,2.2-1.4c1.2-10.5-5-20.4-10.5-28.8
			c-6.4-9.8-13.8-18.9-20.1-28.8c-7.2-11.1-15.1-21.6-22-32.9c-5.9-9.6-12.4-21-12.7-32.6c16.4,9.5,27.6,24.9,39.2,39.6
			c14.1,17.9,28.3,35.8,42.7,53.5c13.8,16.9,27.2,34.1,41.1,50.8c7,8.4,13.8,17.1,21.4,24.9c5.4,5.5,10.1,12,18,13.9
			c1,0.2,2.2-0.5,2.4-1.5c1.8-9.2-1.5-17.8-5.8-25.9c-4.6-8.7-10.4-17.2-16.3-25.1c-11.7-15.6-30-31.9-33.2-52.1
			c6.4,2.2,11.5,7.5,16.3,12c6,5.7,12.1,11.3,17.9,17.1c14.2,14.1,27.6,29.1,41.2,43.8c13.7,14.8,27.8,29.2,42.4,43.1
			c4.7,4.4,9.2,9.1,13.8,13.6c0.8,6.2,3.5,11.8,6.5,17.2c4.2,7.5,8.9,14.8,13.4,22.2c10.1,16.6,21.5,32.4,33.2,47.8
			c7.9,10.4,17.2,19.6,25.3,29.8c8.4,10.5,18.1,24,17.1,38.1c-8.3-0.2-16.8-9.9-22.1-15c-6.4-6.3-12.1-13.3-18.4-19.7
			c-11.9-12-24.7-23.6-35.3-36.9c-6.9-8.6-13.9-19.6-24.9-22.9c-1.1-0.3-2.6,0.8-2.4,2c5.7,37.8,37.1,65,57.5,95.3
			c7.4,11,15,21.9,21.6,33.5c5.8,10.3,15.6,27.3,10.2,39.6c-6.6-1.9-11.4-7.5-15.9-12.4c-5.9-6.3-12.8-11.5-19.2-17.2
			c-11.5-10.2-22.6-21-33.8-31.6c-16.5-15.7-34.3-38.1-58-42.4c-1-0.2-2.2,0.6-2,1.7c2,13.9,11.3,24.5,18.3,36.1
			c9,14.9,18.9,29.3,29.1,43.3c20.3,27.9,43.3,53.9,63.5,81.9c4.7,6.5,9.1,13.2,13.3,20.1c4.3,7.1,9.8,14.1,12.5,22
			c0.5,1.6,0.8,3.2,0.8,4.9c0.2,2.9-0.6,2-2.7,1.5c-2.8-0.7-5.5-2.5-7.9-4c-5.5-3.6-10.3-8.2-15.1-12.5c-24.2-22.1-49-43.6-72.9-66
			c-1.3-1.2-3.1,0.8-1.8,2c20.1,19,41.2,37,61.5,55.9c6.7,6.2,13.4,12.6,20.5,18.5c5.3,4.4,12.2,10.1,19.5,9.7
			c0.7,0,1.3-0.5,1.4-1.2c1.7-8.1-2.5-15.3-6.7-21.9c-5.8-8.9-11-18.2-17.1-26.9c-12.6-18.3-27.2-35.2-40.9-52.6
			c-14.2-18-27.9-36.3-40.7-55.4c-6.1-9-11.4-18.7-17.6-27.6c-5.5-7.8-11.1-16.2-13.1-25.7c11.9,2.9,21.9,11.2,30.9,19.1
			c9.4,8.3,17.9,17.5,27.1,25.9c12.2,11.2,24,23,36.5,33.9c5.6,4.9,10.8,9.8,16,15.1c4.3,4.5,9.2,8.5,15.3,9.7
			c0.9,0.2,1.7-0.2,2.1-1c5.9-10.6,0.4-24.1-4.1-34.1c-6.3-13.9-15-26.6-23.6-39.1c-10.1-14.7-21.2-28.5-32-42.7
			c-11.9-15.7-23.9-33-27.8-52.6c10.9,5.2,18.2,19,26,27.5c10.4,11.3,21.8,21.8,32.2,33.1c6.8,7.4,13.4,14.9,20.9,21.7
			c5.4,4.9,13.4,12.2,21.4,11c0.8-0.1,1.7-0.6,1.8-1.5c1.5-12.1-4.1-23.2-10.6-33c-7.7-11.6-17.4-21.7-26.5-32.2
			c-12.2-14.1-22.9-29.9-33-45.5c-5.1-7.8-9.4-16.2-14.6-24c-3.8-5.6-7.7-11.7-9.7-18.2c3.9,3.4,8.3,6.3,13.5,6.8
			c1.6,1.4,3.1,2.9,4.6,4.5c6.3,6.4,11.2,14,17.5,20.3c13.9,14,26,29.7,39.2,44.2c6.4,7.1,13.2,14.2,21,19.9
			c3.2,2.3,7.2,4.8,11.3,3.6c3.2-0.9,4.6-4.8,5.6-7.5c2-5.6,3.7-11.2,7.7-15.8c1.3-1.5-0.8-3.5-2.2-2.1c-3.3,3.3-5.6,7.2-7.3,11.6
			c-1,2.6-2.1,9.8-5.7,10.2c-2.7,0.3-6.1-2.5-8.1-3.9c-3.9-2.8-7.4-6.3-10.8-9.7c-6.5-6.4-12.6-13.3-18.6-20.2
			c-11.2-13-23.2-25.5-34.1-38.8c-5.6-6.8-11.4-13.6-17.9-19.6c-6.8-25.6-26.7-45.7-42-66.5c-16-22-35.6-44.4-44.9-70.3
			c6.1,3.4,10.9,9.4,15.2,14.6c6.6,7.9,13.5,15.5,20.2,23.3c13.5,15.7,26.1,32.5,40.3,47.7c14.3,15.3,28.6,30.6,43.7,45.2
			c11.6,11.2,23.6,25.6,38.7,32.1c1.3,0.6,3-0.2,2.9-1.8c-0.4-6.3-3.2-11.6-6.7-16.7c-4.8-6.9-9.6-13.7-14.1-20.9
			c-9.9-15.7-20.2-31.1-30.5-46.5c-9.7-14.5-19.2-29-28-44.1c-7.6-13-19.7-26.2-21.2-41.9c7.6,0.6,13.4,8.9,18.6,13.7
			c7.2,6.7,14.2,13.6,21,20.7c12.7,13.3,24.2,27.6,36.1,41.5c19.6,22.8,41.1,43.7,65.2,61.7c4.9,3.7,14.6,11.4,21.1,6.9
			c3.7-2.6,2.7-8.4,1.5-12c-0.8-2.6-2.4-5.1-3.9-7.4c-2.4-3.7-3.9-8-5.7-12c-8.6-19.2-19.7-36.9-29.2-55.7
			c-8.1-16.1-15.4-32.7-20.6-50c-2.8-9.4-10.1-31.4,1.2-38.2c6.7-4,17.2,0.5,23.5,3.1c4.7,1.9,9.1,4.2,13.4,6.8
			c0.3,0.2,0.6,0.4,0.9,0.7c1,0.7,2.4,1.6,4,2.5c8.3,5.5,16,11.9,23.4,18.4c11.9,10.4,23.9,21.1,34.9,32.5
			c10.2,10.6,20,21.7,31.7,30.7c5.9,4.5,12.3,8.3,19.5,10.3c1,0.3,1.8-0.3,2.3-1.1c6.4-9.6,1.4-24.7-1.5-34.6
			c-3.9-13.5-10-26.2-14.5-39.5c-0.7-2.1-4-1.1-3.3,1c3.9,11.4,8.4,22.6,12.1,34c3.1,9.5,9.3,25.6,4.3,35.6
			c-13.9-4.4-25.1-15.9-35-26c-10.3-10.6-20.6-20.9-31.4-30.9c-9-8.4-18.6-17.7-29-25.9c2.5,0,4.8-0.9,6.3-3
			c5.2-7.4,2.6-20,0.4-27.9c-6.5-23.4-21.3-44.8-33.8-65.5c-4.8-7.9-9.4-15.8-13.4-24.1c-3.5-7.3-7.2-16.1-6.8-24.4
			c12.4,9,21.9,22.6,32,33.8c13,14.4,26.3,29,37.7,44.6c7.8,10.6,14,22.2,21.8,32.9c6.5,8.9,14.4,18.1,25.1,21.8
			c1.2,0.4,2.6-0.8,2.5-2c-1.7-14.7-7.3-29.3-11.3-43.4c-5.9-20.8-11.7-41.7-15-63.1c-1.6-10.7-6.1-34.4,6.1-41
			c8-4.3,18.3,7.8,22.8,12.9c7.7,8.6,14.1,18.3,20.4,27.9c12.7,19.3,25.6,38.7,39.8,57C667.6,181.1,671.1,179,669.5,176.9z"/>
		<path class="st4" d="M773.9,303.3c-69.8,20.1-132.5,56.7-192.2,97.2c-12.2,8.2-24.2,16.6-36.2,25.1c-6.1-29-11-58.3-15.5-87.6
			c3.7-4.5,7.5-9.1,11.3-13.6c14.9-18,29.8-36,44.4-54.4c1.2-1.5-0.6-4.2-2.3-2.8c-0.1,0.1-0.3,0.2-0.4,0.3c0,0,0,0,0,0c0,0,0,0,0,0
			c-13.5,11-25.3,23.9-36.7,37c-6,6.9-12.1,13.7-18.2,20.5c-0.8-5.2-1.6-10.3-2.3-15.5c7.9-7.1,15.8-14.3,23.7-21.4
			c45.5-40.8,91.2-81.5,137.5-121.3c10.6-9.1,73.4-61.1,39.3-73.9c-10.8-4.1-23.7-0.4-34.3,2.8c-11.7,3.6-23.1,8.5-34.4,13.1
			c-35.3,14.5-68.8,32.5-102.1,51.2c-15.5,8.7-30.8,17.8-45.9,27.2c-2.5-21.9-5-43.8-7.5-65.8c6.4-7.2,13-14.3,19.8-21.2
			c8.7-8.7,17.8-17,26-26.3c5.8-6.6,14.2-15.5,14.9-24.6c0.1-0.8-0.8-1.4-1.5-1.4c-10.4-0.3-20.2,5.8-28.4,11.4
			c-10.4,7.1-19.7,15.7-28.9,24.2c-1.9,1.8-3.8,3.5-5.7,5.2c-0.1-0.4-0.1-0.9-0.2-1.3c-2.9-23.6-5.1-47.6-9-71.1
			c-2.3-13.9-5.8-38.3-21.7-43.6c-9.1-3.1-18,2.5-24.9,8c-10.5,8.3-18.2,19.8-24.6,31.4c-1.6,0.7-3.1,1.4-4.5,2
			c-12.8,5.8-25.8,11.4-38.5,17.3c-24.2,11.3-47.7,24-70.6,37.7c18.6-20.4,37.7-40.2,57.2-59.5c16.4-16.3,33.2-32.1,50.7-47.2
			c14.1-12.1,29.4-25.4,35.3-43.6c0.2-0.7-0.3-1.4-1-1.5c-9-1.9-19,7.6-25.3,12.7c-11,8.9-22.1,17.7-33,26.8
			c-29.6,24.6-57.1,51.2-84.1,78.6c-10.2,10.4-20.3,20.8-30.5,31.2c-7.1-12.5-15.8-24.1-26.4-33.6c-8.1-7.2-18.5-12.9-29.6-11.6
			c-11,1.3-18.3,10-22.9,19.3c-4.9,10-7.1,21.4-8.9,32.3c-2.9,17.4-5.5,34.6-6.3,52.3c-0.6,11.4-0.7,22.8-0.5,34.2
			c-13.8,12.9-27.7,25.6-41.6,38.3c-22.4,20.5-45.1,40.7-68.2,60.4c-11,9.4-21.7,19.4-32.3,29.3c-5.5,5.1-10.6,10.6-16.4,15.3
			c-3.7,2.9-7.2,5.8-9.3,10.2c-0.1,0.2,0,0.4,0.2,0.5c1.4,1,2.2,1.2,3.8,1.2c0.5,0,0.5-0.7,0-0.8c-7.3-0.3,4.8-9.6,5.8-10.4
			c2.5-1.9,4.8-3.9,7-6.2c7-6.9,14.3-13.4,21.6-19.9c14.4-12.8,29-25.4,43.6-38.1c25-21.6,49.5-43.8,73.8-66.2
			c-5.3,5.3-10.5,10.8-15.6,16.3c-35.9,39.3-66.1,83.3-95,127.8c-1,1.6,1.5,2.9,2.6,1.3c36-52.7,74-104.7,120.4-148.9
			c0.5,16.8,1.7,33.5,3.1,50.2c-6.4,9-12.9,18-19.2,27.1c-20,28.5-40.6,57.4-56.5,88.5c-2.8,5.5-8.5,14.6-6.7,21.1
			c1.6,5.9,11.1-0.7,13.9-2.3c12.6-6.9,22.4-18.4,31.7-29c14-16.1,28.7-31.6,43.5-47c1.3,8.7,2.8,17.5,4.4,26.2
			c-21.8,24.3-43,49.3-62.8,75.3c-10.7,14.1-20.6,28.7-30.1,43.6c-8.6,13.6-17.2,28.8-18.5,45.2c-0.9,11-0.2,21.7,9.7,28.5
			c8,5.5,19.6,3.5,28.3,0.9c14.2-4.2,27-13.2,38.9-21.7c14.7-10.5,28.3-22.3,42.1-33.8c9.4-7.8,18.6-15.8,27.9-23.8
			c0.9,2,1.9,4,2.9,6c4.9,9.8,10.4,19.2,16.5,28.1c-6.8,11.8-13.5,23.7-19.9,35.7c-6.5,12.2-12.2,24.7-18.2,37.2
			c-3.2,6.7-7.6,17.2-1.3,23.4c0.5,0.5,1.4,0.6,2,0.2c25.6-16.1,44.9-40.2,63.9-63.4c6,6.9,11.9,13.9,17.6,21.1
			c2.2,2.9,7.1-0.2,4.8-3c-6.2-7.6-12.6-14.9-19-22.3c1-1.2,2-2.4,3-3.6c15.1-18.2,30.1-36.4,45.1-54.7c2.7,17.3,6.2,34.4,11.1,51.1
			c-0.5,0.8-1.1,1.7-1.6,2.5c-23.4,25-45.9,50.8-66.8,78c-15.2,19.7-29.5,40.1-42.5,61.4c-9,14.6-18.3,30.5-22.3,47.4
			c-1.5,6.4-1.7,13.3,2.9,18.4c5.6,6.3,16.7,3.1,23.3,0.8c15-5.3,27.6-16.2,39.8-25.9c14.4-11.5,28.7-23,42.9-34.8
			c16-13.4,32.1-26.7,48.3-40c-6.6,14.2-12.8,28.5-19,42.9c-6.7,15.5-16.5,37.1-9.2,54c0.4,0.9,1.3,1.6,2.3,1.2
			c25.6-8.7,41.8-34.8,57.6-55.1c7.4-9.5,15.3-18.6,23.2-27.8c6.7,5.8,15.4,12.2,24.5,11.5c11.2-0.9,14-15,14.5-23.9
			c0.6-9.9-1-20.3-3.2-30.4c5.3-6.4,10.6-12.8,16-19.1c24.4-29.1,49.6-57.7,75.8-85.2c4.1,17.3,9.1,34.4,16.2,50.4
			c0.2,0.6,0.5,1.1,0.7,1.7c-8.3,14.3-16.5,28.6-24.4,43.2c-9.1,16.8-17.6,33.9-25.5,51.3c-7.7,9.2-15.3,18.6-22.7,28.1
			c-18.4,23.5-39,51.7-42.1,82.3c-1.4,13.4,1.6,28.8,13.1,37.2c11.7,8.5,26.7,8.6,40.6,7.9c6.2-0.3,5.9-9.9-0.3-9.6
			c-11.7,0.6-25.3-0.4-34.5-8.3c-9.2-7.8-8.5-22.5-6.2-33.2c5.3-24.6,21.2-47.1,36.7-66.8c-1.4,3.8-2.9,7.6-4.3,11.4
			c-3,8.3-5.2,16.8-7.8,25.3c-2.6,8.7-5.6,17.2-7.6,26.1c-2.6,11.6-3.9,27.1,3.9,37.1c7.6,9.8,21.7,7.4,31.9,4.3
			c13.6-4,25.9-11.3,38.5-17.6c1.7-0.8,0.1-3.3-1.5-2.5c-9.2,4.6-18.3,9.4-27.9,13.2c-9.4,3.8-20.6,7.6-30.7,4.9
			c-14.7-3.9-12.9-25.4-10.9-36.6c1.5-8.3,4.3-16.3,6.8-24.2c2.8-9,5.1-18.1,8.2-27c2.8-8.1,5.8-16,8.9-23.9
			c25.1-31.3,51.5-61.4,78.9-90.6c5.9,5.9,12.7,10.8,20.7,14.5c19.8,9,41.8,8.7,63,8.1c3.9-0.1,3.7-6.2-0.2-6
			c-26.4,0.8-55.9-0.7-76.7-18.9c-0.8-0.7-1.6-1.5-2.4-2.3c18.9-20,38.3-39.6,58-59c28-27.5,56.2-54.8,83.3-83.2
			c22.1-23.2,46.7-45.6,53.5-78.1C781.9,305.8,778,302.1,773.9,303.3z M563.8,426.2c-5,5-10,9.9-14.9,14.9c0,0,0,0,0-0.1
			c-0.3-1.2-0.5-2.5-0.8-3.7C553.3,433.6,558.5,429.9,563.8,426.2z M532.9,395.7c2,11.3,4.1,22.8,6.3,34.4
			c-33.5,24-66.3,48.9-98.7,74.4c-3-12.3-6.1-24.6-9.2-36.9c28.7-42.6,60.3-82.9,92.9-122.7C527,361.8,529.9,378.8,532.9,395.7z
			 M417.5,591.5c-10.7-9.3-20.6-19.6-29.6-30.6c16.7-13.7,33.6-27.2,50.5-40.7c2.3,10.2,4.5,20.4,6.4,30.7c0.4,2,0.8,4.1,1.3,6.3
			c-7.9,9.5-15.8,19-23.8,28.6C420.8,587.7,419.1,589.6,417.5,591.5z M242,650.5c3.3-9.7,8.1-19,12.8-28
			c8.3-15.9,17.8-31.2,26.9-46.7c12.1-20.4,23.7-41.1,35.7-61.6c7.8-9,15.8-17.8,23.9-26.5c4.5,13.3,10.1,26.3,16.7,38.6
			c-25.2,31.3-50.3,62.7-76.2,93.4c-13.6,16.1-27.6,31.9-42.4,47C237.4,662.2,240.7,654.2,242,650.5z M549.9,175.1
			c3.6-2.1,7.2-4.1,10.8-6.2c8.6-4.9,17.3-9.6,26-14.3c-4.7,9.4-11.9,17.7-18.8,25.4c-9.5,10.6-19.5,20.5-28.7,31.3
			c-7.9,9.2-15.7,18.4-23.5,27.6c-1.1-8.2-2.1-16.4-3.1-24.7c0.4-0.4,0.9-0.9,1.3-1.3c11.9-11.9,22.8-24.7,34.8-36.6
			C549.1,175.9,549.5,175.5,549.9,175.1z M510.1,245.6c-15.2,17.9-30.2,36-45,54.2c-19.2,23.6-37.8,47.5-56,71.9
			c-2.5-12.8-4.8-25.6-6.8-38.4c33.7-38.8,68.5-76.7,104.7-113.2C507.9,228.5,509,237.1,510.1,245.6z M508.6,252.1
			c0.7-0.8,1.3-1.6,2-2.3c1.3,10.3,2.7,20.7,4.1,31c1,7.3,2.1,14.5,3.1,21.8c-33.5,30.5-66.7,61.4-99.6,92.7
			c-1.2,1.2-2.4,2.3-3.6,3.5c-1.7-7.6-3.2-15.2-4.8-22.8C441.3,333.4,474.6,292.4,508.6,252.1z M409.5,403.6
			c-20.8,19.9-41.3,40.2-61.3,60.9c16.4-25.2,33.5-50,51.1-74.4c1.8-2.6,3.7-5.1,5.6-7.6C406.4,389.5,407.9,396.6,409.5,403.6z
			 M345.8,482.8c11.9-12.7,24-25.2,36.4-37.6c9.9-9.9,20-19.8,30-29.6c1.6,6.7,3.1,13.4,4.8,20c1.1,4.6,2.3,9.1,3.5,13.7
			c-19.8,23.8-39.2,47.9-58.6,72.1C355.4,509,350.1,496,345.8,482.8z M389.5,492.8c10.6-13.1,21.3-26.1,32.1-39
			c1.3,5.1,2.7,10.3,4,15.4c-14.6,22.1-28.4,44.6-41.2,67.7c-2.1,3.7-4.1,7.5-6.1,11.3c-5.3-7.5-10.2-15.3-14.6-23.4
			C372.3,514.1,380.9,503.5,389.5,492.8z M426.4,448c13-15.6,26-31.1,39.2-46.6c18.7-22,38.2-43.2,57.4-64.8
			c0.2,1.1,0.3,2.2,0.5,3.3c-27.6,33.4-54.9,67-79.7,102.5c-4.6,6.6-9.2,13.3-13.7,20.1C428.9,457.7,427.7,452.8,426.4,448z
			 M406.7,506c6.5-10.8,13.3-21.4,20.3-31.8c3,11.4,5.9,22.8,8.7,34.2c-12.5,9.9-25,20-37.4,30.1c-5.6,4.6-11.3,9.2-16.9,13.8
			c-0.2-0.3-0.4-0.5-0.6-0.8C388.9,536.1,397.6,521,406.7,506z M567.5,286.7c-12.6,15.6-25.5,31-38.3,46.4c-0.1-1-0.3-1.9-0.4-2.9
			c4.8-5.4,9.6-10.9,14.3-16.4C551,304.6,559,295.3,567.5,286.7z M508.1,347.2c-26.4,29.4-51.9,59.6-77.3,89.9
			c-1.8,2.2-3.6,4.4-5.5,6.6c-1.8-7-3.5-14-5.2-21.1c-0.9-4-1.9-7.9-2.8-11.9c33.5-32.5,67.8-64.3,102.3-95.7
			c0.8,5.5,1.7,11,2.5,16.5C517.5,336.7,512.8,341.9,508.1,347.2z M664.7,117.2c10.9-4.4,21.8-9,33.2-12.3
			c5.8-1.7,11.7-2.9,17.7-3.1c2.2-0.1,4.6,0.1,6.6,0.9c1,0.4,2.4,1.3,2.4,1.2c1,1.2,0.9,2,0.4,4.2c-0.7,3.1-2.6,6.1-4.3,8.7
			c-4.8,7.6-11.3,14.2-17.6,20.5c-12,12.2-25.1,23.2-38.3,34.1c-25.4,20.9-49.4,43.6-74,65.4c-22.5,19.9-44.8,39.9-67,60.1
			c-2.6-18-5.1-36.1-7.5-54.1c13.9-16.6,27.9-33.3,42.8-49c11.7-12.3,25.6-25.7,32.3-41.9C615.3,139.4,639.5,127.5,664.7,117.2z
			 M539.1,181.4c-4.5,4.8-8.8,9.6-13.1,14.3c-4.6,4.9-9.2,9.8-13.9,14.7c-0.1-1.1-0.3-2.3-0.4-3.4c-0.3-2.8-0.6-5.6-1-8.3
			C520.2,192.7,529.6,187,539.1,181.4z M506.5,216.3c-18.3,19-36.9,37.8-54.8,57.2c-16.9,18.3-33.7,36.8-50.1,55.5
			c-2.6-16.4-4.7-32.8-6.5-49.3c23.4-18,47.2-35.4,71.5-52c12.6-8.6,25.3-17.1,38.2-25.3C505.4,207,505.9,211.7,506.5,216.3z
			 M215.1,370.2c-3.6-11-6.7-22.2-9.5-33.4c1.8-2.9,3.6-5.9,5.4-8.8c19.2-30.8,38.3-61.6,59-91.4c11.4-11.8,22.8-23.7,34.1-35.5
			c2.5,20.5,4.3,41.1,6.4,61.5c-15.3,16.1-30.4,32.5-45.3,49.1c-17,18.9-33.4,38.1-49.6,57.6C215.5,369.6,215.3,369.9,215.1,370.2z
			 M211.2,374.9c-13.7,16.4-28.1,32.3-44.9,45.5c6.8-27.8,20.7-53,35.5-77.3C204.5,353.8,207.7,364.4,211.2,374.9z M202.1,321.8
			c-0.7-3.3-1.4-6.7-2.1-10c14.2-16,28.7-31.7,43.4-47.2c5.6-5.9,11.1-11.7,16.7-17.5c-10.1,14.8-19.9,29.7-29.5,44.9
			c-8.6,13.6-17.4,27.2-26,41.1C203.8,329.3,202.9,325.6,202.1,321.8z M408.7,49.8c7.7-7.1,15.8-13.7,24.9-19
			c-3.4,5.9-7.8,10.9-12.3,15.9c-5.9,6.4-11.7,13-17.4,19.6C405.3,60.9,406.9,55.3,408.7,49.8z M394.3,77.3
			c-9.9,11.2-19.8,22.5-29.5,33.8c-19.9,23.1-39,46.7-57.5,70.9c-1.1-7.9-2.3-15.8-3.7-23.6c0,0,0.1-0.1,0.1-0.1
			c23.1-24.2,46.7-48,70-71.9c8.5-8.7,16.6-17.9,25.2-26.8C397.1,65.5,395.6,71.4,394.3,77.3z M341,142.8
			c16.9-20.7,34.6-40.8,52.3-60.9c-0.9,4.1-1.6,8.1-2.4,12.2c-10.5,12.1-21,24.1-31.8,35.8c-16.1,17.5-32.5,34.7-49,51.9
			C320.2,168.7,330.5,155.6,341,142.8z M309.6,201.1c-0.2-1.6-0.4-3.3-0.6-4.9c26.8-27.9,53.4-56.1,79.2-85
			c-3.6,25.9-4.9,52.2-4.8,78.4c-23.2,22-45.7,44.7-67.7,67.8C313.8,238.6,311.8,219.8,309.6,201.1z M390.1,196.4
			c0-3.2-0.1-6.4,0-9.6c27.3-25.6,55.3-50.4,84.2-74.2c6.1-5.1,12.5-9.9,18.6-15c1.1,9.1,2.1,18.2,3.1,27.2c-2,2.3-4,4.6-6,6.9
			c-25.7,29.2-51.1,58.5-75.8,88.5c-7.4,9-14.7,18-21.9,27.1C391,230.4,390.3,213.5,390.1,196.4z M383.4,193.1
			c0.1,6.2,0.2,12.5,0.4,18.7c0.4,14.4,1.3,28.8,2.4,43.1c-12.7,16.1-25.3,32.4-37.5,48.9c-9.1,7.4-18.1,14.9-27.1,22.4
			c-0.5-5.8-0.9-11.6-1.4-17.4c-1.3-16.1-2.7-32.1-4.3-48.2C337.9,237.5,360.3,215,383.4,193.1z M387.8,272.8
			c-5.3,4.1-10.5,8.2-15.8,12.3c-4.5,3.5-9,7.1-13.4,10.7c1.6-2.1,3.2-4.2,4.8-6.3c7.6-10.1,15.4-20.1,23.2-30
			C387,263.8,387.4,268.3,387.8,272.8z M322.5,338c1-0.8,2-1.7,3-2.5c-1,1.3-1.9,2.7-2.9,4C322.6,339,322.6,338.5,322.5,338z
			 M335,327.6c17.8-14.7,35.8-29.2,54-43.3c1.9,17,4.3,33.9,7.1,50.8c-7.4,8.5-14.7,17.1-22,25.8c-14.6,17.6-29.1,35.2-43.6,52.8
			c-3.4-23.1-5.6-46.3-7.6-69.6C327,338.7,331,333.2,335,327.6z M503.5,191.1c-37.7,23.9-74.2,49.8-109.6,76.9
			c-0.5-5.4-1-10.8-1.4-16.3c24.3-30.6,49.3-60.6,74.9-90.1c9.7-11.1,19.2-22.5,28.9-33.7C498.8,149,501.1,170.1,503.5,191.1z
			 M499.4,91.9C505.2,86.4,511,81,517,75.7c11.1-9.8,26.7-24.1,42.6-24.6c-1.4,7.8-9.1,15.6-14,21.2c-5.8,6.8-12.3,13-18.7,19.2
			c-8.9,8.6-17.2,17.8-25.3,27c-1-8.6-2-17.3-3-25.9C498.9,92.4,499.2,92.1,499.4,91.9z M434-0.6c6.4-8.5,17.1-21.1,28.9-20.9
			c7.8,0.1,12.1,10.1,14.4,16c6.3,16.5,7,34.4,9.2,51.7c2.1,16,4.1,32,5.9,47.9c-21.4,18.9-44.2,36.4-65.6,55.4
			c-12.5,11.1-24.7,22.3-36.9,33.7c0.2-27.2,1.9-54.5,6.3-81.4c0.9-1,1.8-2,2.6-3c14.4-16.5,28.1-31.9,41.6-49.7
			c7.9-10.4,25.9-35.2,4.2-41.7c-5.3-1.6-11.3-0.7-17,1.1C429.7,5.4,431.8,2.4,434-0.6z M420.9,20.4c7.3-3.2,22.8-9.2,25.5-1.8
			c2.3,6.1-6.8,16.9-10,21.4c-6,8.3-12.7,16-19.3,23.7c-5.8,6.7-11.6,13.5-17.4,20.2c0.9-4.2,1.8-8.4,2.9-12.6
			c4.7-5.4,9.5-10.8,14.2-16.2c7.5-8.6,15.9-16.3,20.8-26.8c0.5-1.1-0.6-2.1-1.7-1.5c-9.3,5-17.6,11.2-25.5,18.1
			C413.4,36.6,416.9,28.3,420.9,20.4z M379.2,38.9c10.7-5,21.6-9.6,32.4-14.4c-4.5,9.7-8.2,19.7-11.4,29.9
			c-12.3,12.2-23.7,25.6-35.7,37.7c-20.8,20.9-41.2,42.1-61.6,63.4c-3.4-18.5-7.9-36.7-14.1-54.5c-1.2-3.4-2.5-6.7-3.8-10.1
			c0.3-0.4,0.6-0.7,1-1.1C315.9,70.9,347.1,53.8,379.2,38.9z M281.2,95.4c8.2,20.9,13.2,43.2,17.1,64.9c-5.4,5.7-10.9,11.3-16.3,17
			c-27.3,28.5-54.2,57.3-81.3,86c-2.5,2.7-5,5.3-7.5,7.9c-2.4-17.6-4.2-35.2-5.6-52.9c0-0.3-0.1-0.7-0.1-1c0.5-0.6,0.9-1.3,1.4-1.9
			c18.8-26.2,37.9-52.2,57.6-77.7C257.6,123.4,269.2,109.2,281.2,95.4z M345.5-2c19-18.4,39.6-35.5,60.3-51.8
			c6.4-5.1,12.7-10.3,19.1-15.4c4.8-3.8,12.8-11,19.6-10.8c-4.8,13.7-15.5,24.5-26,34.1c-10.8,9.8-21.9,19.2-32.5,29.2
			c-27.6,25.9-54.2,53-79.7,81c-2.7,2.9-5.3,5.9-8,8.8c-5.5,3.3-11,6.7-16.4,10.2c-2.1-4.8-4.5-9.5-7-14.1
			C298.2,45.2,321.4,21.2,345.5-2z M277.3,86.1c-28.5,18.4-55.8,38.3-81.3,60.5c23-21.7,45.7-43.7,67.8-66.2c2.4-2.4,4.7-4.8,7-7.2
			C273.1,77.4,275.3,81.7,277.3,86.1z M185.9,109.9c1.3-15.5,4-31,7.3-46.3c2.4-11.6,6.2-25.4,16.2-32.9c11.2-8.5,25-1.2,34.1,6.6
			c9.9,8.5,17.6,19.5,24.3,30.6c0.6,1,1.2,2.1,1.8,3.2c-15.3,15.7-30.7,31.4-46.4,46.7c-12.8,12.5-25.8,24.8-38.8,37.1
			C184.2,139.8,184.7,124.9,185.9,109.9z M184.5,165.2c2.8-2.6,5.5-5.1,8.3-7.6c27-23.9,57.1-44.7,87.4-64.1
			c-17.5,20.3-34.4,41.1-50.6,62.5c-14.4,19.1-28.5,38.3-42.5,57.7C185.9,197.6,184.9,181.4,184.5,165.2z M159.6,306.4
			c-10.6,11-19.9,23-30.8,33.7c-2.1,2-25.4,20.5-26.6,16.2c-0.8-2.7,1-6.5,1.9-9c4.6-11.8,11.5-22.9,18.1-33.7
			c18.7-30.7,39.4-60.2,60.4-89.5c0.3,2.9,0.5,5.8,0.8,8.6c1.3,14.5,3,29,5.1,43.4C178.9,286.3,169.3,296.4,159.6,306.4z
			 M222.1,244.3c25.4-27.1,51-54.1,76.7-80.9c1.4,8.2,2.7,16.5,3.8,24.8c-1.9,2.5-3.7,4.9-5.5,7.4c-5.4,5.6-10.8,11.3-16.3,16.9
			c-27.9,29-56,58-83,87.8c-1.6-8.7-3-17.4-4.2-26.1C203.1,264.2,212.7,254.3,222.1,244.3z M197.5,433.4
			c-14.1,12.2-28.5,24.2-43.6,35.2c-11.9,8.7-24.8,17.5-39.2,21.5c-8.5,2.3-19.6,2.6-22.8-7.3c-2-6.3-0.5-14.2,0.9-20.4
			c2-8.9,6.3-17.2,10.8-25.1c18-31.9,41.3-60.8,64.8-88.8c9-10.7,18.1-21.3,27.4-31.8c1.2,5.6,2.4,11.2,3.7,16.8
			c0.5,1.9,1,3.9,1.4,5.8c-8.8,14.5-17,29.2-24.2,44.5c-6,12.7-10.8,26-13.8,39.7c-0.2,1,1,2.1,2,1.4c17.9-13.6,33-30,47.4-47.1
			c3.7,10.9,7.9,21.6,12.5,32.1C215.6,417.8,206.5,425.6,197.5,433.4z M228.7,406.4c-4.7-10.9-8.9-22-12.6-33.2
			c5.8-7,11.6-14.1,17.4-21.1c23.6-28.4,48.9-55.6,74.1-82.5c1.1-1.2,2.2-2.4,3.4-3.6c0,0.1,0,0.1,0,0.2c2.1,21.5,3.7,43,5.4,64.5
			C286.8,355.5,257.8,381,228.7,406.4z M235.3,420.7c-0.8-1.7-1.6-3.3-2.4-5c19.1-16.7,38.1-33.6,57.3-50.2c9-7.8,18-15.5,27.1-23.1
			c0.1,1.4,0.2,2.8,0.3,4.2c-13.2,18.7-26,37.6-38.5,56.7c-9.7,14.8-19,29.8-27.9,45C245.3,439.6,240.1,430.3,235.3,420.7z
			 M227.9,533c-3.4,3-6.9,5.8-10.5,8.5c-2,1.5-6.7,6.6-8,2.8c-2-5.8,2.4-13.8,4.9-18.8c7.4-15.1,14.3-30.3,22.4-45.1
			c4.4-8.2,9-16.3,13.6-24.4c2.7,3.8,5.5,7.5,8.4,11.1c4.7,5.8,9.5,11.4,14.3,17C258.9,501.5,244.3,518.4,227.9,533z M298.5,452.8
			c-7.4,9-14.8,18.2-22.2,27.4c-4.5-5.2-8.9-10.3-13.3-15.6c-3.5-4.3-6.8-8.8-9.9-13.3c20.1-34.3,42-67.5,64.9-99.9
			c0.8,9.4,1.6,18.7,2.6,28c1.4,13.5,3,27,5,40.5C316.6,430.8,307.6,441.8,298.5,452.8z M331.9,421.9c-0.2-1.3-0.4-2.6-0.6-3.9
			c8.5-10.4,17-20.8,25.6-31.1c13.2-16,26.5-31.8,40-47.5c2.2,13,4.6,26,7.2,38.9c-21.7,29.5-42.6,59.5-62.5,90.3
			C337.5,453.3,334.4,437.6,331.9,421.9z M224,674.5c-2.5,0.8-7.2,1.8-9,1c-0.5-0.2-0.6-0.4-0.5-0.3c-0.6-1.3-0.5-2.1-0.5-3.5
			c0-7.3,3.8-15.1,6.8-21.6c6.1-13.4,13.7-26.1,21.8-38.4c18.8-28.4,39.3-55.4,61.1-81.3c-13.3,22.6-26.2,45.3-39.4,67.9
			c-8.5,14.5-16.8,29.4-23.3,44.9c-2.6,6.2-8.5,18.6-4.4,25.7C232.5,671.2,228.4,673.1,224,674.5z M308.7,612.4
			c-14.6,12.2-29.3,24.3-44.2,36.1c-3.7,2.9-7.4,6-11.2,9c21.7-23.1,41.7-47.7,61.8-72.3c15-18.4,29.9-37,44.8-55.5
			c4.7,8.4,9.8,16.6,15.5,24.4c-0.9,1.8-1.9,3.6-2.8,5.5C351.2,577.1,329.9,594.7,308.7,612.4z M387,628
			c-8.7,11.3-17.4,22.7-27.6,32.8c-6.8,6.7-14.5,12.7-23.5,16.1c-4-11.7,0.6-25.3,4.5-36.4c4.4-12.4,10.1-24.3,15.2-36.3
			c3.8-8.9,7.8-17.7,11.9-26.4c5.3-4.4,10.6-8.7,15.9-13.1c1.1,1.3,2.1,2.6,3.2,3.9c8.3,9.8,17.5,19,27.1,27.4
			C404.6,606.5,395.4,617,387,628z M446.2,599c-5.5,11.2-19.6,0.3-26.2-5.3c3.7-4.2,7.3-8.5,10.9-12.8c5.4-6.5,10.7-13,16.1-19.4
			C449.6,574,451.7,587.7,446.2,599z M535.4,454.9c-13.1,13.9-25.8,28.1-38.4,42.4c-15.6,17.7-30.8,35.7-45.9,53.8
			c-1-4.4-2-8.7-2.9-12.9c-1.5-7.3-3.2-14.6-4.9-21.9c16.8-13.3,33.7-26.4,50.8-39.3c15.7-11.8,31.5-23.6,47.5-35.1
			c0.4,1.8,0.8,3.5,1.2,5.3C540.4,449.7,537.9,452.3,535.4,454.9z M563.2,491.9c-6-15.2-9.8-31.1-13.5-47c9.5-9.7,19.4-19,28.7-28.9
			c15.2-10.4,30.6-20.6,46.3-30.4c-1.5,10.7-7.3,21.1-12.5,30.2c-6.6,11.5-14.3,22.4-20.8,34c-8.7,15.5-17.6,30.8-26.5,46.2
			C564.3,494.6,563.7,493.3,563.2,491.9z M520,586.7c13-27.1,27.7-53.3,42.6-79.5c3.3,6.8,7.1,13.2,11.5,19.1
			C555.6,546,537.5,566.1,520,586.7z M750.8,346.1c-11.5,13.6-24.1,26.5-36.4,39.4c-26.6,27.8-54.3,54.4-81.8,81.3
			c-18.3,18-36.3,36.2-54,54.8c-4.8-6.6-8.7-14-12-21.4c9.7-16.9,19.4-33.7,28.9-50.7c6.7-12,14.7-23.1,21.4-35.1
			c5.2-9.3,10.7-20.1,11.4-31.1c1.4-0.9,2.8-1.8,4.3-2.7c42.4-26.2,87.1-48.7,134.8-63.6C763.8,327.7,758.3,337.1,750.8,346.1z"/>
		<path class="st5" d="M670.5,475.3c-17.9-78.4-30.6-157.9-43.6-237.2c-5.8-35.3-13.2-70-21.2-104.8c-1.8-7.8-5.4-19.2-15.5-17.9
			c-6.6,0.8-9.3,10.1-11,15.4c-5.3,16.7-7,35.3-7.7,52.8c-0.6,16.3-3.4,32.6-4.5,48.9c-1.3,19.1-1.8,38.2-2,57.3
			c-0.3,38.1,2.2,75.7,6.2,113.5c3.8,36.2,7.8,72.5,7.6,109c-2.9-4.1-4.5-9-5.8-13.9c-1.8-6.7-3.6-13.5-5.3-20.3
			c-4.4-18-8.4-36.1-12-54.3c-7.5-37.5-13.9-75.3-19.5-113.2c-5.4-37.1-9.8-74.3-14.4-111.4c-1.9-15.6-2.9-31.2-4.3-46.8
			c-1.1-13.1-3.2-26.6-9.5-38.3c-0.6-1.1-2.2-0.9-2.8,0.1c-7.3,12.7-9.1,27.5-9.7,41.9c-0.7,17-0.7,34.2-1,51.2
			c-0.9,39.3,0.1,78.7,2.6,118c1,15.7,2.3,31.5,3.8,47.2c-2.4-15.4-4.8-30.9-7.1-46.3c-5.9-39.2-10.5-78.6-14.3-118.1
			c-2.6-26.7,1.1-56.8-10.2-81.9c-0.6-1.3-2.7-0.8-2.9,0.5c-5.9,37.1-7.2,74.6-8.4,112.1c-1.3,39.9-3.6,79.7-3.5,119.6
			c0.2,40,1.9,80,5.3,119.9c3.4,39.1,8.9,78,14.4,116.8c1.3,9,2.2,18.1,4.2,27c2,9.1,3.8,18.7,1.8,27.8c-8-5.8-11.4-18.2-14.2-26.9
			c-3.2-10-5.3-20.3-8-30.5c-9.6-36.7-20.2-73-28.5-110c-17.6-78.1-30.8-157.4-40.7-236.9c-3.3-26.7-6-53.4-7.7-80.3
			c-0.8-13.3-1.8-26.5-3.1-39.7c-0.8-7.7-0.1-18.9-7.1-23.9c-0.6-0.5-1.7-0.7-2.2,0.1c-8.1,10.9-10.3,25-12.6,38
			c-3.1,17.7-6.7,35.2-8.9,53.1c-4.8,39-5.8,78.4-5.1,117.6c1.5,77.7,10.3,155.3,29.3,230.7c7.4,29.6,15.4,59.9,26.5,88.3
			c3.4,8.8,7.2,17.5,10.5,26.3c1.6,4.3,3.1,8.7,4.2,13.2c0.6,2.4,1.7,5.9,1.2,8.7c-5.2-4.2-8.4-10.8-11.7-16.5
			c-4.8-8.3-9.4-16.5-13.6-25.1c-8.6-17.3-16.3-35-23.4-52.9c-14-35.5-26.7-71.6-37.8-108.1c-22.8-75-39.2-152-53.7-229
			c-5.7-30.3-11.2-60.7-16.7-91.1c-2.8-15.6-5.5-31.3-8.5-46.9c-2.2-11.5-2.1-24.3-9.5-34.1c-0.5-0.7-1.5-0.9-2.1-0.2
			c-7.8,9-10.1,21.3-11.7,32.7c-1.7,12.7-2.3,25.6-3.4,38.4c-3.6,38.9-4.3,78-3.5,117.1c1.5,75.2,11.6,151.1,30.8,223.9
			c2.2,8.4,4.4,16.8,6.4,25.2c1.1,4.7,2.1,9.5,2.9,14.2c0.3,1.6,0.5,3.2,0.6,4.9c0,0.2,0,0.4,0,0.6c-0.9-1.1-1.8-2.3-2.7-3.4
			c-9.7-13.1-14.8-29.3-20.3-44.5c-6.4-17.9-12.6-35.9-18.3-54.1c-23.7-75-38.3-151.9-52-229.2c-3-16.9-6.1-33.8-8.7-50.7
			c-2.4-15.4-5-30.9-11.2-45.3c-0.5-1.1-1.9-1.1-2.3,0.1c-4.1,13.6-1,28.7,0.5,42.5c1.9,17.8,2.2,35.8,3.5,53.6
			c2.3,30.6,4.7,61.4,8.8,91.9c4.8,35.5,10.1,71,12.4,106.7c0.4,6.8,0.8,13.7,0.3,20.6c-0.1,1.8-0.3,3.8-1,5.4
			c-0.6,1.2-1-1.1-1.6-1.8c-2.6-3.5-4.8-7.3-6.8-11.1c-7.8-14.4-12.2-30.5-17.4-46c-5.9-17.3-11.8-34.5-17.1-52
			c-21.9-73.1-33.7-148.2-47-223.2c-1.9-10.7-3-22.1-8.6-31.7c-0.6-1.1-2.1-0.6-2.4,0.4c-6.2,19.8-3.1,41.7-2.3,62.1
			c1,26.3,2,52.6,3.7,78.9c1.6,25.1,3.9,50.2,7.2,75.1c1.6,11.8,3.4,23.5,5.6,35.2c2.5,13.7,6.7,26.9,8.3,40.8
			c0.1,0.8,1.4,0.8,1.3,0c-1.2-11.6-4.2-22.9-6.6-34.3c-2.7-13-4.4-26.3-6.2-39.4c-3.3-24.9-5.4-50-7-75.1
			c-1.6-25.5-2.6-51-3.5-76.5c-0.8-20.4-4-42.9,1.2-63c6,12.3,6.9,28,9.3,41.2c3.4,19,6.5,38.1,9.8,57.2
			c6.6,38,14.2,75.9,23.8,113.3c9.1,35.3,20.9,69.6,32.3,104.2c4.8,14.6,10,29.2,18.4,42.2c2.1,3.2,6,10,8.2,3.5
			c1.5-4.5,1.1-10.1,1-14.8c-0.2-8.5-0.9-17-1.7-25.4c-1.8-20.2-4.4-40.4-7.1-60.6c-6.7-51.3-11.9-102.7-15.1-154.5
			c-0.6-10.7-1.2-21.3-2.4-32c-1.1-9.6-2.4-19.8-0.4-29.4c5.9,15.2,8.2,31.4,10.6,47.4c2.6,17.5,6,34.9,9.1,52.3
			c6.9,39,14.1,77.9,22.5,116.6c8.2,37.9,18.5,75.2,30.3,112.2c5.6,17.7,11.8,35.1,18,52.6c5.1,14.4,10.6,29.1,19.8,41.5
			c1.1,1.5,2.4,3,3.6,4.4c0.4,0.4,1.1,0.4,1.6,0.2c3.5-2,0.3-12.1-0.3-14.9c-1.9-9.7-4.4-19.2-6.9-28.8c-8.3-31.4-14.6-63.5-20-95.5
			c-13-78-15.6-157.9-9.9-236.7c1.1-15,2.3-30.1,3.8-45c1.2-12.3,2.8-26.7,10.7-36.8c4.2,6.4,5.5,14.1,6.5,21.6
			c1.2,9,3.1,17.8,4.7,26.7c3.5,19.5,7.1,39,10.5,58.6c6.8,38.9,13.9,77.7,21.7,116.4c15.5,76.2,33.9,152.1,59.3,225.7
			c10,28.8,20.2,58.1,33,85.8c6.5,14.2,13.1,28.3,20.6,42c5.2,9.4,10.5,21.6,19.7,27.8c0.7,0.5,1.7,0,2.1-0.7
			c3.2-5.8-1.1-15.5-2.9-21c-3.4-10.1-7.7-19.8-11.7-29.6c-5.4-13.4-9.4-27.5-13.6-41.4c-5.6-18.3-10.7-36.8-15.3-55.4
			c-19-76.8-26.8-156.3-27.5-235.4c-0.3-35.8,1.2-71.6,5.5-107.1c2-16.1,5.3-31.7,8.1-47.6c2.3-12.9,4-27.4,11.5-38.5
			c4.6,4.9,4.1,14.3,4.7,20.5c1.1,10.1,1.8,20.2,2.5,30.4c1.3,19.7,2.6,39.2,4.7,58.8c4.3,39.7,9.8,79.2,16.1,118.6
			c12.4,77.5,27.4,154.6,48.3,230.3c4.9,17.7,9.5,35.4,14.4,53.1c3.3,12.1,7.7,30.5,19.7,37c1,0.5,2.1-0.1,2.4-1.1
			c4.6-15.6-1.8-33-4-48.5c-2.7-19.4-5.6-38.9-8.3-58.3c-5.4-39.2-9-78.7-11-118.2c-2.1-39.9-2.3-79.9-1.3-119.9
			c1-39.2,2.7-78.4,4.9-117.5c1.1-19.2,2.7-38.3,5.5-57.3c4.1,11.9,4.9,25,5.5,37.5c0.8,15,1.3,29.8,2.8,44.7
			c3.9,39.5,8.6,78.9,14.6,118.1c5.7,37.2,11.4,74.5,17.9,111.6c4.2,29.6,9.3,59.1,15.4,88.3c1.5,8.9,3.3,17.8,5.7,26.5
			c0.6,2.1,3.6,1.1,3.2-1c-1.4-6.2-2.7-12.3-4.1-18.5c-2-11.6-3.4-23.2-5.6-34.8c-3.8-19.7-7.5-39.4-11-59.1c-0.2-1-0.3-2-0.5-2.9
			c-5.4-37.7-9.3-75.7-12-113.6c-2.7-38.5-3.7-77.1-3.1-115.6c0.3-17,0.9-33.9,1-50.9c0.1-15.2,1.1-31.2,8.1-45
			c6.1,12.7,7.3,27.4,8.3,41.3c1.1,16.5,2.9,32.7,4.9,49c4.7,38,9.2,76,14.9,113.8c5.5,36.5,11.8,72.9,19.2,109
			c3.6,17.7,6.7,36.1,12.2,53.3c3.6,11.3,4.2,24.7,13.3,33.2c1.2,1.1,2.9,0.2,2.9-1.3c0.7-39.6-3.9-79.1-8-118.4
			c-4.1-39.5-6.2-78.7-5.6-118.4c0.3-19.9,1.2-39.7,2.7-59.6c1.1-13.7,3-27.3,3.8-41.1c0.6-9.9,1.7-19.7,3.3-29.5
			c1.5-9.3,3.2-19.7,8.2-27.9c2.4-3.9,6.7-4.3,10.1-1.1c3.6,3.5,4.7,9.9,5.8,14.6c3.2,13.8,6.7,27.5,9.6,41.4
			c7,32.8,11.9,65.9,17.3,98.9c11,67.1,22.6,134,37.8,200.3C667.9,478.3,671,477.4,670.5,475.3z"/>
		<path class="st6" d="M716.5,49.2c-32.4,8.5-65.6,13.3-98.4,19.5c-8.5,1.6-17,3.4-25.5,5.4c24.6-9,49.7-17.1,69.5-35.1
			c2.7-2.5,0.1-6.3-2.9-6.4c-10.7-0.5-21.3,1.9-31.6,4.7c-10.9,2.9-22.1,5.6-32.9,8.9c-14.6,4.4-30.1,11.7-45.8,14.1
			c22.1-10.3,46.5-16.2,69.4-24c23.7-8.1,49.8-12.4,70.3-27.7c2.2-1.7,1.3-4.9-1.5-5c-16.7-0.9-33.6,3.1-49.9,6.2
			c-18.8,3.5-37.4,8.1-56,12.5c-2.9,0.7-1.5,5,1.3,4.4c17.1-4,34.2-8.2,51.5-11.6c14.4-2.8,29.4-6.1,44.3-6.3
			c-19.4,11-42.3,14.8-63.3,21.8c-28,9.3-57.8,15.9-83.4,30.8c-2.5,1.5-2.1,6.2,1.1,6.6c20.4,2.3,40.6-6.8,59.6-13
			c10.3-3.4,21.1-5.6,31.5-8.6c7.9-2.2,16-4.5,24.2-5.5c-34.6,25.2-81.7,28-115,56c-2.2,1.9-0.8,6.1,2,6.5
			c20.4,2.8,38.8-6.8,58.3-10.5c-10.7,6.3-24.2,9.2-35.1,14.2c-5,2.3-10.1,4.2-15.2,6.1c0.9-2.9-1.7-6.4-4.9-6.2
			c-7.1,0.3-13.7,2.8-20.3,5.2c-8.4,3.1-16.7,6.3-24.9,9.8c-17.4,7.5-35.1,14.8-52.2,22.8c-35.8,16.8-71.1,34.4-106.3,52.4
			c-70.1,35.7-139.9,71.9-209,109.5c-3.9,2.1-7.6,4.3-11.4,6.6c-1.7-1.9-3.4-3.8-5-5.8c11.9-7.8,23.9-15.3,35.6-23.5
			c32-22.4,65.1-43.2,98.5-63.4c34.1-20.7,68.3-41.3,102.4-61.9c17.2-10.4,34.3-20.8,51.5-31.2c12.4-7.5,26.2-12.7,38.7-20.1
			c7.2-4.2,14.2-9.3,19.4-15.9c1.7-2.2,1.1-5.8-2-6.5c-14.5-2.9-29.2,5.2-42.6,9.6c-18.7,6.1-37.4,12.8-55.6,20.3
			c-34.7,14.3-68.5,30.4-101.8,47.8c-34.5,18-68.4,37.2-102.4,56.1c-14.4,8-28.6,16.2-42.9,24.3c7.6-13.3,18.4-25.1,26.9-37.5
			c1.9-2.8-1.6-6.1-4.4-5.3c-31.8,8.7-47.9,41-76,55.3c2.1-4.9,5.8-9.4,8.9-13.2c4.6-5.7,10.1-10.7,14.6-16.6
			c9-11.8,23.2-22.5,25.2-38.1c0.2-1.9-1-4.2-3.3-3.9c-12.3,1.8-22.3,10.2-31.5,18c-11.8,10-24.2,20.4-33.3,33.1
			c-1.6,2.2,0.6,5.9,3.3,4c12-8.1,22.3-18.5,34.6-26.3c1.8-1.1,0.1-3.8-1.7-2.7c-4.6,2.8-8.9,5.9-13.2,9.1c3.3-3,6.6-6,10.1-9
			c7.9-6.8,17.1-15.6,27.5-18.8c-2.4,6.7-7.4,12.4-12,17.7c-4.9,5.6-9.8,11.4-14.9,16.9c-9.2,9.9-22.6,21.9-23.3,36.4
			c-0.1,2.3,2.7,4.3,4.8,3.5c28.5-10.7,44.6-40.4,71-53.7c-9,12.2-18.5,23.9-24.4,37.6c-12.2,6.9-24.2,13.8-35,22.9
			c-0.3,0.1-0.5,0.2-0.8,0.5c-1.6,1.6-3.3,3.2-4.9,4.8c-1.8,1.8,1.1,4.5,2.9,2.7c10.3-9.9,22.6-17.4,35.2-24.1
			c-1.4,4.3-2.4,8.7-2.8,13.4c-1.2,11.3,0,22.2,4.9,32.4c0.4,0.9,0.9,1.7,1.3,2.6c-5.2,3.4-10.3,7-15.2,10.8
			c-7.8,6.1-15,12.9-21,20.9c-1.9,2.6-1.4,6.8,2.3,7.5c11.9,2.3,23.7-4.1,33.7-9.8c6-3.4,11.8-7,17.7-10.6c1.7,1.3,3.5,2.6,5.3,3.8
			c2.5,1.7,5.1-2.3,3-4.3c-1-0.9-1.9-1.9-2.9-2.8c4.5-2.7,9-5.4,13.7-7.9c34.6-18.8,69.3-37.3,104.2-55.3c34.9-18,70-35.9,105-53.8
			c17.6-9,35.3-17.8,53.1-26.6c17.9-8.8,35.8-18.3,54.3-26c15.7-6.5,31.2-13.6,46.8-20.3c3.8-1.6,7.6-3.2,11.4-4.6
			c-5.7,3.1-11.4,6.2-16.9,9.3c-16.5,9.5-32.6,19.7-49,29.4c-33.8,20.1-67.8,40-101.3,60.6c-33.2,20.4-66.2,41-98.4,62.9
			c-14.3,9.8-28.2,20.3-42.6,30c-11.4,7.7-23,15.2-32.8,24.8c-5.1,4.9-9.2,10.7-11.4,17.4c-0.8,2.5,1.3,5.4,3.7,5.9
			c13.8,2.7,27.8-2.6,40.3-8c15-6.5,29.9-13.5,44.6-20.7c34.6-16.8,68.3-35.4,102.1-53.6c63.6-34.2,127.9-67,191.7-100.7
			c0.3-0.1,0.6-0.3,0.9-0.5c5.2-2.8,10.5-5.5,15.7-8.3c3.7-2,7.5-4,11.2-6c-7.3,4.4-14.5,8.8-21.8,13.2c-34.1,20.3-68,41-101.5,62.2
			c-32.8,20.7-65.1,42.1-97,64.1c-15.6,10.8-31.1,21.9-46.3,33.3c-14.3,10.7-27.7,22.5-41.9,33.4c-8.1,6.2-16.4,12.2-23.7,19.4
			c-6.6,6.4-14.5,15.9-11.5,25.8c0.7,2.4,2.8,3.6,5.1,3.7c14.2,0.7,27.7-8.1,39.6-14.8c15.8-8.8,32.1-16.8,48.1-25.3
			c34.9-18.6,69.5-37.7,104-56.9c59.9-33.2,119-68.3,180.5-98.4c-25.4,13.6-49.1,30.4-73.3,46c-65.6,42.3-129.8,86.7-191.6,134.5
			c-9.7,7.5-19.1,15.4-29.1,22.4c-8.7,6.1-17.4,12-25.9,18.3c-16,11.8-34.2,26-41.5,45.2c-1.2,3-0.2,7.2,3.6,7.8
			c9.8,1.5,18.9-2.4,27.5-6.8c10.7-5.4,21.1-11.5,31.6-17.3c18.5-10.4,36.6-21.4,54.5-32.7c-2.3,1.7-4.6,3.5-6.8,5.2
			c-22,16.9-43,35.1-65.1,51.9c-7.7,5.9-15.3,12-22.1,19c-5.1,5.3-11.2,12.7-9.2,20.7c0.6,2.2,3.1,4.2,5.5,3.9
			c19.5-2.2,37.3-13.9,54-23.6c21.5-12.4,42.6-25.5,64.1-38c21.6-12.5,42.5-26.5,63.6-39.8c2.7-1.7,5.4-3.3,8.1-5
			c-4.2,3.5-8.5,7.1-12.7,10.6c-19.3,15.9-39.3,30.9-58.1,47.4c-17.4,15.2-35.1,30-50.8,47c-6.5,7-13.3,14.3-19,22
			c-5,6.7-8.4,14.3-6.1,22.7c0.5,1.8,2.2,3.5,4.1,3.8c24.7,3.5,48.4-12.8,69.3-23.6c11-5.7,21-12.7,31.6-19.1c8-4.8,16.7-10,26-12.5
			c-2.3,2.8-4.9,5.3-7.5,7.7c-5.4,5.1-10.4,10.6-15.6,15.9c-11.7,11.7-24.3,22.5-35.9,34.2c-11.8,11.9-23.4,24-34.3,36.7
			c-8.5,10-18.9,21.7-20.7,35.2c-0.3,1.8,0,4,1.6,5.2c6.4,4.9,14.5,2.9,21.4,0.3c9.5-3.6,18.3-8.9,26.9-14.2
			c7.5-4.6,14.9-9.2,22.5-13.5c5-2.8,9.9-5.8,14.8-8.8c-4.5,3.7-8.9,7.4-13.1,11.4c-6.8,6.4-13.3,13.2-19.5,20.3
			c-6.3,7.1-14,15.6-16.1,25.1c-1.5,7,3.3,12.2,10,12.8c6.4,0.5,13-2.5,18.6-5c4.4-2,8.6-4.2,12.8-6.5
			c-10.8,8.5-22.5,17.9-25.5,31.1c-0.8,3.7,2.1,6.4,5.5,6.7c12.7,0.9,24.1-5.9,34.2-12.9c6.7-4.6,13.8-10.9,21.6-14.9
			c-9.5,13.5-21.9,27.9-11.8,43.3c6,9.1,17.6,13.4,27.6,16.2c11.5,3.2,23.4,4.2,34.9,7.4c5.9,1.6,8-7.6,2.1-9.3
			c-17.4-4.8-39.8-4.9-53.6-17.8c-7.5-7.1-2.3-16.3,2.3-23.5c4.9-7.7,11.4-14.6,15.1-23c1.6-3.5-0.7-8.3-5-7.9
			c-12.3,1-22.6,8.5-32.4,15.5c-8,5.8-16.7,12.7-26.4,15.1c2.8-4,6.8-7.5,10.2-10.7c6.1-5.6,12.8-10.5,19.1-15.9
			c18.4-15.7,36-32.3,54.3-48.1c4.7-4.1-1.9-11.9-6.9-8.4c-12.3,8.7-24.4,17.7-36.9,26.2c-15.7,10.7-32.1,22.2-50,29.2
			c-2.4,0.9-5.6,2-7.7,2.2c-0.5,0.1-0.9,0.1-1.3,0.1c0-0.4,0.1-0.8,0.3-1.3c0.8-2,1.9-3.8,3.1-5.6c3-4.9,6.9-9.2,10.7-13.5
			c6.3-7.1,13.1-14,20-20.5c11.6-11,25.3-19.9,34.5-33.3c0.4-0.5,0.7-1.1,1.1-1.6c2.8-4-2.3-9.3-6.5-7.8
			c-13.9,4.8-26.3,12.7-38.8,20.3c-7.9,4.8-16,9-23.7,14c-7.7,4.9-15.5,9.7-23.6,13.8c-2.6,1.3-10.3,5.3-14.8,5.7
			c3.6-11.6,13.8-21.8,21.4-30.6c11-12.6,22.8-24.5,34.7-36.4c11.7-11.7,24.3-22.3,35.8-34.2c9.4-9.7,21.7-18.7,25.7-32.1
			c1-3.5-2.2-6.8-5.6-6.7c-24.3,0.6-45.8,18.9-65.7,30.9c-10,6-20.8,11.2-31.2,16.3c-10,4.9-21.9,10.4-33.5,10.1
			c0.6-6.8,7.7-13.4,11.7-17.9c6.6-7.3,13-14.8,20-21.8c16-16,33.3-31.4,51-45.5c18.3-14.6,36.5-29.3,54.5-44.1
			c15.6-12.9,33.8-25.4,45.4-42.2c3-4.4-2.4-8.6-6.5-7.8c-7.8,1.5-14.6,6.8-20.9,11.3c-8.6,6.1-17.8,11.5-26.7,17.1
			c-21.1,13.2-41.7,27.7-63.4,40c-20.9,11.9-41.4,24.5-62.1,36.8c-9.4,5.6-18.9,11.1-28.6,16.2c-6.5,3.4-13.4,6.9-20.6,8.9
			c3-4,8.3-8.3,10.2-10.1c6.2-5.7,13-10.8,19.7-15.8c10.4-7.8,20-16.6,30.1-24.7c12.7-10.2,25.7-20.1,38.6-30.1
			c37.6-29,76.1-56.9,115.3-83.6c14.6-9.2,29-18.6,43-28.6c5.7-4.1,0.2-13.2-5.8-9.4c-13.3,8.7-26.5,17.5-39.7,26.4
			c-32.8,20.7-66.6,39.8-99.3,60.8c-23.1,14.9-46.3,29.6-70,43.5c-11,6.4-22.2,12.3-33.3,18.5c-6.4,3.6-14.2,9-22.1,10.8
			c5.1-8.4,12.4-15.4,19.8-21.8c10.5-9.3,22.2-17.2,33.8-25.2c28.6-19.8,55.4-42.4,83.4-63c63.2-46.3,128.8-88.9,194.6-131.3
			c13.4-8.7,27.5-15.7,41.5-23.5c7.5-4.2,15-8.7,21.9-13.8c4.9-3.6,9.8-7.7,11.8-13.5c1.3-3.6-3.2-7.7-6.7-6.2
			c-70.1,28.9-135.5,67.4-201.6,104.3c-66.3,37-133,73.3-200,108.9c-5.6,3-11.7,5.9-18,6.8c1.8-7,12.2-14.8,16.4-18.3
			c8.1-6.9,16.9-13.2,25.1-20c29.5-24.5,60.9-46.6,92.6-68.2c65-44.4,132.1-85.7,199.8-125.8c12.4-7.4,24.7-15,37.3-22.3
			c12.4-7.2,24.7-14.7,35.8-23.8c4.1-3.3,1.8-11.1-4.1-9.1c-34.8,11.8-66.5,30.7-98.9,47.7l-0.3,0.2c-1.6-1.9-3-3.9-3.3-6.2
			c-0.5-3.3,3.3-6.3,5.6-8.1c6.8-5.5,15-9,23-12.3c14-5.8,29.8-11.1,39.6-23.3c1.7-2.2,1.2-6.2-2.1-6.7c-16.1-2.2-31.4,3.4-46.8,7.3
			c-8.8,2.3-18.6,6.6-28.1,6.9c11.9-8.7,27.8-12.7,41-18.1c14.6-6,32.6-9.7,43.2-22.3c2.2-2.6,0.5-6.7-3-6.7
			c-20.2,0.4-39.1,11.4-59.1,12.6c6.9-4.7,14.2-8.6,21.7-12.1c0.3-0.1,0.5-0.1,0.8-0.2c4.8-1.2,9.7-2.1,14.6-3.1
			c13.9-2.7,27.8-5.2,41.8-7.4c31.1-4.9,62.4-9,92.6-18.1C722,53.8,720.3,48.2,716.5,49.2z M103.5,298.8c-5.6-10.3-5.8-22.4-4-33.7
			c0.8-5,2.3-9.8,4.3-14.4c14.8-7.7,29.3-16,43.9-23.9c33.6-18.3,67-36.9,100.8-54.7c33.3-17.5,67.3-33.6,102.1-48.1
			c17.4-7.2,35.3-13.6,53.1-19.7c7.9-2.7,15.8-5.2,23.7-8.1c5-1.8,10.5-3.8,16-4.4c-8.5,7.5-19.3,12.4-29.3,17.3
			c-15.3,7.4-29.6,15.9-44.1,24.7l-103,62.3c-33.5,20.3-67.1,40.3-99.8,61.9c-15.5,10.2-30.5,21.4-46.2,31.3
			c-5.6,3.5-11.3,7-16.9,10.6C103.9,299.5,103.7,299.2,103.5,298.8z M95.7,324.1c-6.1,3.7-13.7,8.6-21.4,10.2
			c8.1-9,18.4-16.3,28.3-23c1.6,1.9,3.3,3.7,5.1,5.4C103.7,319.2,99.7,321.7,95.7,324.1z M549.9,132.4c12.4-3.7,26.2-8.7,39.6-9.1
			c-12.5,10.2-30.3,14.2-44.4,21.4c-7,3.6-15.9,9-18.8,16.6c-2.1,5.5,0.2,10.5,3.7,14.7c-32.7,17.1-65.4,34.4-98.1,51.6
			c-34.6,18.2-69.3,36.3-103.7,54.8c-33.8,18.2-67.6,36.5-102.4,52.8c-10.3,4.8-20.6,9.7-31,14.1c-7.9,3.4-17,6.9-25.8,7
			c5.6-9.5,17-16.8,25.4-22.7c12.4-8.7,24.8-17.3,37.2-26.1c31.7-22.5,64.5-43.5,97.6-63.9c33.5-20.7,67.3-40.9,101.1-61
			c16.7-9.9,33.5-19.9,50.1-29.9c10.3-6.2,20.9-12.1,31.3-18.1c0.5,1,1.5,1.8,2.7,2.2C526,140.4,538.8,135.8,549.9,132.4z"/>
		<path class="st6" d="M342.4,110.9c-6.4,2.3-12.6,5-19,7.3c-3.6,1.3-8.6,3.5-13.2,4.1c4.3-3.6,8.8-6.9,13.2-10.3
			c3-2.4,1.2-7.8-2.9-6.4c-22.6,7.3-42.7,20.6-63,32.6c-16.7,9.9-32.2,22-49.6,30.7c11.6-13.4,27.3-23.7,41.5-33.8
			c20.6-14.8,42.1-28.2,62.5-43.3c1.5-1.1,1.6-3.3-0.1-4.3c-7.8-4.2-20.5,2.7-27.5,5.9c-12.2,5.5-23.9,12-35.6,18.5
			c-8.3,4.6-16.6,9.3-24.8,14.2c-6.3,3.7-12.6,7.3-19.1,10.4c-3.2,1.5-7.9,4.1-12.1,4.7c3-3.5,6.1-6.8,9.4-10
			c1.9-1.9-1.2-4.8-3.1-2.9c-4.3,4.2-8.4,8.5-12.1,13.3c-1,1.3-0.5,3.1,1.1,3.6c3.9,1.2,8.4-0.5,12.1-1.8c6.2-2.3,12.1-5.5,17.8-8.6
			c9.9-5.4,19.4-11.5,29.4-16.7c10-5.2,19.8-10.9,29.9-15.9c6.3-3.1,12.8-6,19.4-8.4c2-0.7,4.8-1.8,7.6-2.3
			c-19.6,13.8-39.9,26.4-59.5,40.3c-17.6,12.5-37.4,25.3-49.4,43.7c-1.5,2.3,1.3,5.5,3.8,4.6c21.3-7.9,39.5-21.8,58.6-33.7
			c13.8-8.6,28-17.5,42.8-24.8c-0.3,0.3-0.6,0.6-0.9,0.8c-1.7,1.6-1.1,4.6,1,5.6c6.5,3.1,14.2,0.8,20.6-1.3c8-2.6,15.3-6.7,23.1-9.9
			C347.7,115.2,346.2,109.5,342.4,110.9z"/>
		<path class="st7" d="M41,255c-2.9,5.1-5.1,10.2-1.3,15.5c0.8,1.1,2.6,0,1.8-1.1c-2.9-4.5-0.9-9.1,1.1-13.6
			C43,254.8,41.6,254.1,41,255z"/>
		<path class="st7" d="M602.3,372.9c-41.4-45.1-92.9-79.6-134-125.2c-20.1-22.3-34.8-48.5-52.2-72.8c-5.3-7.4-11-14.7-17.6-21
			c-5.8-5.6-13.6-11.4-22.1-9.6c-0.7,0.2-1.5,0.9-1.6,1.7c-2.5,15.7,6.1,32.3,12.3,46.2c5.9,13.2,13.7,26.5,17.7,40.4
			c2,7.1-3.4,7-7.8,4.6c-6.7-3.8-12.4-9.7-17.8-15.2c-12.5-12.8-23.8-26.8-34.6-41.1c-14.8-19.6-27-40.9-42.7-59.8
			c-9.8-11.9-20.8-24.8-33.9-33.2c-3.5-2.2-7.9-4-11.9-2.3c-4.9,2.1-5.4,8.9-5.6,13.5c-0.8,17.7,7.3,35.5,13.9,51.5
			c8.2,19.8,15.1,40.1,21.9,60.4c0.5,1.7,3.1,0.9,2.6-0.8c-5.9-17.3-11.3-34.9-18-51.9c-5.9-14.9-12.5-29.6-15.7-45.5
			c-1.3-6.5-3.2-17.7,1.3-23.3c3.7-4.6,13,3.6,15.7,5.9c12,10.1,22.4,22.4,31.9,34.8c13.9,18.1,25.4,37.9,39.2,56.1
			c10.9,14.4,22.3,28.5,35.1,41.3c5.3,5.3,20.2,21.9,28.8,14.1c5.8-5.3,0.6-15.2-1.8-20.7c-6.9-15.3-14.2-30.5-20.2-46.2
			c-3.1-8-6.3-16-6.2-24.7c0-6,13.7,4.3,15.4,5.9c9.2,8.1,16.3,18.8,23.4,28.8c10.3,14.5,19.3,29.8,29.6,44.3
			c10.1,14.2,22,26.9,34.2,39.3c5.1,5.1,10.2,10.1,15.4,15c-29.3-17.5-66.2-21.4-99.1-27.6c-1-0.2-1.3,1.3-0.3,1.5
			c28.8,5.7,58.6,9.8,85.5,22.1c13.7,6.2,26,15,35.9,26.3c5.5,6.3,10.1,13.9,5.4,21.9c-3.6,6.2-11.4,9.9-17.5,12.9
			c-15.2,7.5-32.6,11.6-49.1,16c-16.1-12.8-31.1-26.9-45-42.1c-8.1-8.8-15.8-18-22.5-27.9c-6.6-9.7-12.4-20-19.3-29.5
			c-1-1.4-3.2,0-2.2,1.4c6.8,9.6,12.6,19.8,19,29.7c6.3,9.7,13.8,18.5,21.3,27.2c13.5,15.5,28.3,29.5,44,42.5c0,0-0.1,0-0.1,0
			c-18.3,5-36.6,9.6-54.7,15.3c-14.1,4.4-27.9,9.6-41.7,14.8c-5.5,2.1-17.3,6.5-15.3,14.5c1.6,6.3,8.8,10.4,14,13.4
			c8.3,4.7,17.9,7,27.1,8.9c19.4,4.1,40.9,6.5,57,19.3c11.8,9.4-6,20.1-13.3,25.3c-10,7.2-20.6,13.5-31.3,19.6
			c-10.1,5.8-20.1,11.4-30.1,17.5c-8.4,5.1-17.1,9.5-23.4,17.3c-0.9,1.1-0.9,3.1,0.6,3.7c14.5,5.9,30.2,4.1,45.4,4.7
			c10.9,0.4,40.5,5.8,31.4,22.6c-4.8,8.7-14.9,14.5-22.9,20.2c-8.7,6.1-17.3,12.3-25.5,19c-8.3,6.7-33.6,26-23,39.3
			c4.9,6.1,14.9,6.2,22,6.2c10.7,0.1,21.4-1.5,32.1-2.8c7.7-1,29.9-4,26.6,9.5c-1.4,6-5.7,11.5-9.3,16.3
			c-4.6,6.1-9.6,11.9-14.5,17.8c-6.3,7.6-17.7,18.5-17.4,29.3c0.3,10.3,10.7,9.9,16.7,15.2c10.1,8.8-2.9,27.5-8,35.7
			c-1.6,2.6,2.6,4.8,4.2,2.2c6.4-10.2,14.5-22.6,10.9-35.2c-1.4-4.9-5.4-8.1-9.9-10c-4.6-2-10.3-3.6-9-10.1
			c1.3-6.7,7.1-12.9,11.2-18c5.7-7.1,11.7-14,17.4-21.1c5.9-7.5,19.6-23.7,9.4-32.9c-5-4.5-13.9-5-20.2-4.5
			c-9.5,0.7-19,2.5-28.5,3.3c-8.5,0.7-18.6,1.8-26.7-1.6c-8.2-3.4-3-12.3,0.7-17.1c11.5-15.2,28.8-26.2,44.2-37
			c10.5-7.4,34.1-21.8,23.7-37.3c-6.4-9.5-21.1-12.7-31.6-13.4c-14.5-1.1-30,1.3-44.1-3.3c4.4-4.6,9.8-7.9,15.3-11.1
			c7.2-4.2,14.2-8.8,21.5-12.8c15.8-8.7,31.6-17.6,46.3-28.2c8.2-5.9,22.8-15.4,16.1-27.2c-2.5-4.5-7.9-7.4-12.3-9.7
			c-6.2-3.3-12.9-6.1-19.6-8.2c-14.1-4.5-29.1-5.6-43.4-9.6c-7.4-2.1-14.4-5.2-20.5-9.9c-5.7-4.4-6.9-8.2-0.4-12.2
			c4.5-2.8,9.8-4.4,14.8-6.1c7.2-2.5,14.2-5.4,21.4-7.9c17.8-6.3,36.1-11.2,54.4-16.1c5.3-1.4,10.5-2.9,15.8-4.3
			c1.1,0.9,2.3,1.9,3.4,2.8c16.7,13.4,36.4,22.3,56.6,29.2c21,7.1,42.9,13.1,64.6,17.9c1.8,0.4,3-2.4,1.1-3.1
			c-19.1-7.4-39.5-11.3-59-17.3c-21.6-6.7-42.5-15.8-60.5-29.6c-0.5-0.4-1-0.8-1.5-1.1c6.4-1.8,12.7-3.6,19-5.5
			c11.7-3.6,23.4-7.2,34.2-13.3c6.9-3.9,13.8-9.7,15.1-17.9c0.7-4.6-0.9-9-3.5-12.9c24.7,21.6,50,42.6,73.7,65.4
			C601.6,376.9,603.8,374.5,602.3,372.9z"/>
		<path class="st7" d="M716.1,60c-19.1,0.8-38.2-0.4-57.1-3.3c-16-2.4-31.7-6.7-47.8-8.8c-14.5-1.9-41.6-5.4-47.5,12.9
			c-7.7,24,19.1,44.7,32.8,60.2c8.1,9.2,16.4,21.8,13.2,34.7c-2.7,10.5-14.4,15.7-23.9,18.1c-27.3,7-54.7-5.9-76-22.2
			c-11.6-8.9-22.4-19-34-28c-9.5-7.4-18.7-13-31.2-11.4c-20.3,2.6-33.2,24.9-24.7,43.6c8.6,19,30.2,30.2,48,38.7
			c37.8,18,78.6,28.6,117.1,44.8c1.2,0.5,2.1-1.2,0.9-1.8c-15.6-8-32.3-13.7-48.8-19.5c-12.2-4.3-24.1-9.2-36.2-13.8
			c-21-7.9-42.6-16.7-60.5-30.5c-7.9-6.1-15.4-13.8-18.2-23.6c-3.5-12,3-24.8,13.5-30.8c13.5-7.7,26.4-1.2,37.4,7.3
			c11.6,8.9,22.4,19,34,28c20.1,15.7,44.5,27.4,70.6,24.9c18.1-1.8,39.2-11.8,37-33c-2.6-25.4-30.2-40.3-42.3-60.7
			c-5.9-9.8-9.1-25,2.7-31.7c8.8-5,21.2-3.6,30.7-2.6c16.9,1.8,33.4,6.3,50.2,9c20,3.2,40.1,4.6,60.3,2.8
			C718.5,63.3,718.4,59.9,716.1,60z"/>
		<path class="st7" d="M362.1,458.3c-3.7-14.7-11-27.8-18-41.1c-3.6-6.9-7-13.9-9.7-21.2c-3.3-8.7-4.5-17.8-5.8-27
			c-2.4-17.8-3.8-35.8-3.7-53.7c0.1-14.9,3.5-29.9-0.1-44.6c-0.3-1.1-1.7-1.9-2.7-1.5c-12.2,4.9-21,14.9-28.6,25.3
			c-8.4,11.5-15.3,24.3-21.8,36.9c-4.1,8-7.5,16.4-11.1,24.6c-1.4,3.2-2.9,6.4-4,9.8c-1.3,4.2-1.8,8.6-4.6,12.2
			c-0.9,1.2,0.3,1.7-1.1,0.8c-0.5-0.3-0.9-0.7-1.3-1.1c-0.9-0.9-1.7-1.9-2.4-3c-2-2.9-3.2-6.2-4.4-9.5c-6.2-18-7.5-37.8-9.6-56.6
			c-1.8-16.1-2.4-33.7-8-49c-1.3-3.5-3.4-7.9-7.5-8.6c-6.9-1.3-13.6,6.5-17,11.4c-11.7,16.7-16.5,37.3-23.4,56.2
			c-1.8,4.8-3.5,11.2-7.9,14.3c-6.2,4.4-11.9-10.7-13-14.3c-5.2-16-7.4-32.3-7.7-49.1c-0.4-16.7,1.3-33.6,0.1-50.3
			c-0.6-8-1.1-20-8.6-25.1c-12.4-8.4-29.8,5.2-39.8,11.8c-7.2,4.7-17.5,11.9-26.3,7.2c-8.2-4.4-5.3-20.3-4.5-27.5
			c0.2-1.4-2-1.9-2.2-0.5c-1.3,9.4-3.5,21,3.1,28.9c6.7,8.1,19.3,2.2,26.4-1.8c11.1-6.3,21.2-15.8,34.5-16.8
			c13.2-1,13.2,18,13.7,26.9c1,17.1-1,34.4-0.5,51.5c0.4,15.8,3.3,30.8,7.7,45.9c2.2,7.5,8.1,20.4,18,17.5
			c7.7-2.3,10.8-15.9,13.2-22.5c3.4-9.5,6.2-19.1,9.9-28.5c3.9-9.8,8.7-21.5,17.2-28.2c5.4-4.2,8.2-2.7,10.4,2.9
			c2.6,6.8,3.6,14.3,4.7,21.4c2.8,19.6,4.2,39.5,7.3,59.1c2,12.6,3.9,31.4,14.5,40.3c0.8,0.7,1.8,1.3,2.8,1.8
			c0.7,0.3,1.6,0.4,2.2-0.1c3.2-2.2,5.2-5.1,6.3-8.8c1.8-5.7,3.3-11,5.7-16.5c5.4-12.4,11-24.5,17.5-36.4
			c9.2-17,20.8-38.6,39.2-47.3c2.9,14.8-0.7,30.4-0.6,45.4c0.1,18.1,1.7,36.2,4.2,54c2.1,15.2,6.8,28.6,13.7,42.3
			c7.2,14.3,15.1,28.1,19.9,43.4C359.1,461.8,362.7,460.7,362.1,458.3z"/>
	</g>
</g>
</svg>
