<?xml version="1.0" encoding="utf-8"?>
<!-- Generator: Adobe Illustrator 22.0.1, SVG Export Plug-In . SVG Version: 6.00 Build 0)  -->
<svg version="1.1" id="Layer_1" xmlns="http://www.w3.org/2000/svg" xmlns:xlink="http://www.w3.org/1999/xlink" x="0px" y="0px"
	 viewBox="0 0 400.9 400.3" style="enable-background:new 0 0 700.9 400.3;" xml:space="preserve">
<style type="text/css">
	.st0{fill:#FFFFFF;}
</style>
<g id="Group_16" transform="translate(1470.185 959.006)">
	<g id="Group_14" transform="translate(2.815 11.994)">
		<path id="Path_16" class="st0" d="M-1272.1-960.9c104.7,0,190,85.2,190,190c0,98.4-75.8,181-173.7,189.4
			c-5.3,1.1-10.5,1.1-16.3,1.1c-13.7,0-27.9-1.6-41.1-4.2c-102.6-22.6-167.4-124.2-144.7-226.8
			C-1438.9-899.3-1361.6-961.4-1272.1-960.9 M-1272.1-970.9c-110.5,0-200,89.5-200.5,200c0,93.7,65.3,175.2,156.8,195.7
			c14.2,3.2,28.9,4.7,43.2,4.2c5.8,0,12.1,0,17.9-1.1c101.6-8.4,182.1-95.8,182.1-199.4C-1072.6-881.4-1162.1-970.9-1272.1-970.9
			L-1272.1-970.9z"/>
	</g>
	<g id="Group_15" transform="translate(27.057 33.079)">
		<path id="Path_17" class="st0" d="M-1275.1-832.1c4.7-4.2,11.1-6.3,17.4-5.8c8.9,0,17.4,1.1,25.8,3.7l7.4-40
			c-15.3-4.7-31.1-7.4-47.4-6.8c-13.7-0.5-27.4,2.1-39.5,8.4c-9.5,4.2-16.8,12.1-21.1,21.6c-4.2,8.4-5.8,22.6-5.8,40v15.8h-31.6
			v45.8h31.6v143.1c13.7,3.2,27.4,4.7,41.1,4.2c5.3,0,11.1,0,16.3-1.1v-146.3h41.6v-45.8h-41.6V-810
			C-1280.3-821-1278.8-827.9-1275.1-832.1z"/>
	</g>
</g>
</svg>
