<?xml version="1.0" encoding="utf-8"?>
<!-- Generator: Adobe Illustrator 22.0.1, SVG Export Plug-In . SVG Version: 6.00 Build 0)  -->
<svg version="1.1" id="Layer_1" xmlns="http://www.w3.org/2000/svg" xmlns:xlink="http://www.w3.org/1999/xlink" x="0px" y="0px"
	 viewBox="0 0 400 400" style="enable-background:new 0 0 400 400;" xml:space="preserve">
<style type="text/css">
	.st0{fill:none;stroke:#FFFFFF;stroke-width:4;stroke-miterlimit:10;}
	.st1{fill:#FFFFFF;}
</style>
<g id="Group_28" transform="translate(1606.233 862.69)">
	<g id="Group_27" transform="translate(151.767 107.31)">
		<g id="Group_23">
			<path id="Path_23" class="st0" d="M-1558.5-570L-1558.5-570c-110.7,0-200-89.8-200-200l0,0c0-110.7,89.8-200,200-200l0,0
				c110.7,0,200,89.8,200,200l0,0l0,0C-1358-659.8-1447.8-570-1558.5-570z"/>
		</g>
		<g id="Group_26" transform="translate(18.152 24.979)">
			<g id="Group_25">
				<g id="Group_24">
					<path id="Path_24" class="st1" d="M-1473-833.7c0-17.2-14.1-31.3-31.3-31.3l0,0h-146.2c-17.2,0-31.3,14.1-31.3,31.3v83.6
						c0,17.2,14.1,31.3,31.3,31.3l0,0h146.7c17.2,0,31.3-14.1,31.3-31.3l0,0L-1473-833.7z M-1598.3-756.4v-78.9l59.5,39.2
						L-1598.3-756.4z"/>
				</g>
			</g>
		</g>
	</g>
</g>
</svg>
